<?xml version="1.0" encoding="UTF-8"?>
<svg xmlns="http://www.w3.org/2000/svg" xmlns:xlink="http://www.w3.org/1999/xlink" version="1.2">
<font id="Wuerth Bold">
<font-face font-family="Wuerth" units-per-em="2048" ascent="1584" descent="-464" font-style="normal" font-weight="500" font-stretch="normal" cap-height="1365" x-height="928" underline-position="-212" underline-thickness="226"/>
<missing-glyph horiz-adv-x="512" d="M51 0 L51 1365 L461 1365 L461 0 L51 0 Z M410 51 L410 1314 L102 1314 L102 51 L410 51 Z "/>
<glyph glyph-name="space" unicode=" " horiz-adv-x="512" d=""/>
<glyph glyph-name="exclam" unicode="!" horiz-adv-x="696" d="M349 386 Q437 386 499 324 Q561 262 561 174 Q561 86 499 24 Q437 -38 349 -38 Q261 -38 199 24 Q137 87 137 177 Q137 263 199 324 Q262 386 349 386 Z M178 464 L178 1365 L519 1365 L519 464 L178 464 Z "/>
<glyph glyph-name="quotedbl" unicode="&quot;" horiz-adv-x="840" d="M326 816 L133 816 L84 1365 L375 1365 L326 816 Z M707 816 L514 816 L465 1365 L757 1365 L707 816 Z "/>
<glyph glyph-name="numbersign" unicode="#" horiz-adv-x="1229" d="M1149 610 L1149 374 L932 374 L882 0 L612 0 L662 374 L486 374 L437 0 L170 0 L220 374 L32 374 L32 610 L249 610 L272 784 L86 784 L86 1019 L301 1019 L347 1365 L614 1365 L568 1019 L744 1019 L789 1365 L1059 1365 L1013 1019 L1198 1019 L1198 784 L984 784 L961 610 L1149 610 Z M714 784 L538 784 L516 610 L692 610 L714 784 Z "/>
<glyph glyph-name="dollar" unicode="$" horiz-adv-x="1229" d="M732 1581 L732 1362 Q923 1343 1061 1257 L927 996 Q808 1084 697 1084 Q608 1084 562 1032 Q542 1009 542 980 Q542 941 581 908 Q619 876 666 860 L775 824 Q931 771 1017 691 Q1113 603 1113 440 Q1113 270 1017 157 Q938 62 732 3 L732 -224 L564 -224 L564 -8 Q437 -2 315 45 Q187 94 117 158 L265 431 Q434 280 595 280 Q700 280 746 353 Q763 381 763 411 Q763 455 725 486 Q690 515 645 529 Q633 533 541 562 Q387 609 302 679 Q195 769 195 937 Q195 1079 273 1194 Q343 1297 450 1337 Q494 1354 564 1362 L564 1581 L732 1581 Z "/>
<glyph glyph-name="percent" unicode="%" horiz-adv-x="1834" d="M450 1380 Q627 1380 727 1273 Q815 1179 815 1049 Q815 890 694 788 Q602 711 437 711 Q256 711 155 817 Q68 906 68 1052 Q68 1194 167 1286 Q268 1380 450 1380 Z M441 1200 Q378 1200 333 1155 Q288 1110 288 1048 Q288 984 333 938 Q377 893 442 893 Q505 893 550 938 Q595 983 595 1047 Q595 1111 550 1155 Q504 1200 441 1200 Z M1223 1365 L1401 1365 L608 0 L431 0 L1223 1365 Z M1400 653 Q1577 653 1677 546 Q1765 452 1765 322 Q1765 163 1644 61 Q1552 -16 1387 -16 Q1206 -16 1105 90 Q1018 180 1018 325 Q1018 467 1117 559 Q1219 653 1400 653 Z M1391 473 Q1328 473 1283 428 Q1238 383 1238 321 Q1238 257 1283 211 Q1328 166 1392 166 Q1455 166 1500 211 Q1545 256 1545 320 Q1545 384 1500 428 Q1454 473 1391 473 Z "/>
<glyph glyph-name="ampersand" unicode="&amp;" horiz-adv-x="1548" d="M880 702 L1051 522 Q1159 621 1229 716 L1430 523 Q1370 444 1243 323 L1548 0 L1106 0 L987 125 Q741 -38 517 -38 Q391 -38 283 17 Q179 70 125 173 Q82 254 82 354 Q82 534 216 646 Q260 683 408 750 Q353 819 336 846 Q281 928 281 1030 Q281 1122 330 1207 Q445 1403 706 1403 Q907 1403 1024 1284 Q1132 1175 1132 1031 Q1132 883 1016 787 Q970 750 880 702 Z M578 571 Q449 490 449 410 Q449 346 509 306 Q547 280 607 280 Q700 280 793 339 L578 571 Z M725 868 Q851 945 851 1037 Q851 1090 816 1128 Q785 1162 731 1162 Q673 1162 642 1121 Q617 1087 617 1048 Q617 1001 668 934 Q687 909 706 888 Q724 867 725 868 Z "/>
<glyph glyph-name="quotesingle" unicode="'" horiz-adv-x="459" d="M326 816 L133 816 L84 1365 L375 1365 L326 816 Z "/>
<glyph glyph-name="parenleft" unicode="(" horiz-adv-x="692" d="M399 1558 L597 1446 Q388 1088 388 598 Q388 307 476 14 Q523 -144 597 -258 L399 -370 Q285 -205 232 -28 Q137 285 137 611 Q137 921 236 1223 Q298 1411 399 1558 Z "/>
<glyph glyph-name="parenright" unicode=")" horiz-adv-x="692" d="M294 -370 L96 -258 Q305 100 305 590 Q305 881 217 1174 Q169 1332 96 1445 L294 1558 Q408 1393 461 1216 Q556 902 556 577 Q556 266 457 -36 Q395 -224 294 -370 Z "/>
<glyph glyph-name="asterisk" unicode="*" horiz-adv-x="1229" d="M534 1502 L696 1502 L664 1255 L890 1361 L940 1207 L695 1161 L866 979 L735 884 L616 1103 L495 884 L364 979 L535 1160 L290 1207 L340 1361 L565 1254 L534 1502 Z "/>
<glyph glyph-name="plus" unicode="+" horiz-adv-x="1229" d="M130 799 L499 799 L499 1167 L731 1167 L731 799 L1099 799 L1099 567 L731 567 L731 198 L499 198 L499 567 L130 567 L130 799 Z "/>
<glyph glyph-name="comma" unicode="," horiz-adv-x="621" d="M217 347 L525 347 L192 -254 L-18 -254 L217 347 Z "/>
<glyph glyph-name="hyphen" unicode="-" horiz-adv-x="519" d="M0 621 L519 621 L519 348 L0 348 L0 621 Z "/>
<glyph glyph-name="period" unicode="." horiz-adv-x="621" d="M311 386 Q399 386 461 324 Q523 262 523 174 Q523 86 461 24 Q399 -38 311 -38 Q223 -38 161 24 Q99 87 99 177 Q99 263 161 324 Q224 386 311 386 Z "/>
<glyph glyph-name="slash" unicode="/" horiz-adv-x="1014" d="M743 1502 L1003 1502 L257 -314 L-2 -314 L743 1502 Z "/>
<glyph glyph-name="zero" unicode="0" horiz-adv-x="1229" d="M615 1417 Q872 1417 1039 1206 Q1194 1011 1194 683 Q1194 442 1118 285 Q1036 115 893 25 Q769 -52 616 -52 Q357 -52 191 159 Q110 262 76 378 Q36 516 36 693 Q36 1014 191 1206 Q361 1417 615 1417 Z M615 1100 Q549 1100 490 1039 Q438 986 411 879 Q388 786 388 684 Q388 496 451 375 Q476 325 524 291 Q568 259 615 259 Q681 259 740 320 Q791 373 818 480 Q842 573 842 680 Q842 866 779 985 Q753 1034 706 1069 Q663 1100 615 1100 Z "/>
<glyph glyph-name="one" unicode="1" horiz-adv-x="1229" d="M479 1065 L285 1065 L285 1365 L834 1365 L834 0 L479 0 L479 1065 Z "/>
<glyph glyph-name="two" unicode="2" horiz-adv-x="1229" d="M702 300 L1149 300 L1149 0 L53 0 L400 363 Q572 542 684 709 Q767 833 767 944 Q767 1020 716 1074 Q672 1121 608 1121 Q526 1121 486 1051 Q462 1008 462 954 Q462 934 468 897 L77 897 Q78 1038 148 1170 Q215 1297 337 1361 Q455 1423 606 1423 Q846 1423 993 1279 Q1135 1140 1135 931 Q1135 811 1088 712 Q1041 616 932 514 L702 300 Z "/>
<glyph glyph-name="three" unicode="3" horiz-adv-x="1229" d="M547 599 L547 841 Q574 839 587 839 Q660 839 700 886 Q739 931 739 991 Q739 1060 690 1097 Q651 1127 599 1127 Q521 1127 480 1066 Q457 1031 454 971 L126 971 Q142 1106 194 1195 Q258 1303 368 1358 Q487 1418 629 1418 Q830 1418 952 1307 Q1069 1200 1069 1024 Q1069 919 1023 837 Q993 784 924 739 Q1005 713 1052 658 Q1148 546 1148 390 Q1148 243 1063 132 Q989 35 865 -14 Q745 -61 613 -61 Q282 -61 125 206 Q57 321 54 437 L417 437 Q421 367 450 325 Q502 246 611 246 Q704 246 754 309 Q796 361 796 426 Q796 519 720 574 Q670 610 609 610 Q583 610 547 599 Z "/>
<glyph glyph-name="four" unicode="4" horiz-adv-x="1229" d="M1012 553 L1178 553 L1178 280 L1012 280 L1012 0 L684 0 L684 280 L23 280 L23 509 L548 1365 L1012 1365 L1012 553 Z M684 553 L684 1079 L363 553 L684 553 Z "/>
<glyph glyph-name="five" unicode="5" horiz-adv-x="1229" d="M1013 1065 L541 1065 L516 914 Q579 923 626 923 Q832 923 967 795 Q1113 655 1113 444 Q1113 305 1044 192 Q900 -44 540 -44 Q293 -44 94 80 L147 412 Q335 254 520 254 Q635 254 700 332 Q747 387 747 459 Q747 575 638 640 Q559 688 443 688 Q314 688 184 631 L303 1365 L1013 1365 L1013 1065 Z "/>
<glyph glyph-name="six" unicode="6" horiz-adv-x="1229" d="M547 1365 L950 1365 L561 901 Q668 943 753 943 Q939 943 1066 808 Q1194 671 1194 465 Q1194 208 998 60 Q843 -55 608 -55 Q329 -55 177 101 Q36 246 36 446 Q36 588 114 753 Q169 869 242 965 L547 1365 Z M607 675 Q513 675 447 609 Q381 543 381 450 Q381 357 447 291 Q513 225 607 225 Q701 225 766 291 Q832 358 832 448 Q832 544 766 609 Q699 675 607 675 Z "/>
<glyph glyph-name="seven" unicode="7" horiz-adv-x="1229" d="M714 1065 L144 1065 L144 1365 L1264 1365 L481 0 L91 0 L714 1065 Z "/>
<glyph glyph-name="eight" unicode="8" horiz-adv-x="1229" d="M364 719 Q280 754 235 803 Q149 894 149 1020 Q149 1104 191 1183 Q308 1402 616 1402 Q745 1402 859 1354 Q975 1305 1036 1197 Q1080 1119 1080 1019 Q1080 875 984 794 Q942 760 857 719 Q964 677 1018 629 Q1136 524 1136 369 Q1136 174 955 57 Q813 -35 616 -35 Q470 -35 340 22 Q211 79 143 184 Q93 263 93 369 Q93 533 214 637 Q265 681 364 719 Z M614 1164 Q552 1164 508 1120 Q464 1076 464 1016 Q464 953 508 908 Q552 864 615 864 Q677 864 721 908 Q765 952 765 1014 Q765 1077 721 1120 Q676 1164 614 1164 Z M614 575 Q546 575 499 527 Q451 479 451 413 Q451 345 499 296 Q546 248 615 248 Q682 248 730 296 Q778 344 778 412 Q778 480 730 527 Q681 575 614 575 Z "/>
<glyph glyph-name="nine" unicode="9" horiz-adv-x="1229" d="M683 0 L280 0 L669 464 Q563 421 477 421 Q291 421 164 557 Q36 693 36 899 Q36 1157 232 1304 Q386 1420 622 1420 Q901 1420 1053 1264 Q1194 1119 1194 919 Q1194 777 1116 612 Q1062 497 988 400 L683 0 Z M624 1141 Q531 1141 465 1075 Q399 1008 399 918 Q399 823 465 756 Q530 690 625 690 Q718 690 784 756 Q850 822 850 916 Q850 1010 784 1075 Q716 1141 624 1141 Z "/>
<glyph glyph-name="colon" unicode=":" horiz-adv-x="621" d="M311 386 Q399 386 461 324 Q523 262 523 174 Q523 86 461 24 Q399 -38 311 -38 Q223 -38 161 24 Q99 87 99 177 Q99 263 161 324 Q224 386 311 386 Z M310 996 Q398 996 460 934 Q522 872 522 785 Q522 697 460 635 Q398 573 311 573 Q222 573 161 635 Q99 698 99 787 Q99 873 161 934 Q224 996 310 996 Z "/>
<glyph glyph-name="semicolon" unicode=";" horiz-adv-x="621" d="M216 347 L524 347 L191 -254 L-19 -254 L216 347 Z M358 996 Q446 996 508 934 Q570 872 570 785 Q570 697 508 635 Q446 573 359 573 Q270 573 209 635 Q147 698 147 787 Q147 873 209 934 Q272 996 358 996 Z "/>
<glyph glyph-name="less" unicode="&lt;" horiz-adv-x="1024" d="M955 1346 L955 960 L477 692 L953 422 L955 40 L68 532 L68 854 L955 1346 Z "/>
<glyph glyph-name="equal" unicode="=" horiz-adv-x="1229" d="M130 980 L1099 980 L1099 748 L130 748 L130 980 Z M130 618 L1099 618 L1099 386 L130 386 L130 618 Z "/>
<glyph glyph-name="greater" unicode="&gt;" horiz-adv-x="1024" d="M68 40 L68 425 L546 694 L70 963 L68 1346 L955 853 L955 531 L68 40 Z "/>
<glyph glyph-name="question" unicode="?" horiz-adv-x="1120" d="M377 459 L377 812 Q420 802 450 802 Q532 802 601 842 Q687 891 687 983 Q687 1042 647 1080 Q607 1117 552 1117 Q483 1117 449 1060 Q430 1029 429 979 L68 979 Q71 1126 159 1233 Q226 1315 337 1360 Q443 1403 559 1403 Q764 1403 899 1276 Q970 1210 1007 1120 Q1038 1048 1038 974 Q1038 848 957 745 Q883 649 710 589 L710 459 L377 459 Z M552 385 Q640 385 702 323 Q764 262 764 174 Q764 86 702 24 Q640 -38 553 -38 Q464 -38 403 24 Q341 86 341 176 Q341 262 403 323 Q465 385 552 385 Z "/>
<glyph glyph-name="at" unicode="@" horiz-adv-x="1409" d="M1087 1027 L1032 576 Q1027 533 1027 488 Q1027 453 1049 453 Q1071 453 1093 464 Q1151 492 1187 548 Q1251 648 1251 772 Q1251 976 1101 1109 Q953 1241 734 1241 Q496 1241 334 1077 Q175 915 175 680 Q175 458 315 301 Q472 124 749 124 Q934 124 1071 188 L1136 219 L1148 224 Q1171 236 1180 240 L1245 75 Q1221 63 1209 57 Q1079 -4 981 -27 Q883 -50 751 -50 Q513 -50 340 49 Q180 140 84 301 Q-19 474 -19 678 Q-19 881 81 1050 Q176 1209 341 1304 Q519 1406 733 1406 Q944 1406 1114 1306 Q1259 1222 1341 1085 Q1427 942 1427 776 Q1427 611 1342 474 Q1274 363 1167 314 Q1098 282 1032 282 Q932 282 876 370 Q784 279 660 279 Q517 279 423 387 Q330 493 330 653 Q330 832 446 944 Q548 1043 697 1043 Q765 1043 819 1020 Q842 1011 886 984 L898 1027 L1087 1027 Z M705 850 Q634 850 587 796 Q537 739 537 647 Q537 567 577 517 Q613 472 670 472 Q750 472 806 537 Q866 607 866 692 Q866 764 818 807 Q770 850 705 850 Z "/>
<glyph glyph-name="A" unicode="A" horiz-adv-x="1454" d="M973 238 L483 238 L389 0 L14 0 L539 1365 L926 1365 L1440 0 L1061 0 L973 238 Z M877 508 L730 943 L581 508 L877 508 Z "/>
<glyph glyph-name="B" unicode="B" horiz-adv-x="1266" d="M143 0 L143 1365 L671 1365 Q862 1365 958 1270 Q1055 1175 1055 1009 Q1055 893 1005 818 Q972 768 905 729 Q1037 702 1095 643 Q1183 553 1183 387 Q1183 222 1072 118 Q947 0 712 0 L143 0 Z M498 828 L563 828 Q648 828 689 865 Q730 902 730 961 Q730 1021 689 1058 Q648 1094 563 1094 L498 1094 L498 828 Z M498 276 L577 276 Q695 276 752 301 Q783 315 803 347 Q824 380 824 421 Q824 504 756 539 Q718 559 672 562 Q633 564 571 564 L498 564 L498 276 Z "/>
<glyph glyph-name="C" unicode="C" horiz-adv-x="1208" d="M1126 1325 L1126 900 Q1004 1050 819 1050 Q657 1050 549 936 Q453 836 453 674 Q453 499 573 398 Q681 307 818 307 Q990 307 1126 450 L1126 30 Q1000 -12 941 -24.5 Q882 -37 808 -37 Q620 -37 447 58 Q263 159 169 327 Q82 480 82 671 Q82 885 188 1055 Q288 1217 465 1309 Q627 1394 805 1394 Q951 1394 1126 1325 Z "/>
<glyph glyph-name="D" unicode="D" horiz-adv-x="1423" d="M143 0 L143 1365 L667 1365 Q923 1365 1116 1184 Q1226 1082 1285 944 Q1340 815 1340 683 Q1340 489 1230 317 Q1120 146 942 62 Q810 0 667 0 L143 0 Z M498 300 L579 300 Q713 300 793 349 Q890 408 937 520 Q969 597 969 683 Q969 840 870 951 Q810 1019 731 1044 Q666 1065 579 1065 L498 1065 L498 300 Z "/>
<glyph glyph-name="E" unicode="E" horiz-adv-x="1002" d="M920 1065 L498 1065 L498 837 L897 837 L897 537 L498 537 L498 300 L920 300 L920 0 L143 0 L143 1365 L920 1365 L920 1065 Z "/>
<glyph glyph-name="F" unicode="F" horiz-adv-x="994" d="M925 1065 L498 1065 L498 837 L887 837 L887 537 L498 537 L498 0 L143 0 L143 1365 L925 1365 L925 1065 Z "/>
<glyph glyph-name="G" unicode="G" horiz-adv-x="1593" d="M807 758 L1511 758 Q1507 485 1440 338 Q1355 151 1194 52 Q1032 -48 810 -48 Q587 -48 410 54 Q237 154 152 342 Q81 497 81 675 Q81 878 172 1050 Q266 1230 440 1320 Q612 1409 823 1409 Q1094 1409 1272 1254 Q1365 1172 1438 1025 L1101 886 Q1008 1102 806 1102 Q649 1102 551 977 Q452 852 452 675 Q452 474 574 344 Q666 246 817 246 Q970 246 1048 346 Q1085 393 1098 482 L807 482 L807 758 Z "/>
<glyph glyph-name="H" unicode="H" horiz-adv-x="1509" d="M498 838 L1010 838 L1010 1365 L1365 1365 L1365 0 L1010 0 L1010 562 L498 562 L498 0 L143 0 L143 1365 L498 1365 L498 838 Z "/>
<glyph glyph-name="I" unicode="I" horiz-adv-x="642" d="M498 1365 L498 0 L143 0 L143 1365 L498 1365 Z "/>
<glyph glyph-name="J" unicode="J" horiz-adv-x="959" d="M816 1365 L816 421 Q816 281 781 208 Q720 84 595 17 Q493 -37 370 -37 Q151 -37 14 165 L246 402 Q252 349 277 316 Q312 269 362 269 Q462 269 462 426 L461 502 L461 1365 L816 1365 Z "/>
<glyph glyph-name="K" unicode="K" horiz-adv-x="1433" d="M498 802 L931 1365 L1369 1365 L827 719 L1419 0 L959 0 L498 592 L498 0 L143 0 L143 1365 L498 1365 L498 802 Z "/>
<glyph glyph-name="L" unicode="L" horiz-adv-x="963" d="M498 1365 L498 300 L924 300 L924 0 L143 0 L143 1365 L498 1365 Z "/>
<glyph glyph-name="M" unicode="M" horiz-adv-x="1875" d="M82 0 L314 1365 L664 1365 L941 637 L1234 1365 L1587 1365 L1793 0 L1438 0 L1337 786 L1007 0 L866 0 L551 786 L435 0 L82 0 Z "/>
<glyph glyph-name="N" unicode="N" horiz-adv-x="1649" d="M143 0 L143 1365 L498 1365 L1151 530 L1151 1365 L1506 1365 L1506 0 L1151 0 L498 836 L498 0 L143 0 Z "/>
<glyph glyph-name="O" unicode="O" horiz-adv-x="1675" d="M837 1406 Q1179 1406 1396 1177 Q1593 970 1593 679 Q1593 479 1494 310 Q1388 128 1201 33 Q1039 -49 831 -49 Q494 -49 279 179 Q82 387 82 691 Q82 882 181 1047 Q292 1233 474 1324 Q639 1406 837 1406 Z M837 1062 Q678 1062 567 950 Q454 836 454 683 Q454 521 567 407 Q678 295 838 295 Q997 295 1110 407 Q1222 520 1222 679 Q1222 840 1110 950 Q994 1062 837 1062 Z "/>
<glyph glyph-name="P" unicode="P" horiz-adv-x="1227" d="M498 454 L498 0 L143 0 L143 1365 L708 1365 Q869 1365 959 1317 Q1078 1252 1135 1135 Q1182 1040 1182 912 Q1182 705 1072 581 Q960 454 720 454 L498 454 Z M498 739 L616 739 Q719 739 761 778 Q811 824 811 908 Q811 1080 617 1080 L498 1080 L498 739 Z "/>
<glyph glyph-name="Q" unicode="Q" horiz-adv-x="1675" d="M1646 -39 L1320 -89 L1211 39 Q1125 -9 1045 -28.5 Q965 -48 857 -48 Q465 -48 255 209 Q82 419 82 680 Q82 852 163 1010 Q266 1209 454 1312 Q619 1403 836 1403 Q1047 1403 1223 1312 Q1411 1214 1513 1017 Q1593 863 1593 678 Q1593 484 1501 320 Q1471 267 1415 195 L1646 -39 Z M1063 572 L1157 471 Q1222 567 1222 677 Q1222 828 1111 943 Q999 1059 837 1059 Q675 1059 561 942 Q453 831 453 670 Q453 501 574 393 Q682 296 835 296 Q888 296 946 313 L728 531 L1063 572 Z "/>
<glyph glyph-name="R" unicode="R" horiz-adv-x="1284" d="M849 560 L1278 0 L836 0 L498 524 L498 0 L143 0 L143 1365 L695 1365 Q858 1365 953 1308 Q1053 1246 1106 1130 Q1147 1040 1147 943 Q1147 830 1095 732 Q1025 600 849 560 Z M498 754 L564 754 Q665 754 716 790 Q746 812 766 854 Q782 889 782 923 Q782 973 749 1020 Q700 1092 564 1092 L498 1092 L498 754 Z "/>
<glyph glyph-name="S" unicode="S" horiz-adv-x="1170" d="M1034 1287 L892 1011 Q777 1103 660 1103 Q585 1103 543 1062 Q508 1027 508 983 Q508 944 540 917 Q579 885 632 868 Q668 856 754 831 Q922 781 1003 695 Q1089 602 1089 448 Q1089 213 949 92 Q799 -36 555 -36 Q304 -36 82 119 L234 405 Q393 266 547 266 Q641 266 684 315 Q718 354 718 400 Q718 467 638 509 Q605 527 504 557 Q308 614 245 667 Q136 756 136 938 Q136 1151 277 1280 Q405 1398 601 1398 Q823 1398 1034 1287 Z "/>
<glyph glyph-name="T" unicode="T" horiz-adv-x="965" d="M658 1065 L658 0 L303 0 L303 1065 L14 1065 L14 1365 L952 1365 L952 1065 L658 1065 Z "/>
<glyph glyph-name="U" unicode="U" horiz-adv-x="1477" d="M498 1365 L498 626 Q498 487 509 447 Q533 362 597 318 Q656 278 735 278 Q830 278 897 333 Q960 386 974 484 Q979 521 979 626 L979 1365 L1334 1365 L1334 578 Q1334 382 1282 277 Q1203 117 1046 35 Q911 -35 730 -35 Q524 -35 373 54 Q204 154 161 351 Q143 434 143 578 L143 1365 L498 1365 Z "/>
<glyph glyph-name="V" unicode="V" horiz-adv-x="1432" d="M386 1365 L715 535 L1047 1365 L1432 1365 L850 0 L574 0 L0 1365 L386 1365 Z "/>
<glyph glyph-name="W" unicode="W" horiz-adv-x="2076" d="M371 1365 L608 483 L897 1365 L1179 1365 L1448 483 L1706 1365 L2076 1365 L1640 0 L1278 0 L1029 791 L768 0 L407 0 L0 1365 L371 1365 Z "/>
<glyph glyph-name="X" unicode="X" horiz-adv-x="1455" d="M534 728 L97 1365 L534 1365 L737 1011 L949 1365 L1385 1365 L940 728 L1455 0 L1027 0 L735 444 L429 0 L0 0 L534 728 Z "/>
<glyph glyph-name="Y" unicode="Y" horiz-adv-x="1311" d="M469 656 L-25 1365 L399 1365 L657 993 L905 1365 L1335 1365 L824 656 L824 0 L469 0 L469 656 Z "/>
<glyph glyph-name="Z" unicode="Z" horiz-adv-x="1293" d="M622 300 L1195 300 L1195 0 L27 0 L673 1065 L136 1065 L136 1365 L1265 1365 L622 300 Z "/>
<glyph glyph-name="bracketleft" unicode="[" horiz-adv-x="689" d="M423 1311 L423 -121 L608 -121 L608 -314 L164 -314 L164 1502 L608 1502 L608 1311 L423 1311 Z "/>
<glyph glyph-name="backslash" unicode="\" horiz-adv-x="1014" d="M272 1502 L1017 -314 L758 -314 L12 1502 L272 1502 Z "/>
<glyph glyph-name="bracketright" unicode="]" horiz-adv-x="689" d="M266 -123 L266 1309 L82 1309 L82 1502 L525 1502 L525 -314 L82 -314 L82 -123 L266 -123 Z "/>
<glyph glyph-name="asciicircum" unicode="^" horiz-adv-x="1024" d="M351 691 L13 691 L298 1375 L727 1375 L1012 691 L674 691 L513 1114 L351 691 Z "/>
<glyph glyph-name="underscore" unicode="_" horiz-adv-x="1024" d="M0 -99 L1024 -99 L1024 -325 L0 -325 L0 -99 Z "/>
<glyph glyph-name="grave" unicode="`" horiz-adv-x="1024" d="M197 1344 L405 1493 L664 1177 L512 1065 L197 1344 Z "/>
<glyph glyph-name="a" unicode="a" horiz-adv-x="1270" d="M830 928 L1158 928 L1158 0 L830 0 L830 103 Q724 -30 544 -30 Q427 -30 320 29 Q203 95 138 210 Q75 322 75 466 Q75 703 240 845 Q371 958 541 958 Q656 958 748 905 Q784 885 830 837 L830 928 Z M628 675 Q540 675 478 613 Q416 551 416 467 Q416 378 478 315 Q539 253 628 253 Q716 253 778 315 Q840 377 840 464 Q840 553 778 613 Q714 675 628 675 Z "/>
<glyph glyph-name="b" unicode="b" horiz-adv-x="1270" d="M440 1502 L440 837 Q493 892 543 916 Q629 958 729 958 Q933 958 1072 804 Q1195 668 1195 466 Q1195 231 1034 89 Q899 -30 726 -30 Q546 -30 440 103 L440 0 L112 0 L112 1502 L440 1502 Z M642 675 Q555 675 492 613 Q430 551 430 464 Q430 377 492 315 Q554 253 643 253 Q731 253 792 315 Q854 378 854 462 Q854 552 792 613 Q729 675 642 675 Z "/>
<glyph glyph-name="c" unicode="c" horiz-adv-x="887" d="M812 905 L812 626 Q726 686 642 686 Q537 686 470 613 Q416 553 416 461 Q416 361 482 300 Q549 238 642 238 Q733 238 812 299 L812 21 Q698 -31 582 -31 Q438 -31 312 44 Q75 184 75 456 Q75 686 241 831 Q384 957 591 957 Q710 957 812 905 Z "/>
<glyph glyph-name="d" unicode="d" horiz-adv-x="1270" d="M830 1502 L1158 1502 L1158 0 L830 0 L830 103 Q724 -30 544 -30 Q427 -30 320 29 Q203 95 138 210 Q75 322 75 466 Q75 703 240 845 Q371 958 541 958 Q656 958 748 905 Q784 885 830 837 L830 1502 Z M628 675 Q540 675 478 613 Q416 551 416 467 Q416 378 478 315 Q539 253 628 253 Q716 253 778 315 Q840 377 840 464 Q840 553 778 613 Q714 675 628 675 Z "/>
<glyph glyph-name="e" unicode="e" horiz-adv-x="1172" d="M1096 404 L406 404 Q409 195 606 195 Q681 195 725 231 Q744 247 767 283 L1083 283 Q1053 179 1000 118 Q935 41 833 3 Q726 -37 606 -37 Q350 -37 204 113 Q75 246 75 457 Q75 607 145 730 Q272 954 591 954 Q811 954 941 837 Q1066 723 1090 531 Q1096 479 1096 404 Z M791 594 Q779 646 747 680 Q689 742 600 742 Q510 742 456 683 Q425 650 415 594 L791 594 Z "/>
<glyph glyph-name="f" unicode="f" horiz-adv-x="708" d="M467 655 L467 0 L139 0 L139 655 L22 655 L22 928 L139 928 L139 1068 Q139 1194 166 1263 Q212 1381 332 1457 Q435 1522 553 1522 Q625 1522 698 1488 L698 1202 Q629 1235 583 1235 Q539 1235 503 1205 Q473 1179 469 1119 Q467 1095 467 1045 L467 928 L698 928 L698 655 L467 655 Z "/>
<glyph glyph-name="g" unicode="g" horiz-adv-x="1263" d="M1151 928 L1151 64 Q1151 -126 1104 -214 Q1030 -353 882 -418 Q768 -468 611 -468 Q339 -468 186 -306 Q104 -219 86 -113 L455 -113 Q488 -206 611 -206 Q725 -206 785 -128 Q823 -78 823 15 L823 103 Q766 51 724 27 Q640 -19 531 -19 Q303 -19 172 147 Q75 270 75 450 Q75 678 220 821 Q355 954 547 954 Q661 954 745 902 Q780 880 823 831 L823 928 L1151 928 Z M627 678 Q539 678 478 616 Q416 554 416 469 Q416 379 478 317 Q539 255 628 255 Q715 255 777 317 Q839 379 839 467 Q839 556 777 616 Q714 678 627 678 Z "/>
<glyph glyph-name="h" unicode="h" horiz-adv-x="1203" d="M112 1502 L440 1502 L440 811 Q497 877 545 904 Q624 949 737 949 Q906 949 1005 847 Q1064 787 1080 716 Q1091 666 1091 591 L1091 0 L763 0 L763 470 Q763 577 743 616 Q725 651 685 671 Q651 688 612 688 Q526 688 475 626 Q440 583 440 497 L440 0 L112 0 L112 1502 Z "/>
<glyph glyph-name="i" unicode="i" horiz-adv-x="552" d="M439 928 L439 0 L111 0 L111 928 L439 928 Z M275 1469 Q352 1469 406 1415 Q460 1361 460 1285 Q460 1208 406 1154 Q352 1100 276 1100 Q198 1100 145 1154 Q91 1209 91 1287 Q91 1362 145 1415 Q200 1469 275 1469 Z "/>
<glyph glyph-name="j" unicode="j" horiz-adv-x="552" d="M439 928 L439 -464 L111 -464 L111 928 L439 928 Z M275 1469 Q352 1469 406 1415 Q460 1361 460 1285 Q460 1208 406 1154 Q352 1100 276 1100 Q198 1100 145 1154 Q91 1209 91 1287 Q91 1362 145 1415 Q200 1469 275 1469 Z "/>
<glyph glyph-name="k" unicode="k" horiz-adv-x="1264" d="M440 1502 L440 594 L783 928 L1233 928 L768 500 L1261 0 L801 0 L440 378 L440 0 L112 0 L112 1502 L440 1502 Z "/>
<glyph glyph-name="l" unicode="l" horiz-adv-x="552" d="M440 1502 L440 0 L112 0 L112 1502 L440 1502 Z "/>
<glyph glyph-name="m" unicode="m" horiz-adv-x="1795" d="M112 928 L440 928 L440 814 Q499 871 546 896 Q632 943 740 943 Q896 943 991 853 Q1022 824 1056 770 Q1164 944 1369 944 Q1485 944 1571 881 Q1650 824 1672 723 Q1683 675 1683 603 L1683 0 L1355 0 L1355 459 Q1355 540 1351 563 Q1338 629 1296 662 Q1263 688 1218 688 Q1158 688 1113 643 Q1061 591 1061 459 L1061 0 L733 0 L733 459 Q733 569 719 605 Q706 641 672 666 Q634 694 591 694 Q537 694 491 653 Q453 619 444 552 Q440 519 440 459 L440 0 L112 0 L112 928 Z "/>
<glyph glyph-name="n" unicode="n" horiz-adv-x="1203" d="M112 928 L440 928 L440 811 Q497 877 545 904 Q623 948 737 948 Q907 948 1005 846 Q1064 786 1080 715 Q1091 666 1091 591 L1091 0 L763 0 L763 470 Q763 577 743 615 Q725 650 685 670 Q651 687 612 687 Q526 687 475 625 Q440 582 440 497 L440 0 L112 0 L112 928 Z "/>
<glyph glyph-name="o" unicode="o" horiz-adv-x="1267" d="M633 962 Q909 962 1064 794 Q1192 656 1192 464 Q1192 238 1024 94 Q874 -35 628 -35 Q472 -35 336 32 Q209 95 137 224 Q75 333 75 472 Q75 687 243 833 Q327 905 451 938 Q543 962 633 962 Z M633 679 Q545 679 484 617 Q422 554 422 469 Q422 378 484 315 Q545 253 634 253 Q721 253 783 315 Q845 378 845 466 Q845 556 783 617 Q720 679 633 679 Z "/>
<glyph glyph-name="p" unicode="p" horiz-adv-x="1270" d="M440 -464 L112 -464 L112 928 L440 928 L440 825 Q546 958 726 958 Q843 958 949 899 Q1067 833 1132 718 Q1195 606 1195 462 Q1195 225 1030 83 Q899 -30 729 -30 Q614 -30 522 23 Q486 43 440 91 L440 -464 Z M642 675 Q554 675 492 613 Q430 551 430 464 Q430 376 492 314 Q554 252 643 252 Q731 252 792 314 Q854 377 854 461 Q854 552 792 613 Q729 675 642 675 Z "/>
<glyph glyph-name="q" unicode="q" horiz-adv-x="1270" d="M830 -464 L830 91 Q777 36 727 12 Q641 -30 541 -30 Q337 -30 198 124 Q75 260 75 462 Q75 697 236 839 Q371 958 544 958 Q724 958 830 825 L830 928 L1158 928 L1158 -464 L830 -464 Z M628 675 Q539 675 478 613 Q416 550 416 466 Q416 377 478 314 Q539 252 628 252 Q716 252 778 314 Q840 376 840 464 Q840 553 778 613 Q714 675 628 675 Z "/>
<glyph glyph-name="r" unicode="r" horiz-adv-x="842" d="M112 928 L440 928 L440 776 Q504 875 590 912 Q659 941 745 941 Q770 941 808 938 L808 625 Q740 658 668 658 Q563 658 502 596 Q464 556 452 510 Q440 463 440 397 L440 0 L112 0 L112 928 Z "/>
<glyph glyph-name="s" unicode="s" horiz-adv-x="922" d="M840 901 L729 689 Q636 734 550 734 Q495 734 465 704 Q450 689 450 668 Q450 643 470 629 Q496 610 597 589 Q867 535 867 314 Q867 142 731 47 Q614 -35 426 -35 Q235 -35 55 72 L174 304 Q315 210 435 210 Q482 210 513 233 Q538 252 538 283 Q538 309 522 324 Q496 347 398 367 Q281 392 222 431 Q126 495 126 625 Q126 770 229 864 Q336 961 539 961 Q695 961 840 901 Z "/>
<glyph glyph-name="t" unicode="t" horiz-adv-x="675" d="M478 655 L478 0 L150 0 L150 655 L42 655 L42 928 L150 928 L150 1207 L478 1207 L478 928 L665 928 L665 655 L478 655 Z "/>
<glyph glyph-name="u" unicode="u" horiz-adv-x="1212" d="M440 928 L440 402 Q440 230 607 230 Q773 230 773 402 L773 928 L1101 928 L1101 339 Q1101 172 998 78 Q868 -40 607 -40 Q345 -40 215 78 Q112 172 112 339 L112 928 L440 928 Z "/>
<glyph glyph-name="v" unicode="v" horiz-adv-x="1181" d="M369 928 L591 452 L814 928 L1181 928 L698 0 L479 0 L0 928 L369 928 Z "/>
<glyph glyph-name="w" unicode="w" horiz-adv-x="1857" d="M366 928 L588 439 L821 928 L1027 928 L1259 425 L1492 928 L1857 928 L1371 0 L1152 0 L920 509 L698 0 L477 0 L0 928 L366 928 Z "/>
<glyph glyph-name="x" unicode="x" horiz-adv-x="1344" d="M464 504 L87 928 L514 928 L674 737 L837 928 L1263 928 L879 504 L1344 0 L910 0 L671 276 L433 0 L0 0 L464 504 Z "/>
<glyph glyph-name="y" unicode="y" horiz-adv-x="1246" d="M448 127 L0 928 L381 928 L629 452 L870 928 L1246 928 L501 -464 L133 -464 L448 127 Z "/>
<glyph glyph-name="z" unicode="z" horiz-adv-x="1067" d="M591 273 L982 273 L982 0 L41 0 L479 655 L100 655 L100 928 L1026 928 L591 273 Z "/>
<glyph glyph-name="braceleft" unicode="{" horiz-adv-x="785" d="M417 594 Q477 555 500 519 Q540 454 540 335 L540 57 Q540 -22 548 -41 Q560 -73 599 -81 Q625 -86 665 -86 Q677 -86 703 -85 L703 -317 Q653 -318 570 -321 Q558 -321 547 -321 Q406 -321 341 -253 Q278 -187 278 -26 L278 316 Q278 408 251 444 Q222 481 165 493 L165 715 Q226 728 251 763 Q278 801 278 871 L278 1214 Q278 1386 353 1452 Q402 1495 473 1504 Q508 1509 552 1509 Q559 1509 609 1507 Q655 1505 703 1504 L703 1273 Q682 1273 666 1273 Q590 1273 567 1255 Q544 1237 541 1189 Q540 1172 540 1131 L540 852 Q540 727 498 665 Q477 635 417 594 Z "/>
<glyph glyph-name="bar" unicode="|" horiz-adv-x="1024" d="M317 1365 L708 1365 L708 -341 L317 -341 L317 1365 Z "/>
<glyph glyph-name="braceright" unicode="}" horiz-adv-x="785" d="M368 594 Q308 633 285 669 Q245 733 245 853 L245 1131 Q245 1210 237 1229 Q225 1261 186 1269 Q161 1274 121 1274 Q109 1274 83 1273 L83 1504 Q132 1506 215 1509 Q227 1509 238 1509 Q379 1509 444 1440 Q507 1374 507 1214 L507 872 Q507 780 535 744 Q563 706 621 695 L621 473 Q559 460 534 425 Q518 402 511 352 Q507 321 507 317 L507 -26 Q507 -198 432 -264 Q383 -307 312 -316 Q277 -321 234 -321 Q226 -321 176 -319 Q132 -317 83 -316 L83 -85 Q109 -86 120 -86 Q195 -86 218 -68 Q241 -50 244 -1 Q245 15 245 57 L245 336 Q245 462 287 523 Q308 553 368 594 Z "/>
<glyph glyph-name="asciitilde" unicode="~" horiz-adv-x="1365" d="M328 1148 L184 1243 Q194 1265 225 1334 Q310 1527 494 1527 Q562 1527 706 1473 Q804 1437 825 1432 Q856 1424 883 1424 Q946 1424 985 1464 Q1004 1483 1031 1530 L1180 1444 Q1139 1357 1113 1318 Q1014 1172 856 1172 Q802 1172 647 1228 Q518 1274 479 1274 Q427 1274 387 1239 Q366 1220 328 1148 Z "/>
<glyph glyph-name="Adieresis" unicode="Ä" horiz-adv-x="1454" d="M973 238 L483 238 L389 0 L14 0 L539 1365 L926 1365 L1440 0 L1061 0 L973 238 Z M877 508 L730 943 L581 508 L877 508 Z M481 1850 Q555 1850 607 1798 Q659 1746 659 1673 Q659 1599 607 1547 Q555 1495 482 1495 Q407 1495 356 1547 Q304 1600 304 1675 Q304 1747 356 1798 Q409 1850 481 1850 Z M973 1850 Q1047 1850 1099 1798 Q1151 1746 1151 1673 Q1151 1599 1099 1547 Q1047 1495 974 1495 Q899 1495 848 1547 Q796 1600 796 1675 Q796 1747 848 1798 Q901 1850 973 1850 Z "/>
<glyph glyph-name="Aring" unicode="Å" horiz-adv-x="1454" d="M973 238 L483 238 L389 0 L14 0 L539 1365 L926 1365 L1440 0 L1061 0 L973 238 Z M877 508 L730 943 L581 508 L877 508 Z M720 1892 L734 1892 Q877 1892 950 1822 Q1009 1767 1009 1680 Q1009 1593 950 1538 Q877 1468 734 1468 L720 1468 Q578 1468 505 1538 Q446 1593 446 1682 Q446 1767 505 1822 Q578 1892 720 1892 Z M726 1758 Q679 1758 651 1737 Q622 1715 622 1681 Q622 1645 651 1623 Q679 1602 726 1602 Q776 1602 804 1623 Q833 1645 833 1680 Q833 1716 804 1737 Q776 1758 726 1758 Z "/>
<glyph glyph-name="Ccedilla" unicode="Ç" horiz-adv-x="1208" d="M1126 1325 L1126 900 Q1004 1050 819 1050 Q657 1050 549 936 Q453 836 453 674 Q453 499 573 398 Q681 307 818 307 Q990 307 1126 450 L1126 30 Q1000 -12 941 -24.5 Q882 -37 808 -37 Q620 -37 447 58 Q263 159 169 327 Q82 480 82 671 Q82 885 188 1055 Q288 1217 465 1309 Q627 1394 805 1394 Q951 1394 1126 1325 Z M921 -236 L638 -512 L479 -401 L718 -94 L921 -236 Z "/>
<glyph glyph-name="Eacute" unicode="É" horiz-adv-x="1002" d="M920 1065 L498 1065 L498 837 L897 837 L897 537 L498 537 L498 300 L920 300 L920 0 L143 0 L143 1365 L920 1365 L920 1065 Z M853 1712 L505 1475 L367 1603 L663 1885 L853 1712 Z "/>
<glyph glyph-name="Ntilde" unicode="Ñ" horiz-adv-x="1649" d="M143 0 L143 1365 L498 1365 L1151 530 L1151 1365 L1506 1365 L1506 0 L1151 0 L498 836 L498 0 L143 0 Z M609 1509 L438 1509 Q439 1605 466 1667 Q493 1728 547 1763 Q603 1799 668 1799 Q724 1799 855 1757 Q944 1728 983 1728 Q1042 1728 1062 1802 L1240 1802 Q1227 1684 1202 1635 Q1138 1509 986 1509 Q914 1509 817 1544 Q714 1581 679 1581 Q646 1581 632 1564 Q620 1550 609 1509 Z "/>
<glyph glyph-name="Odieresis" unicode="Ö" horiz-adv-x="1675" d="M837 1406 Q1179 1406 1396 1177 Q1593 970 1593 679 Q1593 479 1494 310 Q1388 128 1201 33 Q1039 -49 831 -49 Q494 -49 279 179 Q82 387 82 691 Q82 882 181 1047 Q292 1233 474 1324 Q639 1406 837 1406 Z M837 1062 Q678 1062 567 950 Q454 836 454 683 Q454 521 567 407 Q678 295 838 295 Q997 295 1110 407 Q1222 520 1222 679 Q1222 840 1110 950 Q994 1062 837 1062 Z M592 1850 Q666 1850 718 1798 Q770 1746 770 1673 Q770 1599 718 1547 Q666 1495 593 1495 Q518 1495 467 1547 Q415 1600 415 1675 Q415 1747 467 1798 Q520 1850 592 1850 Z M1084 1850 Q1158 1850 1210 1798 Q1262 1746 1262 1673 Q1262 1599 1210 1547 Q1158 1495 1085 1495 Q1010 1495 959 1547 Q907 1600 907 1675 Q907 1747 959 1798 Q1012 1850 1084 1850 Z "/>
<glyph glyph-name="Udieresis" unicode="Ü" horiz-adv-x="1477" d="M498 1365 L498 626 Q498 487 509 447 Q533 362 597 318 Q656 278 735 278 Q830 278 897 333 Q960 386 974 484 Q979 521 979 626 L979 1365 L1334 1365 L1334 578 Q1334 382 1282 277 Q1203 117 1046 35 Q911 -35 730 -35 Q524 -35 373 54 Q204 154 161 351 Q143 434 143 578 L143 1365 L498 1365 Z M492 1850 Q566 1850 618 1798 Q670 1746 670 1673 Q670 1599 618 1547 Q566 1495 493 1495 Q418 1495 367 1547 Q315 1600 315 1675 Q315 1747 367 1798 Q420 1850 492 1850 Z M984 1850 Q1058 1850 1110 1798 Q1162 1746 1162 1673 Q1162 1599 1110 1547 Q1058 1495 985 1495 Q910 1495 859 1547 Q807 1600 807 1675 Q807 1747 859 1798 Q912 1850 984 1850 Z "/>
<glyph glyph-name="aacute" unicode="á" horiz-adv-x="1270" d="M830 928 L1158 928 L1158 0 L830 0 L830 103 Q724 -30 544 -30 Q427 -30 320 29 Q203 95 138 210 Q75 322 75 466 Q75 703 240 845 Q371 958 541 958 Q656 958 748 905 Q784 885 830 837 L830 928 Z M628 675 Q540 675 478 613 Q416 551 416 467 Q416 378 478 315 Q539 253 628 253 Q716 253 778 315 Q840 377 840 464 Q840 553 778 613 Q714 675 628 675 Z M950 1344 L635 1065 L483 1177 L742 1493 L950 1344 Z "/>
<glyph glyph-name="agrave" unicode="à" horiz-adv-x="1270" d="M830 928 L1158 928 L1158 0 L830 0 L830 103 Q724 -30 544 -30 Q427 -30 320 29 Q203 95 138 210 Q75 322 75 466 Q75 703 240 845 Q371 958 541 958 Q656 958 748 905 Q784 885 830 837 L830 928 Z M628 675 Q540 675 478 613 Q416 551 416 467 Q416 378 478 315 Q539 253 628 253 Q716 253 778 315 Q840 377 840 464 Q840 553 778 613 Q714 675 628 675 Z M347 1344 L555 1493 L814 1177 L662 1065 L347 1344 Z "/>
<glyph glyph-name="acircumflex" unicode="â" horiz-adv-x="1270" d="M830 928 L1158 928 L1158 0 L830 0 L830 103 Q724 -30 544 -30 Q427 -30 320 29 Q203 95 138 210 Q75 322 75 466 Q75 703 240 845 Q371 958 541 958 Q656 958 748 905 Q784 885 830 837 L830 928 Z M628 675 Q540 675 478 613 Q416 551 416 467 Q416 378 478 315 Q539 253 628 253 Q716 253 778 315 Q840 377 840 464 Q840 553 778 613 Q714 675 628 675 Z M245 1223 L645 1524 L1051 1223 L906 1065 L645 1267 L384 1065 L245 1223 Z "/>
<glyph glyph-name="adieresis" unicode="ä" horiz-adv-x="1270" d="M830 928 L1158 928 L1158 0 L830 0 L830 103 Q724 -30 544 -30 Q427 -30 320 29 Q203 95 138 210 Q75 322 75 466 Q75 703 240 845 Q371 958 541 958 Q656 958 748 905 Q784 885 830 837 L830 928 Z M628 675 Q540 675 478 613 Q416 551 416 467 Q416 378 478 315 Q539 253 628 253 Q716 253 778 315 Q840 377 840 464 Q840 553 778 613 Q714 675 628 675 Z M416 1427 Q490 1427 542 1375 Q594 1323 594 1250 Q594 1176 542 1124 Q490 1072 417 1072 Q342 1072 291 1124 Q239 1177 239 1252 Q239 1324 291 1375 Q344 1427 416 1427 Z M880 1427 Q954 1427 1006 1375 Q1058 1323 1058 1250 Q1058 1176 1006 1124 Q954 1072 881 1072 Q806 1072 755 1124 Q703 1177 703 1252 Q703 1324 755 1375 Q808 1427 880 1427 Z "/>
<glyph glyph-name="atilde" unicode="ã" horiz-adv-x="1270" d="M830 928 L1158 928 L1158 0 L830 0 L830 103 Q724 -30 544 -30 Q427 -30 320 29 Q203 95 138 210 Q75 322 75 466 Q75 703 240 845 Q371 958 541 958 Q656 958 748 905 Q784 885 830 837 L830 928 Z M628 675 Q540 675 478 613 Q416 551 416 467 Q416 378 478 315 Q539 253 628 253 Q716 253 778 315 Q840 377 840 464 Q840 553 778 613 Q714 675 628 675 Z M454 1075 L298 1075 Q298 1135 308 1179 Q328 1268 381 1314 Q434 1360 497 1360 Q538 1360 584 1344 Q612 1335 678 1310 Q759 1281 799 1281 Q827 1281 840 1296.5 Q853 1312 865 1360 L1027 1360 Q1015 1256 993 1199 Q943 1075 819 1075 Q748 1075 640 1116 Q546 1152 517 1152 Q488 1152 474 1135 Q462 1120 454 1075 Z "/>
<glyph glyph-name="aring" unicode="å" horiz-adv-x="1270" d="M830 928 L1158 928 L1158 0 L830 0 L830 103 Q724 -30 544 -30 Q427 -30 320 29 Q203 95 138 210 Q75 322 75 466 Q75 703 240 845 Q371 958 541 958 Q656 958 748 905 Q784 885 830 837 L830 928 Z M628 675 Q540 675 478 613 Q416 551 416 467 Q416 378 478 315 Q539 253 628 253 Q716 253 778 315 Q840 377 840 464 Q840 553 778 613 Q714 675 628 675 Z M641 1496 L655 1496 Q798 1496 871 1426 Q930 1370 930 1284 Q930 1197 871 1141 Q798 1072 655 1072 L641 1072 Q499 1072 426 1141 Q367 1197 367 1286 Q367 1370 426 1426 Q499 1496 641 1496 Z M646 1366 Q598 1366 569 1344 Q539 1321 539 1285 Q539 1247 569 1224 Q598 1202 647 1202 Q699 1202 728 1224 Q758 1247 758 1284 Q758 1322 728 1344 Q699 1366 646 1366 Z "/>
<glyph glyph-name="ccedilla" unicode="ç" horiz-adv-x="887" d="M812 905 L812 626 Q726 686 642 686 Q537 686 470 613 Q416 553 416 461 Q416 361 482 300 Q549 238 642 238 Q733 238 812 299 L812 21 Q698 -31 582 -31 Q438 -31 312 44 Q75 184 75 456 Q75 686 241 831 Q384 957 591 957 Q710 957 812 905 Z M712 -225 L433 -489 L285 -396 L525 -103 L712 -225 Z "/>
<glyph glyph-name="eacute" unicode="é" horiz-adv-x="1172" d="M1096 404 L406 404 Q409 195 606 195 Q681 195 725 231 Q744 247 767 283 L1083 283 Q1053 179 1000 118 Q935 41 833 3 Q726 -37 606 -37 Q350 -37 204 113 Q75 246 75 457 Q75 607 145 730 Q272 954 591 954 Q811 954 941 837 Q1066 723 1090 531 Q1096 479 1096 404 Z M791 594 Q779 646 747 680 Q689 742 600 742 Q510 742 456 683 Q425 650 415 594 L791 594 Z M901 1344 L586 1065 L434 1177 L693 1493 L901 1344 Z "/>
<glyph glyph-name="egrave" unicode="è" horiz-adv-x="1172" d="M1096 404 L406 404 Q409 195 606 195 Q681 195 725 231 Q744 247 767 283 L1083 283 Q1053 179 1000 118 Q935 41 833 3 Q726 -37 606 -37 Q350 -37 204 113 Q75 246 75 457 Q75 607 145 730 Q272 954 591 954 Q811 954 941 837 Q1066 723 1090 531 Q1096 479 1096 404 Z M791 594 Q779 646 747 680 Q689 742 600 742 Q510 742 456 683 Q425 650 415 594 L791 594 Z M298 1344 L506 1493 L765 1177 L613 1065 L298 1344 Z "/>
<glyph glyph-name="ecircumflex" unicode="ê" horiz-adv-x="1172" d="M1096 404 L406 404 Q409 195 606 195 Q681 195 725 231 Q744 247 767 283 L1083 283 Q1053 179 1000 118 Q935 41 833 3 Q726 -37 606 -37 Q350 -37 204 113 Q75 246 75 457 Q75 607 145 730 Q272 954 591 954 Q811 954 941 837 Q1066 723 1090 531 Q1096 479 1096 404 Z M791 594 Q779 646 747 680 Q689 742 600 742 Q510 742 456 683 Q425 650 415 594 L791 594 Z M189 1223 L589 1524 L995 1223 L850 1065 L589 1267 L328 1065 L189 1223 Z "/>
<glyph glyph-name="edieresis" unicode="ë" horiz-adv-x="1172" d="M1096 404 L406 404 Q409 195 606 195 Q681 195 725 231 Q744 247 767 283 L1083 283 Q1053 179 1000 118 Q935 41 833 3 Q726 -37 606 -37 Q350 -37 204 113 Q75 246 75 457 Q75 607 145 730 Q272 954 591 954 Q811 954 941 837 Q1066 723 1090 531 Q1096 479 1096 404 Z M791 594 Q779 646 747 680 Q689 742 600 742 Q510 742 456 683 Q425 650 415 594 L791 594 Z M353 1427 Q427 1427 479 1375 Q531 1323 531 1250 Q531 1176 479 1124 Q427 1072 354 1072 Q279 1072 228 1124 Q176 1177 176 1252 Q176 1324 228 1375 Q281 1427 353 1427 Z M817 1427 Q891 1427 943 1375 Q995 1323 995 1250 Q995 1176 943 1124 Q891 1072 818 1072 Q743 1072 692 1124 Q640 1177 640 1252 Q640 1324 692 1375 Q745 1427 817 1427 Z "/>
<glyph glyph-name="iacute" unicode="í" horiz-adv-x="552" d="M440 928 L440 0 L112 0 L112 928 L440 928 Z M591 1344 L276 1065 L124 1177 L383 1493 L591 1344 Z "/>
<glyph glyph-name="igrave" unicode="ì" horiz-adv-x="552" d="M440 928 L440 0 L112 0 L112 928 L440 928 Z M-40 1344 L168 1493 L427 1177 L275 1065 L-40 1344 Z "/>
<glyph glyph-name="icircumflex" unicode="î" horiz-adv-x="552" d="M440 928 L440 0 L112 0 L112 928 L440 928 Z M-129 1223 L271 1524 L677 1223 L532 1065 L271 1267 L10 1065 L-129 1223 Z "/>
<glyph glyph-name="idieresis" unicode="ï" horiz-adv-x="552" d="M440 928 L440 0 L112 0 L112 928 L440 928 Z M64 1427 Q138 1427 190 1375 Q242 1323 242 1250 Q242 1176 190 1124 Q138 1072 65 1072 Q-10 1072 -61 1124 Q-113 1177 -113 1252 Q-113 1324 -61 1375 Q-8 1427 64 1427 Z M487 1427 Q561 1427 613 1375 Q665 1323 665 1250 Q665 1176 613 1124 Q561 1072 488 1072 Q413 1072 362 1124 Q310 1177 310 1252 Q310 1324 362 1375 Q415 1427 487 1427 Z "/>
<glyph glyph-name="ntilde" unicode="ñ" horiz-adv-x="1203" d="M112 928 L440 928 L440 811 Q497 877 545 904 Q623 948 737 948 Q907 948 1005 846 Q1064 786 1080 715 Q1091 666 1091 591 L1091 0 L763 0 L763 470 Q763 577 743 615 Q725 650 685 670 Q651 687 612 687 Q526 687 475 625 Q440 582 440 497 L440 0 L112 0 L112 928 Z M393 1075 L237 1075 Q237 1135 247 1179 Q267 1268 320 1314 Q373 1360 436 1360 Q477 1360 523 1344 Q551 1335 617 1310 Q698 1281 738 1281 Q766 1281 779 1296.5 Q792 1312 804 1360 L966 1360 Q954 1256 932 1199 Q882 1075 758 1075 Q687 1075 579 1116 Q485 1152 456 1152 Q427 1152 413 1135 Q401 1120 393 1075 Z "/>
<glyph glyph-name="oacute" unicode="ó" horiz-adv-x="1267" d="M633 962 Q909 962 1064 794 Q1192 656 1192 464 Q1192 238 1024 94 Q874 -35 628 -35 Q472 -35 336 32 Q209 95 137 224 Q75 333 75 472 Q75 687 243 833 Q327 905 451 938 Q543 962 633 962 Z M633 679 Q545 679 484 617 Q422 554 422 469 Q422 378 484 315 Q545 253 634 253 Q721 253 783 315 Q845 378 845 466 Q845 556 783 617 Q720 679 633 679 Z M935 1344 L620 1065 L468 1177 L727 1493 L935 1344 Z "/>
<glyph glyph-name="ograve" unicode="ò" horiz-adv-x="1267" d="M633 962 Q909 962 1064 794 Q1192 656 1192 464 Q1192 238 1024 94 Q874 -35 628 -35 Q472 -35 336 32 Q209 95 137 224 Q75 333 75 472 Q75 687 243 833 Q327 905 451 938 Q543 962 633 962 Z M633 679 Q545 679 484 617 Q422 554 422 469 Q422 378 484 315 Q545 253 634 253 Q721 253 783 315 Q845 378 845 466 Q845 556 783 617 Q720 679 633 679 Z M332 1344 L540 1493 L799 1177 L647 1065 L332 1344 Z "/>
<glyph glyph-name="ocircumflex" unicode="ô" horiz-adv-x="1267" d="M633 962 Q909 962 1064 794 Q1192 656 1192 464 Q1192 238 1024 94 Q874 -35 628 -35 Q472 -35 336 32 Q209 95 137 224 Q75 333 75 472 Q75 687 243 833 Q327 905 451 938 Q543 962 633 962 Z M633 679 Q545 679 484 617 Q422 554 422 469 Q422 378 484 315 Q545 253 634 253 Q721 253 783 315 Q845 378 845 466 Q845 556 783 617 Q720 679 633 679 Z M230 1223 L630 1524 L1036 1223 L891 1065 L630 1267 L369 1065 L230 1223 Z "/>
<glyph glyph-name="odieresis" unicode="ö" horiz-adv-x="1267" d="M633 962 Q909 962 1064 794 Q1192 656 1192 464 Q1192 238 1024 94 Q874 -35 628 -35 Q472 -35 336 32 Q209 95 137 224 Q75 333 75 472 Q75 687 243 833 Q327 905 451 938 Q543 962 633 962 Z M633 679 Q545 679 484 617 Q422 554 422 469 Q422 378 484 315 Q545 253 634 253 Q721 253 783 315 Q845 378 845 466 Q845 556 783 617 Q720 679 633 679 Z M401 1427 Q475 1427 527 1375 Q579 1323 579 1250 Q579 1176 527 1124 Q475 1072 402 1072 Q327 1072 276 1124 Q224 1177 224 1252 Q224 1324 276 1375 Q329 1427 401 1427 Z M865 1427 Q939 1427 991 1375 Q1043 1323 1043 1250 Q1043 1176 991 1124 Q939 1072 866 1072 Q791 1072 740 1124 Q688 1177 688 1252 Q688 1324 740 1375 Q793 1427 865 1427 Z "/>
<glyph glyph-name="otilde" unicode="õ" horiz-adv-x="1267" d="M633 962 Q909 962 1064 794 Q1192 656 1192 464 Q1192 238 1024 94 Q874 -35 628 -35 Q472 -35 336 32 Q209 95 137 224 Q75 333 75 472 Q75 687 243 833 Q327 905 451 938 Q543 962 633 962 Z M633 679 Q545 679 484 617 Q422 554 422 469 Q422 378 484 315 Q545 253 634 253 Q721 253 783 315 Q845 378 845 466 Q845 556 783 617 Q720 679 633 679 Z M439 1075 L283 1075 Q283 1135 293 1179 Q313 1268 366 1314 Q419 1360 482 1360 Q523 1360 569 1344 Q597 1335 663 1310 Q744 1281 784 1281 Q812 1281 825 1296.5 Q838 1312 850 1360 L1012 1360 Q1000 1256 978 1199 Q928 1075 804 1075 Q733 1075 625 1116 Q531 1152 502 1152 Q473 1152 459 1135 Q447 1120 439 1075 Z "/>
<glyph glyph-name="uacute" unicode="ú" horiz-adv-x="1212" d="M440 928 L440 402 Q440 230 607 230 Q773 230 773 402 L773 928 L1101 928 L1101 339 Q1101 172 998 78 Q868 -40 607 -40 Q345 -40 215 78 Q112 172 112 339 L112 928 L440 928 Z M922 1344 L607 1065 L455 1177 L714 1493 L922 1344 Z "/>
<glyph glyph-name="ugrave" unicode="ù" horiz-adv-x="1212" d="M440 928 L440 402 Q440 230 607 230 Q773 230 773 402 L773 928 L1101 928 L1101 339 Q1101 172 998 78 Q868 -40 607 -40 Q345 -40 215 78 Q112 172 112 339 L112 928 L440 928 Z M291 1344 L499 1493 L758 1177 L606 1065 L291 1344 Z "/>
<glyph glyph-name="ucircumflex" unicode="û" horiz-adv-x="1212" d="M440 928 L440 402 Q440 230 607 230 Q773 230 773 402 L773 928 L1101 928 L1101 339 Q1101 172 998 78 Q868 -40 607 -40 Q345 -40 215 78 Q112 172 112 339 L112 928 L440 928 Z M203 1223 L603 1524 L1009 1223 L864 1065 L603 1267 L342 1065 L203 1223 Z "/>
<glyph glyph-name="udieresis" unicode="ü" horiz-adv-x="1212" d="M440 928 L440 402 Q440 230 607 230 Q773 230 773 402 L773 928 L1101 928 L1101 339 Q1101 172 998 78 Q868 -40 607 -40 Q345 -40 215 78 Q112 172 112 339 L112 928 L440 928 Z M374 1427 Q448 1427 500 1375 Q552 1323 552 1250 Q552 1176 500 1124 Q448 1072 375 1072 Q300 1072 249 1124 Q197 1177 197 1252 Q197 1324 249 1375 Q302 1427 374 1427 Z M838 1427 Q912 1427 964 1375 Q1016 1323 1016 1250 Q1016 1176 964 1124 Q912 1072 839 1072 Q764 1072 713 1124 Q661 1177 661 1252 Q661 1324 713 1375 Q766 1427 838 1427 Z "/>
<glyph glyph-name="dagger" unicode="†" horiz-adv-x="1229" d="M463 1502 L763 1502 L763 1197 L1085 1197 L1085 938 L763 938 L763 -314 L463 -314 L463 938 L144 938 L144 1197 L463 1197 L463 1502 Z "/>
<glyph glyph-name="degree" unicode="°" horiz-adv-x="1229" d="M614 1385 Q727 1385 807 1305 Q887 1225 887 1112 Q887 999 807 919 Q727 839 614 839 Q500 839 421 919 Q341 1000 341 1116 Q341 1226 421 1305 Q502 1385 614 1385 Z M614 1243 Q559 1243 521 1205 Q483 1166 483 1114 Q483 1059 521 1020 Q559 982 614 982 Q668 982 706 1020 Q744 1058 744 1112 Q744 1168 706 1205 Q667 1243 614 1243 Z "/>
<glyph glyph-name="cent" unicode="¢" horiz-adv-x="1229" d="M873 1345 L873 1165 Q923 1154 979 1134 L979 840 Q899 909 814 909 Q717 909 652 842 Q592 778 592 684 Q592 578 668 516 Q732 464 813 464 Q909 464 979 534 L979 239 Q917 216 873 211 L873 19 L706 19 L706 198 Q522 209 390 341 Q248 483 248 686 Q248 880 372 1016 Q492 1148 706 1177 L706 1345 L873 1345 Z "/>
<glyph glyph-name="sterling" unicode="£" horiz-adv-x="1229" d="M62 525 L62 698 L211 698 Q158 793 158 913 Q158 1099 280 1234 Q359 1322 460 1355 Q567 1390 699 1390 Q935 1390 1051 1284 Q1188 1159 1188 877 L830 877 Q838 919 838 941 Q838 1014 787 1063 Q736 1112 670 1112 Q603 1112 555 1065 Q501 1012 501 918 Q501 845 526 774 Q529 765 559 698 L866 698 L866 525 L610 525 Q619 460 619 411 Q619 359 601 300 Q723 264 745 258 Q838 232 891 232 Q977 232 981 321 L1201 321 Q1195 230 1164 161 Q1124 72 1065 29 Q986 -29 862 -29 Q811 -29 768 -19 Q726 -9 619 22 Q465 67 390 67 Q298 67 275 0 L41 0 Q75 138 133 207 Q224 316 351 321 Q369 358 369 389 Q369 457 332 525 L62 525 Z "/>
<glyph glyph-name="section" unicode="§" horiz-adv-x="1229" d="M1026 1133 L741 1133 Q737 1187 728 1209 Q698 1285 619 1285 Q560 1285 527 1241 Q504 1212 504 1178 Q504 1130 545 1100 Q585 1068 709 1017 Q852 959 903 925 Q1068 815 1068 629 Q1068 522 1014 434 Q976 372 859 292 Q954 230 983 167 Q1014 102 1014 30 Q1014 -110 914 -211 Q800 -327 610 -327 Q430 -327 320 -224 Q218 -129 206 24 Q205 41 203 74 L494 74 Q495 16 504 -9 Q534 -90 621 -90 Q676 -90 713 -53 Q747 -18 747 33 Q747 98 694 136 Q653 165 540 202 Q411 245 358 276 Q176 382 176 598 Q176 724 239 816 Q275 867 374 923 Q280 991 253 1057 Q228 1119 228 1184 Q228 1322 323 1415 Q427 1516 611 1516 Q800 1516 917 1417 Q1015 1335 1024 1178 Q1025 1165 1026 1133 Z M622 754 Q558 754 515 711 Q471 667 471 605 Q471 543 515 500 Q558 456 620 456 Q682 456 725 500 Q769 543 769 605 Q769 668 725 711 Q681 754 622 754 Z "/>
<glyph glyph-name="bullet" unicode="•" horiz-adv-x="1365" d="M689 978 Q802 978 885 895 Q969 812 969 694 Q969 576 886 493 Q803 410 685 410 Q569 410 486 492 Q401 576 401 694 Q401 815 485 896 Q571 978 689 978 Z "/>
<glyph glyph-name="paragraph" unicode="¶" horiz-adv-x="1229" d="M379 -188 L379 657 Q364 657 353 657 Q263 657 176 696 Q78 741 31 830 Q-10 907 -10 1005 Q-10 1123 47 1209 Q117 1314 265 1346 Q355 1365 462 1365 L1145 1365 L1145 1163 L995 1163 L995 -188 L772 -188 L772 1163 L602 1163 L602 -188 L379 -188 Z "/>
<glyph glyph-name="germandbls" unicode="ß" horiz-adv-x="1217" d="M112 0 L112 1095 Q112 1313 232 1418 Q358 1529 580 1529 Q800 1529 922 1409 Q1033 1299 1033 1122 Q1033 1014 968 931 Q933 887 872 841 Q980 790 1030 746 Q1142 645 1142 451 Q1142 296 1066 172 Q944 -28 606 -28 Q584 -28 537 -26 L537 251 Q640 252 698 297 Q781 359 781 469 Q781 595 682 658 Q628 693 537 693 L537 958 Q618 959 657 983 Q718 1019 718 1106 Q718 1182 669 1220 Q634 1247 581 1247 Q481 1247 455 1170 Q440 1128 440 1081 L440 991 L440 0 L112 0 Z "/>
<glyph glyph-name="registered" unicode="®" horiz-adv-x="1556" d="M894 603 L1164 273 L854 273 L665 547 L665 273 L418 273 L418 1092 L774 1092 Q916 1092 990 1018 Q1067 942 1067 833 Q1067 714 985 647 Q952 620 894 603 Z M665 737 L693 737 Q750 737 779 756 Q814 780 814 822 Q814 864 779 887 Q750 906 693 906 L665 906 L665 737 Z M790 1396 Q980 1396 1150 1291 Q1320 1185 1410 1007 Q1488 853 1488 682 Q1488 481 1384 310 Q1280 139 1103 48 Q951 -31 780 -31 Q581 -31 411 72 Q239 177 147 357 Q68 511 68 682 Q68 885 173 1057 Q276 1227 459 1319 Q610 1396 790 1396 Z M788 1268 Q546 1268 379 1099 Q210 928 210 682 Q210 438 379 267 Q546 97 779 97 Q939 97 1077 184 Q1212 271 1285 418 Q1346 542 1346 682 Q1346 847 1262 989 Q1181 1127 1038 1204 Q918 1268 788 1268 Z "/>
<glyph glyph-name="copyright" unicode="©" horiz-adv-x="1556" d="M1027 1065 L1027 773 Q990 814 984 821 Q920 882 825 882 Q739 882 682 827 Q623 772 623 678 Q623 592 676 539 Q737 479 825 479 Q911 479 979 535 Q987 542 1027 580 L1027 294 Q893 252 817 252 Q700 252 593 309 Q479 369 420 470 Q366 562 366 678 Q366 804 432 906 Q494 1003 604 1059 Q705 1109 815 1109 Q907 1109 1027 1065 Z M790 1396 Q980 1396 1150 1291 Q1320 1185 1410 1007 Q1488 853 1488 682 Q1488 481 1384 310 Q1280 139 1103 48 Q951 -31 780 -31 Q581 -31 411 72 Q239 177 147 357 Q68 511 68 682 Q68 885 173 1057 Q276 1227 459 1319 Q610 1396 790 1396 Z M788 1268 Q546 1268 379 1099 Q210 928 210 682 Q210 438 379 267 Q546 97 779 97 Q939 97 1077 184 Q1212 271 1285 418 Q1346 542 1346 682 Q1346 847 1262 989 Q1181 1127 1038 1204 Q918 1268 788 1268 Z "/>
<glyph glyph-name="trademark" unicode="™" horiz-adv-x="1590" d="M375 1183 L375 587 L163 587 L163 1183 L1 1183 L1 1365 L540 1365 L540 1183 L375 1183 Z M580 587 L710 1365 L919 1365 L1068 966 L1225 1365 L1436 1365 L1551 587 L1339 587 L1286 1009 L1111 587 L1019 587 L852 1009 L791 587 L580 587 Z "/>
<glyph glyph-name="acute" unicode="´" horiz-adv-x="1024" d="M828 1344 L513 1065 L361 1177 L620 1493 L828 1344 Z "/>
<glyph glyph-name="dieresis" unicode="¨" horiz-adv-x="1024" d="M280 1427 Q354 1427 406 1375 Q458 1323 458 1250 Q458 1176 406 1124 Q354 1072 281 1072 Q206 1072 155 1124 Q103 1177 103 1252 Q103 1324 155 1375 Q208 1427 280 1427 Z M744 1427 Q818 1427 870 1375 Q922 1323 922 1250 Q922 1176 870 1124 Q818 1072 745 1072 Q670 1072 619 1124 Q567 1177 567 1252 Q567 1324 619 1375 Q672 1427 744 1427 Z "/>
<glyph glyph-name="notequal" unicode="≠" horiz-adv-x="1024" d="M514 1021 L662 1294 L899 1160 L818 1021 L956 1021 L956 698 L687 698 L611 563 L954 563 L954 240 L493 240 L370 20 L133 153 L188 240 L68 240 L68 563 L306 563 L384 698 L69 698 L69 1021 L514 1021 Z "/>
<glyph glyph-name="AE" unicode="Æ" horiz-adv-x="1892" d="M966 240 L473 240 L388 0 L14 0 L540 1365 L1376 1365 L1486 1065 L1037 1065 L1121 837 L1569 837 L1682 537 L1232 537 L1321 300 L1769 300 L1878 0 L1055 0 L966 240 Z M872 509 L724 914 L571 509 L872 509 Z "/>
<glyph glyph-name="Oslash" unicode="Ø" horiz-adv-x="1675" d="M1617 1279 L1451 1117 Q1595 906 1595 683 Q1595 479 1495 309 Q1389 128 1201 33 Q1038 -49 842 -49 Q587 -49 368 99 L196 -63 L55 85 L223 246 Q163 335 133 406 Q82 529 82 670 Q82 853 164 1013 Q262 1205 443 1308 Q615 1405 834 1405 Q1022 1405 1179 1339 Q1234 1315 1304 1260 L1477 1427 L1617 1279 Z M1027 1007 Q943 1061 834 1061 Q662 1061 548 928 Q454 818 454 684 Q454 582 499 503 L1027 1007 Z M636 345 Q749 295 833 295 Q1005 295 1120 418 Q1223 526 1223 672 Q1223 759 1175 862 L636 345 Z "/>
<glyph glyph-name="infinity" unicode="∞" horiz-adv-x="1365" d="M689 532 Q542 364 366 364 Q210 364 113 472 Q35 560 35 695 Q35 856 146 948 Q239 1026 365 1026 Q534 1026 678 859 Q815 1026 999 1026 Q1167 1026 1263 905 Q1331 820 1331 696 Q1331 539 1226 446 Q1132 364 1003 364 Q826 364 689 532 Z M807 695 Q883 589 962 589 Q1010 589 1043 622 Q1073 652 1073 695 Q1073 746 1033 777 Q1001 801 961 801 Q900 801 844 742 Q830 726 816 707 L807 695 Z M559 695 Q483 800 404 800 Q356 800 323 768 Q293 738 293 694 Q293 644 333 613 Q365 589 405 589 Q466 589 522 648 Q530 657 545 675.5 Q560 694 559 695 Z "/>
<glyph glyph-name="plusminus" unicode="±" horiz-adv-x="1229" d="M130 887 L499 887 L499 1256 L731 1256 L731 887 L1099 887 L1099 655 L731 655 L731 328 L499 328 L499 655 L130 655 L130 887 Z M130 232 L1099 232 L1099 0 L130 0 L130 232 Z "/>
<glyph glyph-name="lessequal" unicode="≤" horiz-adv-x="1024" d="M955 1375 L955 1014 L490 891 L953 769 L955 408 L68 731 L68 1053 L955 1375 Z M955 356 L955 16 L68 16 L68 356 L955 356 Z "/>
<glyph glyph-name="greaterequal" unicode="≥" horiz-adv-x="1024" d="M68 408 L70 769 L533 891 L68 1014 L68 1375 L955 1053 L955 730 L68 408 Z M68 16 L68 356 L955 356 L955 16 L68 16 Z "/>
<glyph glyph-name="yen" unicode="¥" horiz-adv-x="1229" d="M109 675 L109 889 L296 889 L7 1365 L411 1365 L617 973 L813 1365 L1222 1365 L922 889 L1120 889 L1120 675 L787 675 L775 656 L775 547 L1120 547 L1120 333 L775 333 L775 0 L438 0 L438 333 L109 333 L109 547 L438 547 L438 656 L427 675 L109 675 Z "/>
<glyph glyph-name="mu" unicode="µ" horiz-adv-x="1212" d="M440 -464 L112 -464 L112 928 L440 928 L440 398 Q440 339 457 307 Q500 230 607 230 Q773 230 773 402 L773 928 L1101 928 L1101 339 Q1101 169 998 79 Q864 -40 629 -40 Q512 -40 413 -5 L440 -464 Z "/>
<glyph glyph-name="partialdiff" unicode="∂" horiz-adv-x="1024" d="M96 1073 L138 1354 Q535 1316 749 1135 Q999 924 999 558 Q999 239 814 87 Q686 -17 495 -17 Q286 -17 158 114 Q21 253 21 461 Q21 582 79 681 Q158 818 307 864 Q367 882 433 882 Q572 882 653 820 Q604 906 546 948 Q395 1053 96 1073 Z M510 613 Q445 613 398 568 Q346 519 346 442 Q346 371 394 321 Q442 272 507 272 Q571 272 618 319 Q668 369 668 443 Q668 519 618 567 Q571 613 510 613 Z "/>
<glyph glyph-name="summation" unicode="∑" horiz-adv-x="1365" d="M1298 1536 L1298 986 L968 986 L927 1199 L481 1199 L969 540 L484 -175 L945 -175 L969 51 L1317 51 L1317 -512 L69 -512 L69 -125 L534 539 L69 1147 L69 1536 L1298 1536 Z "/>
<glyph glyph-name="product" unicode="∏" horiz-adv-x="1365" d="M30 1536 L1335 1536 L1335 1243 L1190 1243 L1190 -219 L1335 -219 L1335 -512 L741 -512 L741 -219 L862 -219 L862 1243 L503 1243 L503 -219 L622 -219 L622 -512 L30 -512 L30 -219 L178 -219 L178 1243 L30 1243 L30 1536 Z "/>
<glyph glyph-name="pi" unicode="π" horiz-adv-x="1255" d="M184 0 L184 655 L41 655 L41 928 L1214 928 L1214 655 L1072 655 L1072 0 L742 0 L742 655 L514 655 L514 0 L184 0 Z "/>
<glyph glyph-name="integral" unicode="∫" horiz-adv-x="1024" d="M41 -492 L99 -144 Q154 -164 191 -164 Q240 -164 274 -136 Q310 -106 314 -38 Q315 -13 315 146 L315 810 L315 1002 Q315 1149 338 1240 Q375 1384 508 1468 Q615 1536 785 1536 Q865 1536 984 1516 L925 1168 Q872 1188 832 1188 Q749 1188 720 1117 Q710 1091 710 1002 L710 224 Q710 -16 708.5 -64 Q707 -112 698 -160 Q667 -332 539 -427 Q424 -511 235 -511 Q151 -511 41 -492 Z "/>
<glyph glyph-name="ordfeminine" unicode="ª" horiz-adv-x="743" d="M486 1348 L678 1348 L678 806 L486 806 L486 865 Q425 788 319 788 Q200 788 117 879 Q45 957 45 1078 Q45 1217 141 1300 Q217 1365 317 1365 Q419 1365 486 1295 L486 1348 Z M367 1200 Q316 1200 280 1164 Q244 1127 244 1078 Q244 1026 280 989 Q316 953 368 953 Q419 953 455 989 Q491 1026 491 1077 Q491 1128 455 1164 Q418 1200 367 1200 Z M64 703 L684 703 L684 580 L64 580 L64 703 Z "/>
<glyph glyph-name="ordmasculine" unicode="º" horiz-adv-x="740" d="M370 1368 Q531 1368 622 1270 Q697 1189 697 1076 Q697 945 599 860 Q511 785 367 785 Q209 785 119 883 Q44 964 44 1081 Q44 1207 142 1292 Q230 1368 370 1368 Z M370 1200 Q319 1200 283 1164 Q246 1127 246 1078 Q246 1026 283 989 Q319 953 371 953 Q422 953 459 989 Q495 1025 495 1077 Q495 1129 459 1164 Q421 1200 370 1200 Z M60 703 L680 703 L680 580 L60 580 L60 703 Z "/>
<glyph glyph-name="uni2126" unicode="Ω" horiz-adv-x="1364" d="M58 0 L58 236 L339 236 Q221 310 163 389 Q58 531 58 749 Q58 1019 224 1201 Q404 1398 682 1398 Q960 1398 1140 1201 Q1306 1019 1306 750 Q1306 522 1194 379 Q1136 306 1025 236 L1306 236 L1306 0 L754 0 L754 210 Q871 277 929 356 Q1032 498 1032 721 Q1032 893 955 1007 Q907 1078 835 1120 Q763 1162 682 1162 Q539 1162 436 1042 Q332 922 332 720 Q332 486 446 344 Q505 269 611 210 L611 0 L58 0 Z "/>
<glyph glyph-name="ae" unicode="æ" horiz-adv-x="1777" d="M1702 411 L1008 411 Q1012 323 1052 273 Q1110 199 1219 199 Q1331 199 1369 287 L1687 287 Q1657 182 1591 114 Q1450 -32 1208 -32 Q1054 -32 947 32 Q878 73 841 150 Q695 -26 459 -26 Q332 -26 228 25 Q152 62 109 139 Q75 200 75 273 Q75 428 206 516 Q298 579 462 579 Q576 579 700 531 Q701 546 701 556 Q701 723 477 723 Q384 723 221 670 L221 917 Q375 961 495 961 Q648 961 748 898 Q794 869 841 796 Q880 853 939 891 Q1050 961 1195 961 Q1376 961 1510 871 Q1656 773 1690 571 Q1701 508 1702 411 Z M1396 601 Q1378 663 1345 696 Q1289 752 1205 752 Q1066 752 1016 601 L1396 601 Z M538 395 Q465 395 429 363 Q396 334 396 297 Q396 249 440 220 Q479 193 544 193 Q620 193 665 226 Q709 258 709 297 Q709 326 683 349 Q633 395 538 395 Z "/>
<glyph glyph-name="oslash" unicode="ø" horiz-adv-x="1267" d="M27 73 L164 180 Q76 312 76 468 Q76 604 148 720 Q297 962 643 962 Q833 962 999 858 L1153 978 L1249 857 L1111 740 Q1147 687 1164 643 Q1191 575 1191 483 Q1191 226 1023 90 Q869 -35 626 -35 Q406 -35 275 72 L124 -45 L27 73 Z M438 381 L754 642 Q700 680 643 680 Q542 680 477 612 Q417 550 417 468 Q417 430 438 381 Z M523 287 Q573 254 632 254 Q730 254 792 322 Q849 385 849 463 Q849 496 833 540 L523 287 Z "/>
<glyph glyph-name="questiondown" unicode="¿" horiz-adv-x="1117" d="M740 595 L740 242 Q697 252 667 252 Q585 252 516 212 Q431 162 431 71 Q431 12 471 -26 Q511 -63 566 -63 Q634 -63 668 -6 Q687 25 688 75 L1049 75 Q1046 -72 958 -180 Q891 -262 780 -307 Q675 -350 559 -350 Q354 -350 219 -223 Q148 -156 111 -67 Q81 6 81 79 Q81 206 161 309 Q235 404 408 465 L408 595 L740 595 Z M565 1092 Q653 1092 715 1030 Q777 968 777 878 Q777 794 715 731 Q654 669 566 669 Q478 669 416 731 Q354 793 354 880 Q354 970 416 1030 Q480 1092 565 1092 Z "/>
<glyph glyph-name="exclamdown" unicode="¡" horiz-adv-x="696" d="M348 1092 Q436 1092 498 1030 Q560 968 560 881 Q560 793 498 731 Q436 669 349 669 Q260 669 199 731 Q137 794 137 883 Q137 969 199 1030 Q262 1092 348 1092 Z M178 587 L519 587 L519 -314 L178 -314 L178 587 Z "/>
<glyph glyph-name="logicalnot" unicode="¬" horiz-adv-x="1024" d="M577 0 L577 270 L68 270 L68 610 L955 610 L955 0 L577 0 Z "/>
<glyph glyph-name="radical" unicode="√" horiz-adv-x="1365" d="M1365 1693 L1365 1390 L1046 1390 L720 0 L288 0 L190 484 L0 484 L0 787 L397 787 L439 603 Q461 504 470 306 L491 306 Q514 593 591 914 L777 1693 L1365 1693 Z "/>
<glyph glyph-name="florin" unicode="ƒ" horiz-adv-x="1229" d="M845 908 L1045 908 L1020 771 L822 771 L726 243 Q695 70 656 -21 Q585 -183 475 -259 Q365 -334 170 -334 Q87 -334 -17 -316 L36 -17 Q117 -35 170 -35 Q295 -35 342 66 Q375 138 409 327 L489 771 L333 771 L354 908 L514 908 L555 1125 Q579 1250 622 1319 Q734 1498 960 1498 Q1065 1498 1137 1466 Q1153 1459 1191 1435 L1139 1151 Q1060 1206 994 1206 Q954 1206 930 1184 Q890 1146 868 1031 L845 908 Z "/>
<glyph glyph-name="approxequal" unicode="≈" horiz-adv-x="1024" d="M199 713 L14 844 Q53 945 98 1011 Q193 1150 334 1150 Q386 1150 472 1119 Q549 1091 634 1059 Q672 1044 701 1044 Q741 1044 774 1070 Q793 1086 824 1130 L1009 1000 Q967 895 938 850 Q839 695 687 695 Q618 695 458 760 Q358 800 317 800 Q259 800 199 713 Z M199 218 L14 349 Q53 450 98 516 Q193 655 334 655 Q386 655 472 624 Q548 596 634 564 Q672 549 701 549 Q741 549 774 575 Q793 590 824 636 L1009 505 Q967 401 938 355 Q839 200 687 200 Q618 200 458 265 Q358 305 317 305 Q259 305 199 218 Z "/>
<glyph glyph-name="Delta" unicode="∆" horiz-adv-x="1356" d="M19 0 L485 1365 L866 1365 L1338 0 L19 0 Z M485 318 L863 318 L679 979 L485 318 Z "/>
<glyph glyph-name="guillemotleft" unicode="«" horiz-adv-x="1087" d="M772 467 L1005 152 L819 21 L508 467 L819 911 L1000 787 L772 467 Z M321 467 L555 152 L368 21 L57 467 L368 911 L549 787 L321 467 Z "/>
<glyph glyph-name="guillemotright" unicode="»" horiz-adv-x="1087" d="M315 467 L87 787 L269 911 L580 467 L269 21 L82 152 L315 467 Z M766 467 L538 787 L719 911 L1030 467 L719 21 L533 152 L766 467 Z "/>
<glyph glyph-name="ellipsis" unicode="…" horiz-adv-x="1864" d="M311 386 Q399 386 461 324 Q523 262 523 174 Q523 86 461 24 Q399 -38 311 -38 Q223 -38 161 24 Q99 87 99 177 Q99 263 161 324 Q224 386 311 386 Z M932 386 Q1020 386 1082 324 Q1144 262 1144 174 Q1144 86 1082 24 Q1020 -38 932 -38 Q843 -38 782 24 Q720 87 720 177 Q720 263 782 324 Q845 386 932 386 Z M1553 386 Q1641 386 1703 324 Q1765 262 1765 174 Q1765 86 1703 24 Q1641 -38 1553 -38 Q1464 -38 1403 24 Q1341 87 1341 177 Q1341 263 1403 324 Q1466 386 1553 386 Z "/>
<glyph glyph-name="Agrave" unicode="À" horiz-adv-x="1454" d="M973 238 L483 238 L389 0 L14 0 L539 1365 L926 1365 L1440 0 L1061 0 L973 238 Z M877 508 L730 943 L581 508 L877 508 Z M402 1712 L592 1885 L888 1603 L750 1475 L402 1712 Z "/>
<glyph glyph-name="Atilde" unicode="Ã" horiz-adv-x="1454" d="M973 238 L483 238 L389 0 L14 0 L539 1365 L926 1365 L1440 0 L1061 0 L973 238 Z M877 508 L730 943 L581 508 L877 508 Z M498 1509 L327 1509 Q328 1605 355 1667 Q382 1728 436 1763 Q492 1799 557 1799 Q613 1799 744 1757 Q833 1728 872 1728 Q931 1728 951 1802 L1129 1802 Q1116 1684 1091 1635 Q1027 1509 875 1509 Q803 1509 706 1544 Q603 1581 568 1581 Q535 1581 521 1564 Q509 1550 498 1509 Z "/>
<glyph glyph-name="Otilde" unicode="Õ" horiz-adv-x="1675" d="M837 1406 Q1179 1406 1396 1177 Q1593 970 1593 679 Q1593 479 1494 310 Q1388 128 1201 33 Q1039 -49 831 -49 Q494 -49 279 179 Q82 387 82 691 Q82 882 181 1047 Q292 1233 474 1324 Q639 1406 837 1406 Z M837 1062 Q678 1062 567 950 Q454 836 454 683 Q454 521 567 407 Q678 295 838 295 Q997 295 1110 407 Q1222 520 1222 679 Q1222 840 1110 950 Q994 1062 837 1062 Z M622 1509 L451 1509 Q452 1605 479 1667 Q506 1728 560 1763 Q616 1799 681 1799 Q737 1799 868 1757 Q957 1728 996 1728 Q1055 1728 1075 1802 L1253 1802 Q1240 1684 1215 1635 Q1151 1509 999 1509 Q927 1509 830 1544 Q727 1581 692 1581 Q659 1581 645 1564 Q633 1550 622 1509 Z "/>
<glyph glyph-name="OE" unicode="Œ" horiz-adv-x="2077" d="M1995 1063 L1583 1063 L1583 837 L1968 837 L1968 537 L1583 537 L1583 300 L1995 300 L1995 0 L1228 0 L1228 144 Q1040 -42 799 -42 Q636 -42 485 35 Q279 139 169 342 Q82 503 82 685 Q82 888 188 1060 Q290 1227 468 1323 Q631 1411 807 1411 Q970 1411 1099 1335 Q1159 1300 1228 1230 L1228 1365 L1995 1365 L1995 1063 Z M834 1066 Q676 1066 565 954 Q511 900 481 828 Q453 758 453 690 Q453 529 565 415 Q676 303 835 303 Q993 303 1104 415 Q1216 528 1216 686 Q1216 846 1104 954 Q989 1066 834 1066 Z "/>
<glyph glyph-name="oe" unicode="œ" horiz-adv-x="1918" d="M1843 408 L1145 408 Q1155 312 1189 268 Q1241 199 1350 199 Q1433 199 1475 241 Q1490 256 1508 287 L1825 287 Q1804 185 1739 115 Q1599 -34 1343 -34 Q1197 -34 1097 25 Q1038 60 986 128 Q924 65 888 40 Q784 -34 607 -34 Q348 -34 209 113 Q75 254 75 460 Q75 617 154 740 Q296 962 611 962 Q774 962 890 890 Q933 864 986 815 Q1035 873 1089 901 Q1192 955 1343 955 Q1531 955 1653 867 Q1795 765 1829 570 Q1841 506 1843 408 Z M1537 596 Q1519 652 1486 686 Q1429 746 1346 746 Q1260 746 1202 687 Q1170 653 1154 596 L1537 596 Z M618 671 Q530 671 472 607 Q417 546 417 465 Q417 363 488 300 Q545 249 617 249 Q702 249 763 315 Q819 375 819 462 Q819 559 749 622 Q694 671 618 671 Z "/>
<glyph glyph-name="endash" unicode="–" horiz-adv-x="1229" d="M130 621 L1099 621 L1099 348 L130 348 L130 621 Z "/>
<glyph glyph-name="emdash" unicode="—" horiz-adv-x="1570" d="M0 621 L1570 621 L1570 348 L0 348 L0 621 Z "/>
<glyph glyph-name="quotedblleft" unicode="“" horiz-adv-x="1171" d="M869 765 L560 765 L893 1365 L1104 1365 L869 765 Z M405 765 L96 765 L429 1365 L639 1365 L405 765 Z "/>
<glyph glyph-name="quotedblright" unicode="”" horiz-adv-x="1171" d="M303 1365 L611 1365 L278 765 L68 765 L303 1365 Z M767 1365 L1076 1365 L742 765 L532 765 L767 1365 Z "/>
<glyph glyph-name="quoteleft" unicode="‘" horiz-adv-x="707" d="M405 765 L96 765 L429 1365 L639 1365 L405 765 Z "/>
<glyph glyph-name="quoteright" unicode="’" horiz-adv-x="707" d="M303 1365 L611 1365 L278 765 L68 765 L303 1365 Z "/>
<glyph glyph-name="divide" unicode="÷" horiz-adv-x="1229" d="M130 799 L1099 799 L1099 567 L130 567 L130 799 Z M612 471 Q672 471 714 429 Q756 387 756 328 Q756 268 714 226 Q672 184 613 184 Q553 184 511 226 Q469 269 469 329 Q469 387 511 429 Q554 471 612 471 Z M612 1181 Q672 1181 714 1139 Q756 1097 756 1038 Q756 978 714 936 Q672 894 613 894 Q553 894 511 936 Q469 979 469 1039 Q469 1098 511 1139 Q553 1181 612 1181 Z "/>
<glyph glyph-name="lozenge" unicode="◊" horiz-adv-x="1365" d="M683 1419 L1214 683 L683 -53 L151 683 L683 1419 Z M683 1238 L279 683 L683 129 L1086 683 L683 1238 Z "/>
<glyph glyph-name="ydieresis" unicode="ÿ" horiz-adv-x="1246" d="M448 127 L0 928 L381 928 L629 452 L870 928 L1246 928 L501 -464 L133 -464 L448 127 Z M390 1427 Q464 1427 516 1375 Q568 1323 568 1250 Q568 1176 516 1124 Q464 1072 391 1072 Q316 1072 265 1124 Q213 1177 213 1252 Q213 1324 265 1375 Q318 1427 390 1427 Z M854 1427 Q928 1427 980 1375 Q1032 1323 1032 1250 Q1032 1176 980 1124 Q928 1072 855 1072 Q780 1072 729 1124 Q677 1177 677 1252 Q677 1324 729 1375 Q782 1427 854 1427 Z "/>
<glyph glyph-name="Ydieresis" unicode="Ÿ" horiz-adv-x="1311" d="M469 656 L-25 1365 L399 1365 L657 993 L905 1365 L1335 1365 L824 656 L824 0 L469 0 L469 656 Z M409 1850 Q483 1850 535 1798 Q587 1746 587 1673 Q587 1599 535 1547 Q483 1495 410 1495 Q335 1495 284 1547 Q232 1600 232 1675 Q232 1747 284 1798 Q337 1850 409 1850 Z M901 1850 Q975 1850 1027 1798 Q1079 1746 1079 1673 Q1079 1599 1027 1547 Q975 1495 902 1495 Q827 1495 776 1547 Q724 1600 724 1675 Q724 1747 776 1798 Q829 1850 901 1850 Z "/>
<glyph glyph-name="fraction" unicode="⁄" horiz-adv-x="355" d="M485 1365 L663 1365 L-130 0 L-307 0 L485 1365 Z "/>
<glyph glyph-name="Euro" unicode="€" horiz-adv-x="1220" d="M1152 -4 Q1011 -51 898 -51 Q710 -51 538 46 Q301 180 214 423 L-27 423 L100 624 L174 624 Q172 656 172 678 Q172 692 173 704 L-27 704 L100 905 L206 905 Q236 998 278 1068 Q379 1233 556 1328 Q718 1415 896 1415 Q1023 1415 1152 1369 L1152 1041 Q1038 1097 913 1097 Q736 1097 628 978 Q598 946 577 905 L1077 905 L950 704 L525 704 Q523 687 523 675 Q523 653 527 624 L907 624 L780 423 L594 423 Q625 378 666 346 Q773 262 910 262 Q1033 262 1152 316 L1152 -4 Z "/>
<glyph glyph-name="guilsinglleft" unicode="‹" horiz-adv-x="637" d="M321 467 L555 152 L368 21 L57 467 L368 911 L549 787 L321 467 Z "/>
<glyph glyph-name="guilsinglright" unicode="›" horiz-adv-x="637" d="M315 467 L87 787 L269 911 L580 467 L269 21 L82 152 L315 467 Z "/>
<glyph glyph-name="fi" unicode="ﬁ" horiz-adv-x="1218" d="M467 655 L467 0 L139 0 L139 655 L22 655 L22 928 L139 928 L139 1068 Q139 1194 166 1263 Q212 1381 332 1457 Q435 1522 553 1522 Q625 1522 698 1488 L698 1202 Q629 1235 583 1235 Q539 1235 503 1205 Q473 1179 469 1119 Q467 1095 467 1045 L467 928 L698 928 L698 655 L467 655 Z M1106 928 L1106 0 L778 0 L778 928 L1106 928 Z M942 1469 Q1019 1469 1073 1415 Q1127 1361 1127 1285 Q1127 1208 1073 1154 Q1019 1100 943 1100 Q865 1100 812 1154 Q758 1209 758 1287 Q758 1362 812 1415 Q867 1469 942 1469 Z "/>
<glyph glyph-name="fl" unicode="ﬂ" horiz-adv-x="1218" d="M467 655 L467 0 L139 0 L139 655 L22 655 L22 928 L139 928 L139 1068 Q139 1194 166 1263 Q212 1381 332 1457 Q435 1522 553 1522 Q625 1522 698 1488 L698 1202 Q629 1235 583 1235 Q539 1235 503 1205 Q473 1179 469 1119 Q467 1095 467 1045 L467 928 L698 928 L698 655 L467 655 Z M1106 1502 L1106 0 L778 0 L778 1502 L1106 1502 Z "/>
<glyph glyph-name="daggerdbl" unicode="‡" horiz-adv-x="1229" d="M466 1502 L766 1502 L766 1234 L1084 1234 L1084 975 L766 975 L766 491 L1084 491 L1084 232 L766 232 L766 -314 L466 -314 L466 232 L145 232 L145 491 L466 491 L466 975 L145 975 L145 1234 L466 1234 L466 1502 Z "/>
<glyph glyph-name="periodcentered" unicode="·" horiz-adv-x="621" d="M310 696 Q398 696 460 634 Q522 572 522 485 Q522 397 460 335 Q399 273 311 273 Q222 273 161 335 Q99 398 99 487 Q99 573 161 634 Q224 696 310 696 Z "/>
<glyph glyph-name="quotesinglbase" unicode="‚" horiz-adv-x="707" d="M303 347 L611 347 L278 -254 L68 -254 L303 347 Z "/>
<glyph glyph-name="quotedblbase" unicode="„" horiz-adv-x="1171" d="M303 347 L611 347 L278 -254 L68 -254 L303 347 Z M767 347 L1076 347 L742 -254 L532 -254 L767 347 Z "/>
<glyph glyph-name="perthousand" unicode="‰" horiz-adv-x="2712" d="M450 1380 Q627 1380 727 1273 Q815 1179 815 1049 Q815 890 694 788 Q602 711 437 711 Q256 711 155 817 Q68 906 68 1052 Q68 1194 167 1286 Q268 1380 450 1380 Z M441 1200 Q378 1200 333 1155 Q288 1110 288 1048 Q288 984 333 938 Q377 893 442 893 Q505 893 550 938 Q595 983 595 1047 Q595 1111 550 1155 Q504 1200 441 1200 Z M1223 1365 L1401 1365 L608 0 L431 0 L1223 1365 Z M1400 653 Q1577 653 1677 546 Q1765 452 1765 322 Q1765 163 1644 61 Q1552 -16 1387 -16 Q1206 -16 1105 90 Q1018 180 1018 325 Q1018 467 1117 559 Q1219 653 1400 653 Z M1391 473 Q1328 473 1283 428 Q1238 383 1238 321 Q1238 257 1283 211 Q1328 166 1392 166 Q1455 166 1500 211 Q1545 256 1545 320 Q1545 384 1500 428 Q1454 473 1391 473 Z M2278 653 Q2456 653 2555 546 Q2643 452 2643 322 Q2643 163 2522 61 Q2430 -16 2265 -16 Q2084 -16 1983 90 Q1896 180 1896 325 Q1896 467 1995 559 Q2097 653 2278 653 Z M2269 473 Q2206 473 2161 428 Q2116 383 2116 321 Q2116 257 2161 211 Q2206 166 2270 166 Q2333 166 2378 211 Q2423 256 2423 320 Q2423 384 2378 428 Q2332 473 2269 473 Z "/>
<glyph glyph-name="Acircumflex" unicode="Â" horiz-adv-x="1454" d="M973 238 L483 238 L389 0 L14 0 L539 1365 L926 1365 L1440 0 L1061 0 L973 238 Z M877 508 L730 943 L581 508 L877 508 Z M310 1630 L727 1876 L1144 1630 L1046 1475 L727 1635 L408 1475 L310 1630 Z "/>
<glyph glyph-name="Ecircumflex" unicode="Ê" horiz-adv-x="1002" d="M920 1065 L498 1065 L498 837 L897 837 L897 537 L498 537 L498 300 L920 300 L920 0 L143 0 L143 1365 L920 1365 L920 1065 Z M115 1630 L532 1876 L949 1630 L851 1475 L532 1635 L213 1475 L115 1630 Z "/>
<glyph glyph-name="Aacute" unicode="Á" horiz-adv-x="1454" d="M973 238 L483 238 L389 0 L14 0 L539 1365 L926 1365 L1440 0 L1061 0 L973 238 Z M877 508 L730 943 L581 508 L877 508 Z M1066 1712 L718 1475 L580 1603 L876 1885 L1066 1712 Z "/>
<glyph glyph-name="Edieresis" unicode="Ë" horiz-adv-x="1002" d="M920 1065 L498 1065 L498 837 L897 837 L897 537 L498 537 L498 300 L920 300 L920 0 L143 0 L143 1365 L920 1365 L920 1065 Z M293 1850 Q367 1850 419 1798 Q471 1746 471 1673 Q471 1599 419 1547 Q367 1495 294 1495 Q219 1495 168 1547 Q116 1600 116 1675 Q116 1747 168 1798 Q221 1850 293 1850 Z M785 1850 Q859 1850 911 1798 Q963 1746 963 1673 Q963 1599 911 1547 Q859 1495 786 1495 Q711 1495 660 1547 Q608 1600 608 1675 Q608 1747 660 1798 Q713 1850 785 1850 Z "/>
<glyph glyph-name="Egrave" unicode="È" horiz-adv-x="1002" d="M920 1065 L498 1065 L498 837 L897 837 L897 537 L498 537 L498 300 L920 300 L920 0 L143 0 L143 1365 L920 1365 L920 1065 Z M244 1712 L434 1885 L730 1603 L592 1475 L244 1712 Z "/>
<glyph glyph-name="Iacute" unicode="Í" horiz-adv-x="642" d="M498 1365 L498 0 L143 0 L143 1365 L498 1365 Z M652 1712 L304 1475 L166 1603 L462 1885 L652 1712 Z "/>
<glyph glyph-name="Icircumflex" unicode="Î" horiz-adv-x="642" d="M498 1365 L498 0 L143 0 L143 1365 L498 1365 Z M-95 1630 L322 1876 L739 1630 L641 1475 L322 1635 L3 1475 L-95 1630 Z "/>
<glyph glyph-name="Idieresis" unicode="Ï" horiz-adv-x="642" d="M499 1365 L499 0 L144 0 L144 1365 L499 1365 Z M109 1850 Q183 1850 235 1798 Q287 1746 287 1673 Q287 1599 235 1547 Q183 1495 110 1495 Q35 1495 -16 1547 Q-68 1600 -68 1675 Q-68 1747 -16 1798 Q37 1850 109 1850 Z M532 1850 Q606 1850 658 1798 Q710 1746 710 1673 Q710 1599 658 1547 Q606 1495 533 1495 Q458 1495 407 1547 Q355 1600 355 1675 Q355 1747 407 1798 Q460 1850 532 1850 Z "/>
<glyph glyph-name="Igrave" unicode="Ì" horiz-adv-x="642" d="M498 1365 L498 0 L143 0 L143 1365 L498 1365 Z M-11 1712 L179 1885 L475 1603 L337 1475 L-11 1712 Z "/>
<glyph glyph-name="Oacute" unicode="Ó" horiz-adv-x="1675" d="M837 1406 Q1179 1406 1396 1177 Q1593 970 1593 679 Q1593 479 1494 310 Q1388 128 1201 33 Q1039 -49 831 -49 Q494 -49 279 179 Q82 387 82 691 Q82 882 181 1047 Q292 1233 474 1324 Q639 1406 837 1406 Z M837 1062 Q678 1062 567 950 Q454 836 454 683 Q454 521 567 407 Q678 295 838 295 Q997 295 1110 407 Q1222 520 1222 679 Q1222 840 1110 950 Q994 1062 837 1062 Z M1162 1712 L814 1475 L676 1603 L972 1885 L1162 1712 Z "/>
<glyph glyph-name="Ocircumflex" unicode="Ô" horiz-adv-x="1675" d="M837 1406 Q1179 1406 1396 1177 Q1593 970 1593 679 Q1593 479 1494 310 Q1388 128 1201 33 Q1039 -49 831 -49 Q494 -49 279 179 Q82 387 82 691 Q82 882 181 1047 Q292 1233 474 1324 Q639 1406 837 1406 Z M837 1062 Q678 1062 567 950 Q454 836 454 683 Q454 521 567 407 Q678 295 838 295 Q997 295 1110 407 Q1222 520 1222 679 Q1222 840 1110 950 Q994 1062 837 1062 Z M421 1630 L838 1876 L1255 1630 L1157 1475 L838 1635 L519 1475 L421 1630 Z "/>
<glyph glyph-name="Ograve" unicode="Ò" horiz-adv-x="1675" d="M837 1406 Q1179 1406 1396 1177 Q1593 970 1593 679 Q1593 479 1494 310 Q1388 128 1201 33 Q1039 -49 831 -49 Q494 -49 279 179 Q82 387 82 691 Q82 882 181 1047 Q292 1233 474 1324 Q639 1406 837 1406 Z M837 1062 Q678 1062 567 950 Q454 836 454 683 Q454 521 567 407 Q678 295 838 295 Q997 295 1110 407 Q1222 520 1222 679 Q1222 840 1110 950 Q994 1062 837 1062 Z M526 1712 L716 1885 L1012 1603 L874 1475 L526 1712 Z "/>
<glyph glyph-name="Uacute" unicode="Ú" horiz-adv-x="1477" d="M498 1365 L498 626 Q498 487 509 447 Q533 362 597 318 Q656 278 735 278 Q830 278 897 333 Q960 386 974 484 Q979 521 979 626 L979 1365 L1334 1365 L1334 578 Q1334 382 1282 277 Q1203 117 1046 35 Q911 -35 730 -35 Q524 -35 373 54 Q204 154 161 351 Q143 434 143 578 L143 1365 L498 1365 Z M1077 1712 L729 1475 L591 1603 L887 1885 L1077 1712 Z "/>
<glyph glyph-name="Ucircumflex" unicode="Û" horiz-adv-x="1477" d="M498 1365 L498 626 Q498 487 509 447 Q533 362 597 318 Q656 278 735 278 Q830 278 897 333 Q960 386 974 484 Q979 521 979 626 L979 1365 L1334 1365 L1334 578 Q1334 382 1282 277 Q1203 117 1046 35 Q911 -35 730 -35 Q524 -35 373 54 Q204 154 161 351 Q143 434 143 578 L143 1365 L498 1365 Z M322 1630 L739 1876 L1156 1630 L1058 1475 L739 1635 L420 1475 L322 1630 Z "/>
<glyph glyph-name="Ugrave" unicode="Ù" horiz-adv-x="1477" d="M498 1365 L498 626 Q498 487 509 447 Q533 362 597 318 Q656 278 735 278 Q830 278 897 333 Q960 386 974 484 Q979 521 979 626 L979 1365 L1334 1365 L1334 578 Q1334 382 1282 277 Q1203 117 1046 35 Q911 -35 730 -35 Q524 -35 373 54 Q204 154 161 351 Q143 434 143 578 L143 1365 L498 1365 Z M400 1712 L590 1885 L886 1603 L748 1475 L400 1712 Z "/>
<glyph glyph-name="dotlessi" unicode="ı" horiz-adv-x="552" d="M440 928 L440 0 L112 0 L112 928 L440 928 Z "/>
<glyph glyph-name="circumflex" unicode="ˆ" horiz-adv-x="1024" d="M109 1223 L509 1524 L915 1223 L770 1065 L509 1267 L248 1065 L109 1223 Z "/>
<glyph glyph-name="tilde" unicode="˜" horiz-adv-x="1024" d="M304 1075 L148 1075 Q148 1135 158 1179 Q178 1268 231 1314 Q284 1360 347 1360 Q388 1360 434 1344 Q462 1335 528 1310 Q609 1281 649 1281 Q677 1281 690 1296.5 Q703 1312 715 1360 L877 1360 Q865 1256 843 1199 Q793 1075 669 1075 Q598 1075 490 1116 Q396 1152 367 1152 Q338 1152 324 1135 Q312 1120 304 1075 Z "/>
<glyph glyph-name="macron" unicode="¯" horiz-adv-x="1024" d="M154 1307 L871 1307 L871 1106 L154 1106 L154 1307 Z "/>
<glyph glyph-name="breve" unicode="˘" horiz-adv-x="1024" d="M870 1421 Q867 1350 856 1309.5 Q845 1269 818 1227 Q723 1078 512 1078 Q301 1078 206 1227 Q169 1284 160 1347 Q156 1377 154 1421 L363 1421 Q383 1272 512 1272 Q641 1272 661 1421 L870 1421 Z "/>
<glyph glyph-name="dotaccent" unicode="˙" horiz-adv-x="1024" d="M513 1445 Q590 1445 645 1391 Q699 1336 699 1259 Q699 1181 645 1127 Q590 1072 513 1072 Q435 1072 381 1127 Q326 1182 326 1261 Q326 1337 381 1391 Q436 1445 513 1445 Z "/>
<glyph glyph-name="ring" unicode="˚" horiz-adv-x="1024" d="M505 1496 L519 1496 Q662 1496 735 1426 Q794 1370 794 1284 Q794 1197 735 1141 Q662 1072 519 1072 L505 1072 Q363 1072 290 1141 Q231 1197 231 1286 Q231 1370 290 1426 Q363 1496 505 1496 Z M510 1366 Q462 1366 433 1344 Q403 1321 403 1285 Q403 1247 433 1224 Q462 1202 511 1202 Q563 1202 592 1224 Q622 1247 622 1284 Q622 1322 592 1344 Q563 1366 510 1366 Z "/>
<glyph glyph-name="cedilla" unicode="¸" horiz-adv-x="1024" d="M808 -225 L529 -489 L381 -396 L621 -103 L808 -225 Z "/>
<glyph glyph-name="hungarumlaut" unicode="˝" horiz-adv-x="1024" d="M619 1344 L339 1065 L214 1177 L448 1493 L619 1344 Z M988 1344 L708 1065 L583 1177 L816 1493 L988 1344 Z "/>
<glyph glyph-name="ogonek" unicode="˛" horiz-adv-x="1024" d="M523 0 L673 0 Q556 -77 556 -143 Q556 -175 582 -200 Q603 -220 635 -220 Q675 -220 738 -182 L694 -359 Q633 -396 549 -396 Q468 -396 412 -340 Q367 -295 367 -232 Q367 -99 523 0 Z "/>
<glyph glyph-name="caron" unicode="ˇ" horiz-adv-x="1024" d="M109 1366 L248 1524 L509 1322 L770 1524 L915 1366 L509 1065 L109 1366 Z "/>
<glyph glyph-name="uni00A0" unicode=" " horiz-adv-x="512" d=""/>
<glyph glyph-name="currency" unicode="¤" horiz-adv-x="1365" d="M42 281 L252 492 Q163 623 163 773 Q163 920 254 1055 L40 1268 L185 1413 L398 1200 Q536 1289 684 1289 Q831 1289 965 1202 L1176 1411 L1320 1267 L1111 1058 Q1204 912 1204 773 Q1204 629 1115 493 L1326 282 L1183 138 L973 348 Q835 256 682 256 Q541 256 395 347 L185 138 L42 281 Z M687 1052 Q569 1052 487 970 Q406 889 406 772 Q406 657 487 575 Q569 493 684 493 Q799 493 881 575 Q962 657 962 773 Q962 890 880 970 Q797 1052 687 1052 Z "/>
<glyph glyph-name="brokenbar" unicode="¦" horiz-adv-x="1024" d="M317 1365 L708 1365 L708 625 L317 625 L317 1365 Z M317 314 L708 314 L708 -341 L317 -341 L317 314 Z "/>
<glyph glyph-name="uni00AD" unicode="­" horiz-adv-x="519" d="M0 621 L519 621 L519 348 L0 348 L0 621 Z "/>
<glyph glyph-name="twosuperior" unicode="²" horiz-adv-x="819" d="M479 737 L733 737 L733 546 L63 546 L279 772 Q494 996 494 1110 Q494 1152 466 1182 Q442 1207 407 1207 Q366 1207 345 1176 Q328 1150 328 1115 Q328 1103 332 1075 L87 1075 Q87 1131 101 1178 Q136 1291 218 1347 Q297 1399 405 1399 Q549 1399 638 1312 Q724 1228 724 1102 Q724 964 602 851 L479 737 Z "/>
<glyph glyph-name="threesuperior" unicode="³" horiz-adv-x="819" d="M363 897 L363 1056 Q383 1054 393 1054 Q429 1054 449 1074 Q475 1099 475 1137 Q475 1173 449 1193 Q428 1209 400 1209 Q323 1209 322 1118 L114 1118 Q124 1205 156 1260 Q194 1325 261 1359 Q332 1395 418 1395 Q539 1395 613 1328 Q684 1263 684 1156 Q684 1044 608 991 Q646 976 672 945 Q730 877 730 784 Q730 642 613 567 Q527 511 408 511 Q209 511 115 672 Q73 743 72 818 L299 818 Q305 706 408 706 Q459 706 487 740 Q510 769 510 804 Q510 855 468 885 Q440 905 406 905 Q390 905 363 897 Z "/>
<glyph glyph-name="onesuperior" unicode="¹" horiz-adv-x="819" d="M324 1174 L209 1174 L209 1365 L547 1365 L547 546 L324 546 L324 1174 Z "/>
<glyph glyph-name="onequarter" unicode="¼" horiz-adv-x="1994" d="M323 1174 L208 1174 L208 1365 L546 1365 L546 546 L323 546 L323 1174 Z M1303 1365 L1480 1365 L688 0 L511 0 L1303 1365 Z M1825 340 L1923 340 L1923 165 L1825 165 L1825 0 L1617 0 L1617 165 L1227 165 L1227 309 L1540 819 L1825 819 L1825 340 Z M1617 340 L1617 619 L1447 340 L1617 340 Z "/>
<glyph glyph-name="onehalf" unicode="½" horiz-adv-x="1993" d="M323 1174 L208 1174 L208 1365 L546 1365 L546 546 L323 546 L323 1174 Z M1303 1365 L1480 1365 L688 0 L511 0 L1303 1365 Z M1652 191 L1905 191 L1905 0 L1235 0 L1451 226 Q1553 332 1618 428 Q1666 499 1666 563 Q1666 605 1638 634 Q1614 660 1579 660 Q1538 660 1517 629 Q1500 603 1500 568 Q1500 556 1504 528 L1259 528 Q1259 584 1274 632 Q1308 745 1391 801 Q1469 853 1578 853 Q1722 853 1810 766 Q1896 681 1896 555 Q1896 417 1775 305 L1652 191 Z "/>
<glyph glyph-name="threequarters" unicode="¾" horiz-adv-x="1994" d="M363 897 L363 1056 Q383 1054 393 1054 Q429 1054 449 1074 Q475 1099 475 1137 Q475 1173 449 1193 Q428 1209 400 1209 Q323 1209 322 1118 L114 1118 Q124 1205 156 1260 Q194 1325 261 1359 Q332 1395 418 1395 Q539 1395 613 1328 Q684 1263 684 1156 Q684 1044 608 991 Q646 976 672 945 Q730 877 730 784 Q730 642 613 567 Q527 511 408 511 Q209 511 115 672 Q73 743 72 818 L299 818 Q305 706 408 706 Q459 706 487 740 Q510 769 510 804 Q510 855 468 885 Q440 905 406 905 Q390 905 363 897 Z M1303 1365 L1481 1365 L689 0 L511 0 L1303 1365 Z M1825 340 L1924 340 L1924 165 L1825 165 L1825 0 L1617 0 L1617 165 L1227 165 L1227 309 L1540 819 L1825 819 L1825 340 Z M1617 340 L1617 619 L1447 340 L1617 340 Z "/>
<glyph glyph-name="Eth" unicode="Ð" horiz-adv-x="1423" d="M143 0 L143 587 L20 587 L20 819 L143 819 L143 1365 L667 1365 Q923 1365 1116 1184 Q1226 1082 1285 944 Q1340 815 1340 683 Q1340 490 1230 317 Q1121 146 942 62 Q810 0 667 0 L143 0 Z M498 300 L580 300 Q713 300 793 349 Q890 408 937 521 Q969 598 969 683 Q969 840 870 951 Q809 1019 731 1044 Q666 1065 580 1065 L498 1065 L498 819 L730 819 L730 587 L498 587 L498 300 Z "/>
<glyph glyph-name="multiply" unicode="×" horiz-adv-x="1229" d="M354 1107 L615 847 L876 1107 L1040 943 L779 683 L1040 422 L876 258 L615 519 L354 258 L190 422 L451 683 L190 943 L354 1107 Z "/>
<glyph glyph-name="Yacute" unicode="Ý" horiz-adv-x="1311" d="M469 656 L-25 1365 L399 1365 L657 993 L905 1365 L1335 1365 L824 656 L824 0 L469 0 L469 656 Z M1007 1712 L659 1475 L521 1603 L817 1885 L1007 1712 Z "/>
<glyph glyph-name="Thorn" unicode="Þ" horiz-adv-x="1227" d="M498 262 L498 0 L143 0 L143 1365 L498 1365 L498 1174 L708 1174 Q870 1174 959 1126 Q1182 1004 1182 721 Q1182 513 1072 389 Q960 262 720 262 L498 262 Z M498 547 L616 547 Q719 547 761 586 Q811 632 811 717 Q811 808 756 854 Q714 889 617 889 L498 889 L498 547 Z "/>
<glyph glyph-name="eth" unicode="ð" horiz-adv-x="1267" d="M810 1502 L914 1333 L772 1244 Q905 1129 991 1015 Q1192 749 1192 485 Q1192 255 1042 115 Q885 -32 635 -32 Q405 -32 250 92 Q75 232 75 466 Q75 654 190 783 Q343 956 634 961 Q579 1031 520 1085 L341 970 L240 1134 L363 1214 Q316 1246 241 1285 L370 1508 Q509 1444 604 1372 L810 1502 Z M633 680 Q545 680 484 618 Q422 555 422 469 Q422 378 484 315 Q545 252 634 252 Q721 252 783 315 Q845 377 845 466 Q845 557 783 618 Q720 680 633 680 Z "/>
<glyph glyph-name="yacute" unicode="ý" horiz-adv-x="1246" d="M448 127 L0 928 L381 928 L629 452 L870 928 L1246 928 L501 -464 L133 -464 L448 127 Z M952 1344 L637 1065 L485 1177 L744 1493 L952 1344 Z "/>
<glyph glyph-name="thorn" unicode="þ" horiz-adv-x="1270" d="M440 -464 L112 -464 L112 1502 L440 1502 L440 825 Q546 960 727 960 Q842 960 950 900 Q1068 833 1132 719 Q1195 607 1195 462 Q1195 226 1030 85 Q896 -31 732 -31 Q558 -31 440 91 L440 -464 Z M642 677 Q556 677 492 614 Q430 553 430 465 Q430 377 492 315 Q557 251 643 251 Q728 251 792 315 Q854 377 854 462 Q854 553 792 614 Q728 677 642 677 Z "/>
<glyph glyph-name="Amacron" unicode="Ā" horiz-adv-x="1454" d="M973 238 L483 238 L389 0 L14 0 L539 1365 L926 1365 L1440 0 L1061 0 L973 238 Z M877 508 L730 943 L581 508 L877 508 Z M348 1750 L1106 1750 L1106 1549 L348 1549 L348 1750 Z "/>
<glyph glyph-name="amacron" unicode="ā" horiz-adv-x="1270" d="M830 928 L1158 928 L1158 0 L830 0 L830 103 Q724 -30 544 -30 Q427 -30 320 29 Q203 95 138 210 Q75 322 75 466 Q75 703 240 845 Q371 958 541 958 Q656 958 748 905 Q784 885 830 837 L830 928 Z M628 675 Q540 675 478 613 Q416 551 416 467 Q416 378 478 315 Q539 253 628 253 Q716 253 778 315 Q840 377 840 464 Q840 553 778 613 Q714 675 628 675 Z M283 1307 L1000 1307 L1000 1106 L283 1106 L283 1307 Z "/>
<glyph glyph-name="Abreve" unicode="Ă" horiz-adv-x="1454" d="M973 238 L483 238 L389 0 L14 0 L539 1365 L926 1365 L1440 0 L1061 0 L973 238 Z M877 508 L730 943 L581 508 L877 508 Z M336 1810 L566 1810 Q594 1689 727 1689 Q860 1689 887 1810 L1118 1810 Q1112 1712 1063 1643 Q958 1495 727 1495 Q496 1495 390 1643 Q341 1712 336 1810 Z "/>
<glyph glyph-name="abreve" unicode="ă" horiz-adv-x="1270" d="M830 928 L1158 928 L1158 0 L830 0 L830 103 Q724 -30 544 -30 Q427 -30 320 29 Q203 95 138 210 Q75 322 75 466 Q75 703 240 845 Q371 958 541 958 Q656 958 748 905 Q784 885 830 837 L830 928 Z M628 675 Q540 675 478 613 Q416 551 416 467 Q416 378 478 315 Q539 253 628 253 Q716 253 778 315 Q840 377 840 464 Q840 553 778 613 Q714 675 628 675 Z M1007 1421 Q1004 1350 993 1309.5 Q982 1269 955 1227 Q860 1078 649 1078 Q438 1078 343 1227 Q306 1284 297 1347 Q293 1377 291 1421 L500 1421 Q520 1272 649 1272 Q778 1272 798 1421 L1007 1421 Z "/>
<glyph glyph-name="Aogonek" unicode="Ą" horiz-adv-x="1454" d="M973 238 L483 238 L389 0 L14 0 L539 1365 L926 1365 L1440 0 Q1309 -88 1309 -163 Q1309 -199 1336 -221 Q1359 -239 1389 -239 Q1435 -239 1498 -206 L1451 -390 Q1387 -421 1305 -421 Q1201 -421 1142 -363 Q1091 -314 1091 -245 Q1091 -118 1264 0 L1061 0 L973 238 Z M877 508 L730 943 L581 508 L877 508 Z "/>
<glyph glyph-name="aogonek" unicode="ą" horiz-adv-x="1270" d="M830 928 L1158 928 L1158 0 Q1040 -77 1040 -143 Q1040 -175 1066 -200 Q1088 -220 1120 -220 Q1160 -220 1224 -182 L1180 -359 Q1119 -396 1034 -396 Q953 -396 897 -340 Q852 -295 852 -232 Q852 -99 1008 0 L830 0 L830 103 Q724 -30 544 -30 Q427 -30 320 29 Q203 95 138 210 Q75 322 75 466 Q75 703 240 845 Q371 958 541 958 Q656 958 748 905 Q784 885 830 837 L830 928 Z M628 675 Q540 675 478 613 Q416 551 416 467 Q416 378 478 315 Q539 253 628 253 Q716 253 777 315 Q840 377 840 464 Q840 552 778 613 Q714 675 628 675 Z "/>
<glyph glyph-name="Cacute" unicode="Ć" horiz-adv-x="1208" d="M1126 1325 L1126 900 Q1004 1050 819 1050 Q657 1050 549 936 Q453 836 453 674 Q453 499 573 398 Q681 307 818 307 Q990 307 1126 450 L1126 30 Q1000 -12 941 -24.5 Q882 -37 808 -37 Q620 -37 447 58 Q263 159 169 327 Q82 480 82 671 Q82 885 188 1055 Q288 1217 465 1309 Q627 1394 805 1394 Q951 1394 1126 1325 Z M1079 1712 L731 1475 L593 1603 L889 1885 L1079 1712 Z "/>
<glyph glyph-name="cacute" unicode="ć" horiz-adv-x="887" d="M812 905 L812 626 Q726 686 642 686 Q537 686 470 613 Q416 553 416 461 Q416 361 482 300 Q549 238 642 238 Q733 238 812 299 L812 21 Q698 -31 582 -31 Q438 -31 312 44 Q75 184 75 456 Q75 686 241 831 Q384 957 591 957 Q710 957 812 905 Z M855 1344 L540 1065 L388 1177 L647 1493 L855 1344 Z "/>
<glyph glyph-name="Ccircumflex" unicode="Ĉ" horiz-adv-x="1208" d="M1126 1325 L1126 900 Q1004 1050 819 1050 Q657 1050 549 936 Q453 836 453 674 Q453 499 573 398 Q681 307 818 307 Q990 307 1126 450 L1126 30 Q1000 -12 941 -24.5 Q882 -37 808 -37 Q620 -37 447 58 Q263 159 169 327 Q82 480 82 671 Q82 885 188 1055 Q288 1217 465 1309 Q627 1394 805 1394 Q951 1394 1126 1325 Z M324 1630 L741 1876 L1158 1630 L1060 1475 L741 1635 L422 1475 L324 1630 Z "/>
<glyph glyph-name="Cdotaccent" unicode="Ċ" horiz-adv-x="1208" d="M1126 1325 L1126 900 Q1004 1050 819 1050 Q657 1050 549 936 Q453 836 453 674 Q453 499 573 398 Q681 307 818 307 Q990 307 1126 450 L1126 30 Q1000 -12 941 -24.5 Q882 -37 808 -37 Q620 -37 447 58 Q263 159 169 327 Q82 480 82 671 Q82 885 188 1055 Q288 1217 465 1309 Q627 1394 805 1394 Q951 1394 1126 1325 Z M740 1850 Q814 1850 866 1798 Q918 1746 918 1673 Q918 1599 866 1547 Q814 1495 741 1495 Q666 1495 615 1547 Q563 1600 563 1675 Q563 1747 615 1798 Q668 1850 740 1850 Z "/>
<glyph glyph-name="cdotaccent" unicode="ċ" horiz-adv-x="887" d="M812 905 L812 626 Q726 686 642 686 Q537 686 470 613 Q416 553 416 461 Q416 361 482 300 Q549 238 642 238 Q733 238 812 299 L812 21 Q698 -31 582 -31 Q438 -31 312 44 Q75 184 75 456 Q75 686 241 831 Q384 957 591 957 Q710 957 812 905 Z M540 1445 Q617 1445 672 1391 Q726 1336 726 1259 Q726 1181 672 1127 Q617 1072 540 1072 Q462 1072 408 1127 Q353 1182 353 1261 Q353 1337 408 1391 Q463 1445 540 1445 Z "/>
<glyph glyph-name="Ccaron" unicode="Č" horiz-adv-x="1208" d="M1126 1325 L1126 900 Q1004 1050 819 1050 Q657 1050 549 936 Q453 836 453 674 Q453 499 573 398 Q681 307 818 307 Q990 307 1126 450 L1126 30 Q1000 -12 941 -24.5 Q882 -37 808 -37 Q620 -37 447 58 Q263 159 169 327 Q82 480 82 671 Q82 885 188 1055 Q288 1217 465 1309 Q627 1394 805 1394 Q951 1394 1126 1325 Z M1158 1721 L741 1475 L324 1721 L422 1876 L741 1716 L1060 1876 L1158 1721 Z "/>
<glyph glyph-name="ccaron" unicode="č" horiz-adv-x="887" d="M812 905 L812 626 Q726 686 642 686 Q537 686 470 613 Q416 553 416 461 Q416 361 482 300 Q549 238 642 238 Q733 238 812 299 L812 21 Q698 -31 582 -31 Q438 -31 312 44 Q75 184 75 456 Q75 686 241 831 Q384 957 591 957 Q710 957 812 905 Z M150 1366 L289 1524 L550 1322 L811 1524 L956 1366 L550 1065 L150 1366 Z "/>
<glyph glyph-name="Dcaron" unicode="Ď" horiz-adv-x="1423" d="M143 0 L143 1365 L667 1365 Q923 1365 1116 1184 Q1226 1082 1285 944 Q1340 815 1340 683 Q1340 489 1230 317 Q1120 146 942 62 Q810 0 667 0 L143 0 Z M498 300 L579 300 Q713 300 793 349 Q890 408 937 520 Q969 597 969 683 Q969 840 870 951 Q810 1019 731 1044 Q666 1065 579 1065 L498 1065 L498 300 Z M1060 1721 L643 1475 L226 1721 L324 1876 L643 1716 L962 1876 L1060 1721 Z "/>
<glyph glyph-name="dcaron" unicode="ď" horiz-adv-x="1625" d="M830 1502 L1158 1502 L1158 0 L830 0 L830 103 Q724 -30 544 -30 Q427 -30 320 29 Q203 95 138 210 Q75 322 75 466 Q75 703 240 845 Q371 958 541 958 Q656 958 748 905 Q784 885 830 837 L830 1502 Z M628 675 Q540 675 478 613 Q416 551 416 467 Q416 378 478 315 Q539 253 628 253 Q716 253 778 315 Q840 377 840 464 Q840 553 778 613 Q714 675 628 675 Z M1375 1502 L1625 1502 L1438 1154 L1240 1154 L1375 1502 Z "/>
<glyph glyph-name="Dcroat" unicode="Đ" horiz-adv-x="1423" d="M143 0 L143 587 L20 587 L20 819 L143 819 L143 1365 L667 1365 Q923 1365 1116 1184 Q1226 1082 1285 944 Q1340 815 1340 683 Q1340 490 1230 317 Q1121 146 942 62 Q810 0 667 0 L143 0 Z M498 300 L580 300 Q713 300 793 349 Q890 408 937 521 Q969 598 969 683 Q969 840 870 951 Q809 1019 731 1044 Q666 1065 580 1065 L498 1065 L498 819 L730 819 L730 587 L498 587 L498 300 Z "/>
<glyph glyph-name="dcroat" unicode="đ" horiz-adv-x="1270" d="M830 1502 L1158 1502 L1158 1338 L1267 1338 L1267 1120 L1158 1120 L1158 0 L830 0 L830 103 Q725 -32 544 -32 Q427 -32 321 27 Q203 93 138 208 Q75 321 75 466 Q75 703 240 846 Q371 960 541 960 Q656 960 748 906 Q784 885 830 837 L830 1120 L571 1120 L571 1338 L830 1338 L830 1502 Z M628 677 Q540 677 478 615 Q416 552 416 466 Q416 376 478 313 Q540 251 628 251 Q716 251 778 313 Q840 375 840 464 Q840 553 778 614 Q714 677 628 677 Z "/>
<glyph glyph-name="Emacron" unicode="Ē" horiz-adv-x="1002" d="M920 1065 L498 1065 L498 837 L897 837 L897 537 L498 537 L498 300 L920 300 L920 0 L143 0 L143 1365 L920 1365 L920 1065 Z M153 1750 L911 1750 L911 1549 L153 1549 L153 1750 Z "/>
<glyph glyph-name="emacron" unicode="ē" horiz-adv-x="1172" d="M1096 404 L406 404 Q409 195 606 195 Q681 195 725 231 Q744 247 767 283 L1083 283 Q1053 179 1000 118 Q935 41 833 3 Q726 -37 606 -37 Q350 -37 204 113 Q75 246 75 457 Q75 607 145 730 Q272 954 591 954 Q811 954 941 837 Q1066 723 1090 531 Q1096 479 1096 404 Z M791 594 Q779 646 747 680 Q689 742 600 742 Q510 742 456 683 Q425 650 415 594 L791 594 Z M227 1307 L944 1307 L944 1106 L227 1106 L227 1307 Z "/>
<glyph glyph-name="Ebreve" unicode="Ĕ" horiz-adv-x="1002" d="M920 1065 L498 1065 L498 837 L897 837 L897 537 L498 537 L498 300 L920 300 L920 0 L143 0 L143 1365 L920 1365 L920 1065 Z M141 1810 L371 1810 Q399 1689 532 1689 Q665 1689 692 1810 L923 1810 Q917 1712 868 1643 Q763 1495 532 1495 Q301 1495 195 1643 Q146 1712 141 1810 Z "/>
<glyph glyph-name="ebreve" unicode="ĕ" horiz-adv-x="1172" d="M1096 404 L406 404 Q409 195 606 195 Q681 195 725 231 Q744 247 767 283 L1083 283 Q1053 179 1000 118 Q935 41 833 3 Q726 -37 606 -37 Q350 -37 204 113 Q75 246 75 457 Q75 607 145 730 Q272 954 591 954 Q811 954 941 837 Q1066 723 1090 531 Q1096 479 1096 404 Z M791 594 Q779 646 747 680 Q689 742 600 742 Q510 742 456 683 Q425 650 415 594 L791 594 Z M944 1421 Q941 1350 930 1309.5 Q919 1269 892 1227 Q797 1078 586 1078 Q375 1078 280 1227 Q243 1284 234 1347 Q230 1377 228 1421 L437 1421 Q457 1272 586 1272 Q715 1272 735 1421 L944 1421 Z "/>
<glyph glyph-name="Edotaccent" unicode="Ė" horiz-adv-x="1002" d="M920 1065 L498 1065 L498 837 L897 837 L897 537 L498 537 L498 300 L920 300 L920 0 L143 0 L143 1365 L920 1365 L920 1065 Z M531 1850 Q605 1850 657 1798 Q709 1746 709 1673 Q709 1599 657 1547 Q605 1495 532 1495 Q457 1495 406 1547 Q354 1600 354 1675 Q354 1747 406 1798 Q459 1850 531 1850 Z "/>
<glyph glyph-name="edotaccent" unicode="ė" horiz-adv-x="1172" d="M1096 404 L406 404 Q409 195 606 195 Q681 195 725 231 Q744 247 767 283 L1083 283 Q1053 179 1000 118 Q935 41 833 3 Q726 -37 606 -37 Q350 -37 204 113 Q75 246 75 457 Q75 607 145 730 Q272 954 591 954 Q811 954 941 837 Q1066 723 1090 531 Q1096 479 1096 404 Z M791 594 Q779 646 747 680 Q689 742 600 742 Q510 742 456 683 Q425 650 415 594 L791 594 Z M586 1445 Q663 1445 718 1391 Q772 1336 772 1259 Q772 1181 718 1127 Q663 1072 586 1072 Q508 1072 454 1127 Q399 1182 399 1261 Q399 1337 454 1391 Q509 1445 586 1445 Z "/>
<glyph glyph-name="Eogonek" unicode="Ę" horiz-adv-x="1002" d="M920 1065 L498 1065 L498 837 L897 837 L897 537 L498 537 L498 300 L920 300 L920 0 Q789 -89 789 -163 Q789 -199 816 -221 Q839 -239 869 -239 Q915 -239 978 -206 L931 -390 Q866 -421 785 -421 Q681 -421 622 -363 Q571 -314 571 -245 Q571 -117 744 0 L143 0 L143 1365 L920 1365 L920 1065 Z "/>
<glyph glyph-name="eogonek" unicode="ę" horiz-adv-x="1172" d="M1096 404 L406 404 Q409 196 606 196 Q681 196 725 231 Q744 247 767 283 L1083 283 Q1052 178 1000 118 Q943 52 837 2 Q768 -30 744 -52 Q698 -92 698 -138 Q698 -176 724 -200 Q745 -220 778 -220 Q810 -220 881 -184 L836 -359 Q775 -396 691 -396 Q610 -396 554 -340 Q509 -295 509 -233 Q509 -126 615 -36 Q476 -36 379 1 Q229 57 145 189 Q74 302 74 455 Q74 607 144 730 Q271 954 590 954 Q811 954 941 837 Q1066 723 1090 531 Q1096 479 1096 404 Z M791 594 Q779 646 747 680 Q689 742 600 742 Q510 742 456 683 Q425 650 415 594 L791 594 Z "/>
<glyph glyph-name="Ecaron" unicode="Ě" horiz-adv-x="1002" d="M920 1065 L498 1065 L498 837 L897 837 L897 537 L498 537 L498 300 L920 300 L920 0 L143 0 L143 1365 L920 1365 L920 1065 Z M949 1721 L532 1475 L115 1721 L213 1876 L532 1716 L851 1876 L949 1721 Z "/>
<glyph glyph-name="ecaron" unicode="ě" horiz-adv-x="1172" d="M1096 404 L406 404 Q409 195 606 195 Q681 195 725 231 Q744 247 767 283 L1083 283 Q1053 179 1000 118 Q935 41 833 3 Q726 -37 606 -37 Q350 -37 204 113 Q75 246 75 457 Q75 607 145 730 Q272 954 591 954 Q811 954 941 837 Q1066 723 1090 531 Q1096 479 1096 404 Z M791 594 Q779 646 747 680 Q689 742 600 742 Q510 742 456 683 Q425 650 415 594 L791 594 Z M189 1366 L328 1524 L589 1322 L850 1524 L995 1366 L589 1065 L189 1366 Z "/>
<glyph glyph-name="Gcircumflex" unicode="Ĝ" horiz-adv-x="1593" d="M807 758 L1511 758 Q1507 485 1440 338 Q1355 151 1194 52 Q1032 -48 810 -48 Q587 -48 410 54 Q237 154 152 342 Q81 497 81 675 Q81 878 172 1050 Q266 1230 440 1320 Q612 1409 823 1409 Q1094 1409 1272 1254 Q1365 1172 1438 1025 L1101 886 Q1008 1102 806 1102 Q649 1102 551 977 Q452 852 452 675 Q452 474 574 344 Q666 246 817 246 Q970 246 1048 346 Q1085 393 1098 482 L807 482 L807 758 Z M380 1630 L797 1876 L1214 1630 L1116 1475 L797 1635 L478 1475 L380 1630 Z "/>
<glyph glyph-name="gcircumflex" unicode="ĝ" horiz-adv-x="1263" d="M1151 928 L1151 64 Q1151 -126 1104 -214 Q1030 -353 882 -418 Q768 -468 611 -468 Q339 -468 186 -306 Q104 -219 86 -113 L455 -113 Q488 -206 611 -206 Q725 -206 785 -128 Q823 -78 823 15 L823 103 Q766 51 724 27 Q640 -19 531 -19 Q303 -19 172 147 Q75 270 75 450 Q75 678 220 821 Q355 954 547 954 Q661 954 745 902 Q780 880 823 831 L823 928 L1151 928 Z M627 678 Q539 678 478 616 Q416 554 416 469 Q416 379 478 317 Q539 255 628 255 Q715 255 777 317 Q839 379 839 467 Q839 556 777 616 Q714 678 627 678 Z M228 1223 L628 1524 L1034 1223 L889 1065 L628 1267 L367 1065 L228 1223 Z "/>
<glyph glyph-name="Gbreve" unicode="Ğ" horiz-adv-x="1593" d="M807 758 L1511 758 Q1507 485 1440 338 Q1355 151 1194 52 Q1032 -48 810 -48 Q587 -48 410 54 Q237 154 152 342 Q81 497 81 675 Q81 878 172 1050 Q266 1230 440 1320 Q612 1409 823 1409 Q1094 1409 1272 1254 Q1365 1172 1438 1025 L1101 886 Q1008 1102 806 1102 Q649 1102 551 977 Q452 852 452 675 Q452 474 574 344 Q666 246 817 246 Q970 246 1048 346 Q1085 393 1098 482 L807 482 L807 758 Z M406 1810 L636 1810 Q664 1689 797 1689 Q930 1689 957 1810 L1188 1810 Q1182 1712 1133 1643 Q1028 1495 797 1495 Q566 1495 460 1643 Q411 1712 406 1810 Z "/>
<glyph glyph-name="gbreve" unicode="ğ" horiz-adv-x="1263" d="M1151 928 L1151 64 Q1151 -126 1104 -214 Q1030 -353 882 -418 Q768 -468 611 -468 Q339 -468 186 -306 Q104 -219 86 -113 L455 -113 Q488 -206 611 -206 Q725 -206 785 -128 Q823 -78 823 15 L823 103 Q766 51 724 27 Q640 -19 531 -19 Q303 -19 172 147 Q75 270 75 450 Q75 678 220 821 Q355 954 547 954 Q661 954 745 902 Q780 880 823 831 L823 928 L1151 928 Z M627 678 Q539 678 478 616 Q416 554 416 469 Q416 379 478 317 Q539 255 628 255 Q715 255 777 317 Q839 379 839 467 Q839 556 777 616 Q714 678 627 678 Z M990 1421 Q987 1350 976 1309.5 Q965 1269 938 1227 Q843 1078 632 1078 Q421 1078 326 1227 Q289 1284 280 1347 Q276 1377 274 1421 L483 1421 Q503 1272 632 1272 Q761 1272 781 1421 L990 1421 Z "/>
<glyph glyph-name="Gdotaccent" unicode="Ġ" horiz-adv-x="1593" d="M807 758 L1511 758 Q1507 485 1440 338 Q1355 151 1194 52 Q1032 -48 810 -48 Q587 -48 410 54 Q237 154 152 342 Q81 497 81 675 Q81 878 172 1050 Q266 1230 440 1320 Q612 1409 823 1409 Q1094 1409 1272 1254 Q1365 1172 1438 1025 L1101 886 Q1008 1102 806 1102 Q649 1102 551 977 Q452 852 452 675 Q452 474 574 344 Q666 246 817 246 Q970 246 1048 346 Q1085 393 1098 482 L807 482 L807 758 Z M796 1850 Q870 1850 922 1798 Q974 1746 974 1673 Q974 1599 922 1547 Q870 1495 797 1495 Q722 1495 671 1547 Q619 1600 619 1675 Q619 1747 671 1798 Q724 1850 796 1850 Z "/>
<glyph glyph-name="gdotaccent" unicode="ġ" horiz-adv-x="1263" d="M1151 928 L1151 64 Q1151 -126 1104 -214 Q1030 -353 882 -418 Q768 -468 611 -468 Q339 -468 186 -306 Q104 -219 86 -113 L455 -113 Q488 -206 611 -206 Q725 -206 785 -128 Q823 -78 823 15 L823 103 Q766 51 724 27 Q640 -19 531 -19 Q303 -19 172 147 Q75 270 75 450 Q75 678 220 821 Q355 954 547 954 Q661 954 745 902 Q780 880 823 831 L823 928 L1151 928 Z M627 678 Q539 678 478 616 Q416 554 416 469 Q416 379 478 317 Q539 255 628 255 Q715 255 777 317 Q839 379 839 467 Q839 556 777 616 Q714 678 627 678 Z M632 1445 Q709 1445 764 1391 Q818 1336 818 1259 Q818 1181 764 1127 Q709 1072 632 1072 Q554 1072 500 1127 Q445 1182 445 1261 Q445 1337 500 1391 Q555 1445 632 1445 Z "/>
<glyph glyph-name="Gcommaaccent" unicode="Ģ" horiz-adv-x="1593" d="M807 758 L1511 758 Q1507 485 1440 338 Q1355 151 1194 52 Q1032 -48 810 -48 Q587 -48 410 54 Q237 154 152 342 Q81 497 81 675 Q81 878 172 1050 Q266 1230 440 1320 Q612 1409 823 1409 Q1094 1409 1272 1254 Q1365 1172 1438 1025 L1101 886 Q1008 1102 806 1102 Q649 1102 551 977 Q452 852 452 675 Q452 474 574 344 Q666 246 817 246 Q970 246 1048 346 Q1085 393 1098 482 L807 482 L807 758 Z M688 -123 L965 -123 L778 -464 L553 -464 L688 -123 Z "/>
<glyph glyph-name="gcommaaccent" unicode="ģ" horiz-adv-x="1263" d="M1151 928 L1151 64 Q1151 -126 1104 -214 Q1030 -353 882 -418 Q768 -468 611 -468 Q339 -468 186 -306 Q104 -219 86 -113 L455 -113 Q488 -206 611 -206 Q725 -206 785 -128 Q823 -78 823 15 L823 103 Q766 51 724 27 Q640 -19 531 -19 Q303 -19 172 147 Q75 270 75 450 Q75 678 220 821 Q355 954 547 954 Q661 954 745 902 Q780 880 823 831 L823 928 L1151 928 Z M627 678 Q539 678 478 616 Q416 554 416 469 Q416 379 478 317 Q539 255 628 255 Q715 255 777 317 Q839 379 839 467 Q839 556 777 616 Q714 678 627 678 Z M716 1086 L466 1086 L653 1427 L851 1427 L716 1086 Z "/>
<glyph glyph-name="Hcircumflex" unicode="Ĥ" horiz-adv-x="1509" d="M498 838 L1010 838 L1010 1365 L1365 1365 L1365 0 L1010 0 L1010 562 L498 562 L498 0 L143 0 L143 1365 L498 1365 L498 838 Z M337 1630 L754 1876 L1171 1630 L1073 1475 L754 1635 L435 1475 L337 1630 Z "/>
<glyph glyph-name="Hbar" unicode="Ħ" horiz-adv-x="1509" d="M1010 1365 L1365 1365 L1365 1189 L1488 1189 L1488 981 L1365 981 L1365 0 L1010 0 L1010 562 L498 562 L498 0 L143 0 L143 981 L20 981 L20 1189 L143 1189 L143 1365 L498 1365 L498 1189 L1010 1189 L1010 1365 Z M1010 981 L498 981 L498 838 L1010 838 L1010 981 Z "/>
<glyph glyph-name="hbar" unicode="ħ" horiz-adv-x="1203" d="M699 1338 L699 1120 L440 1120 L440 811 Q497 877 545 904 Q624 949 737 949 Q906 949 1005 847 Q1064 786 1080 716 Q1091 667 1091 591 L1091 0 L763 0 L763 470 Q763 577 743 616 Q726 651 685 671 Q651 688 612 688 Q526 688 475 626 Q440 583 440 497 L440 0 L112 0 L112 1120 L3 1120 L3 1338 L112 1338 L112 1502 L440 1502 L440 1338 L699 1338 Z "/>
<glyph glyph-name="Itilde" unicode="Ĩ" horiz-adv-x="642" d="M498 1365 L498 0 L143 0 L143 1365 L498 1365 Z M91 1509 L-80 1509 Q-79 1605 -52 1667 Q-25 1728 29 1763 Q85 1799 150 1799 Q206 1799 337 1757 Q426 1728 465 1728 Q524 1728 544 1802 L722 1802 Q709 1684 684 1635 Q620 1509 468 1509 Q396 1509 299 1544 Q196 1581 161 1581 Q128 1581 114 1564 Q102 1550 91 1509 Z "/>
<glyph glyph-name="itilde" unicode="ĩ" horiz-adv-x="552" d="M440 928 L440 0 L112 0 L112 928 L440 928 Z M74 1075 L-82 1075 Q-82 1135 -72 1179 Q-52 1268 1 1314 Q54 1360 117 1360 Q158 1360 204 1344 Q232 1335 298 1310 Q379 1281 419 1281 Q447 1281 460 1296.5 Q473 1312 485 1360 L647 1360 Q635 1256 613 1199 Q563 1075 439 1075 Q368 1075 260 1116 Q166 1152 137 1152 Q108 1152 94 1135 Q82 1120 74 1075 Z "/>
<glyph glyph-name="Imacron" unicode="Ī" horiz-adv-x="642" d="M498 1365 L498 0 L143 0 L143 1365 L498 1365 Z M-31 1750 L672 1750 L672 1549 L-31 1549 L-31 1750 Z "/>
<glyph glyph-name="imacron" unicode="ī" horiz-adv-x="551" d="M440 928 L440 0 L112 0 L112 928 L440 928 Z M-28 1307 L580 1307 L580 1106 L-28 1106 L-28 1307 Z "/>
<glyph glyph-name="ibreve" unicode="ĭ" horiz-adv-x="551" d="M440 928 L440 0 L112 0 L112 928 L440 928 Z M-55 1421 L154 1421 Q163 1348 186 1313 Q213 1272 274 1272 Q337 1272 366 1317 Q386 1349 397 1421 L606 1421 Q597 1290 557 1219 Q478 1078 279 1078 Q136 1078 60 1150 Q-19 1223 -43 1322 Q-52 1356 -55 1421 Z "/>
<glyph glyph-name="Iogonek" unicode="Į" horiz-adv-x="642" d="M143 0 L143 1365 L498 1365 L498 0 Q440 -24 406 -55 Q349 -105 349 -160 Q349 -199 376 -221 Q399 -239 429 -239 Q476 -239 538 -206 L491 -390 Q426 -421 345 -421 Q241 -421 182 -363 Q131 -314 131 -243 Q131 -102 304 0 L143 0 Z "/>
<glyph glyph-name="iogonek" unicode="į" horiz-adv-x="552" d="M111 0 L111 928 L439 928 L439 0 Q394 -11 360 -40 Q305 -87 305 -148 Q305 -220 368 -220 Q411 -220 475 -182 L431 -359 Q372 -394 305 -394 Q213 -394 161 -341 Q117 -295 117 -226 Q117 -133 203 -52 Q235 -23 273 0 L111 0 Z M275 1469 Q352 1469 406 1415 Q460 1361 460 1285 Q460 1208 406 1154 Q352 1100 276 1100 Q198 1100 145 1154 Q91 1209 91 1287 Q91 1362 145 1415 Q200 1469 275 1469 Z "/>
<glyph glyph-name="Idotaccent" unicode="İ" horiz-adv-x="642" d="M498 1365 L498 0 L143 0 L143 1365 L498 1365 Z M320 1850 Q394 1850 446 1798 Q498 1746 498 1673 Q498 1599 446 1547 Q394 1495 321 1495 Q246 1495 195 1547 Q143 1600 143 1675 Q143 1747 195 1798 Q248 1850 320 1850 Z "/>
<glyph glyph-name="IJ" unicode="Ĳ" horiz-adv-x="1587" d="M498 1365 L498 0 L143 0 L143 1365 L498 1365 Z M1443 1365 L1443 421 Q1443 281 1408 208 Q1347 84 1222 17 Q1120 -37 997 -37 Q778 -37 641 165 L873 402 Q879 349 904 316 Q939 269 989 269 Q1089 269 1089 426 L1088 502 L1088 1365 L1443 1365 Z "/>
<glyph glyph-name="ij" unicode="ĳ" horiz-adv-x="1103" d="M439 928 L439 0 L111 0 L111 928 L439 928 Z M275 1469 Q352 1469 406 1415 Q460 1361 460 1285 Q460 1208 406 1154 Q352 1100 276 1100 Q198 1100 145 1154 Q91 1209 91 1287 Q91 1362 145 1415 Q200 1469 275 1469 Z M991 928 L991 -464 L663 -464 L663 928 L991 928 Z M827 1469 Q904 1469 958 1415 Q1012 1361 1012 1285 Q1012 1208 958 1154 Q904 1100 828 1100 Q751 1100 697 1154 Q643 1209 643 1287 Q643 1362 697 1415 Q752 1469 827 1469 Z "/>
<glyph glyph-name="Kcommaaccent" unicode="Ķ" horiz-adv-x="1433" d="M498 802 L931 1365 L1369 1365 L827 719 L1419 0 L959 0 L498 592 L498 0 L143 0 L143 1365 L498 1365 L498 802 Z M608 -123 L885 -123 L698 -464 L473 -464 L608 -123 Z "/>
<glyph glyph-name="kcommaaccent" unicode="ķ" horiz-adv-x="1264" d="M440 1502 L440 594 L783 928 L1233 928 L768 500 L1261 0 L801 0 L440 378 L440 0 L112 0 L112 1502 L440 1502 Z M523 -116 L773 -116 L586 -457 L388 -457 L523 -116 Z "/>
<glyph glyph-name="kgreenlandic" unicode="ĸ" horiz-adv-x="1264" d="M440 928 L440 594 L783 928 L1233 928 L768 500 L1261 0 L801 0 L440 378 L440 0 L112 0 L112 928 L440 928 Z "/>
<glyph glyph-name="Lacute" unicode="Ĺ" horiz-adv-x="963" d="M498 1365 L498 300 L924 300 L924 0 L143 0 L143 1365 L498 1365 Z M669 1712 L321 1475 L183 1603 L479 1885 L669 1712 Z "/>
<glyph glyph-name="lacute" unicode="ĺ" horiz-adv-x="552" d="M440 1502 L440 0 L112 0 L112 1502 L440 1502 Z M609 1822 L294 1543 L142 1655 L401 1971 L609 1822 Z "/>
<glyph glyph-name="Lcommaaccent" unicode="Ļ" horiz-adv-x="963" d="M498 1365 L498 300 L924 300 L924 0 L143 0 L143 1365 L498 1365 Z M413 -123 L690 -123 L503 -464 L278 -464 L413 -123 Z "/>
<glyph glyph-name="lcommaaccent" unicode="ļ" horiz-adv-x="552" d="M440 1502 L440 0 L112 0 L112 1502 L440 1502 Z M160 -116 L410 -116 L223 -457 L25 -457 L160 -116 Z "/>
<glyph glyph-name="Lcaron" unicode="Ľ" horiz-adv-x="963" d="M498 1365 L498 300 L924 300 L924 0 L143 0 L143 1365 L498 1365 Z M715 1365 L992 1365 L805 1010 L580 1010 L715 1365 Z "/>
<glyph glyph-name="lcaron" unicode="ľ" horiz-adv-x="907" d="M440 1502 L440 0 L112 0 L112 1502 L440 1502 Z M657 1502 L907 1502 L720 1154 L522 1154 L657 1502 Z "/>
<glyph glyph-name="Ldot" unicode="Ŀ" horiz-adv-x="963" d="M526 1365 L526 300 L952 300 L952 0 L171 0 L171 1365 L526 1365 Z M813 894 Q901 894 963 832 Q1025 770 1025 683 Q1025 595 963 533 Q902 471 814 471 Q725 471 664 533 Q602 596 602 685 Q602 771 664 832 Q727 894 813 894 Z "/>
<glyph glyph-name="ldot" unicode="ŀ" horiz-adv-x="975" d="M440 1502 L440 0 L112 0 L112 1502 L440 1502 Z M763 894 Q851 894 913 832 Q975 770 975 683 Q975 595 913 533 Q852 471 764 471 Q675 471 614 533 Q552 596 552 685 Q552 771 614 832 Q677 894 763 894 Z "/>
<glyph glyph-name="Lslash" unicode="Ł" horiz-adv-x="983" d="M514 1365 L514 902 L750 1064 L750 802 L514 640 L514 300 L944 300 L944 0 L159 0 L159 470 L20 365 L20 628 L159 731 L159 1365 L514 1365 Z "/>
<glyph glyph-name="lslash" unicode="ł" horiz-adv-x="683" d="M505 1502 L505 918 L662 1027 L662 763 L505 660 L505 0 L177 0 L177 503 L20 394 L20 656 L177 759 L177 1502 L505 1502 Z "/>
<glyph glyph-name="Nacute" unicode="Ń" horiz-adv-x="1649" d="M143 0 L143 1365 L498 1365 L1151 530 L1151 1365 L1506 1365 L1506 0 L1151 0 L498 836 L498 0 L143 0 Z M1163 1712 L815 1475 L677 1603 L973 1885 L1163 1712 Z "/>
<glyph glyph-name="nacute" unicode="ń" horiz-adv-x="1203" d="M112 928 L440 928 L440 811 Q497 877 545 904 Q623 948 737 948 Q907 948 1005 846 Q1064 786 1080 715 Q1091 666 1091 591 L1091 0 L763 0 L763 470 Q763 577 743 615 Q725 650 685 670 Q651 687 612 687 Q526 687 475 625 Q440 582 440 497 L440 0 L112 0 L112 928 Z M903 1344 L588 1065 L436 1177 L695 1493 L903 1344 Z "/>
<glyph glyph-name="Ncommaaccent" unicode="Ņ" horiz-adv-x="1649" d="M143 0 L143 1365 L498 1365 L1151 530 L1151 1365 L1506 1365 L1506 0 L1151 0 L498 836 L498 0 L143 0 Z M716 -123 L993 -123 L806 -464 L581 -464 L716 -123 Z "/>
<glyph glyph-name="ncommaaccent" unicode="ņ" horiz-adv-x="1203" d="M112 928 L440 928 L440 811 Q497 877 545 904 Q623 948 737 948 Q907 948 1005 846 Q1064 786 1080 715 Q1091 666 1091 591 L1091 0 L763 0 L763 470 Q763 577 743 615 Q725 650 685 670 Q651 687 612 687 Q526 687 475 625 Q440 582 440 497 L440 0 L112 0 L112 928 Z M493 -116 L743 -116 L556 -457 L358 -457 L493 -116 Z "/>
<glyph glyph-name="Ncaron" unicode="Ň" horiz-adv-x="1649" d="M143 0 L143 1365 L498 1365 L1151 530 L1151 1365 L1506 1365 L1506 0 L1151 0 L498 836 L498 0 L143 0 Z M1242 1721 L825 1475 L408 1721 L506 1876 L825 1716 L1144 1876 L1242 1721 Z "/>
<glyph glyph-name="ncaron" unicode="ň" horiz-adv-x="1203" d="M112 928 L440 928 L440 811 Q497 877 545 904 Q623 948 737 948 Q907 948 1005 846 Q1064 786 1080 715 Q1091 666 1091 591 L1091 0 L763 0 L763 470 Q763 577 743 615 Q725 650 685 670 Q651 687 612 687 Q526 687 475 625 Q440 582 440 497 L440 0 L112 0 L112 928 Z M198 1366 L337 1524 L598 1322 L859 1524 L1004 1366 L598 1065 L198 1366 Z "/>
<glyph glyph-name="napostrophe" unicode="ŉ" horiz-adv-x="1596" d="M303 1365 L611 1365 L278 765 L68 765 L303 1365 Z M505 928 L833 928 L833 811 Q890 877 938 904 Q1017 948 1130 948 Q1299 948 1398 846 Q1457 786 1473 715 Q1484 666 1484 591 L1484 0 L1156 0 L1156 470 Q1156 577 1136 615 Q1118 650 1078 670 Q1044 687 1005 687 Q919 687 868 625 Q833 582 833 497 L833 0 L505 0 L505 928 Z "/>
<glyph glyph-name="Eng" unicode="Ŋ" horiz-adv-x="1509" d="M143 1365 L498 1365 L498 1193 Q573 1294 636 1336 Q741 1406 893 1406 Q1118 1406 1250 1253 Q1330 1161 1350 1056 Q1365 980 1365 868 L1365 224 Q1365 86 1332 9 Q1273 -127 1126 -205 Q997 -273 849 -273 Q743 -273 635 -223 L635 89 Q729 43 805 43 Q926 43 978 114 Q1010 156 1010 320 L1010 741 Q1010 851 1004 884 Q986 979 908 1026 Q847 1062 770 1062 Q634 1062 554 971 Q498 908 498 781 L498 0 L143 0 L143 1365 Z "/>
<glyph glyph-name="eng" unicode="ŋ" horiz-adv-x="1203" d="M112 928 L440 928 L440 811 Q497 877 545 904 Q624 948 737 948 Q907 948 1005 846 Q1064 786 1080 715 Q1091 666 1091 591 L1091 180 Q1091 55 1064 -14 Q1018 -132 898 -208 Q795 -273 677 -273 Q606 -273 533 -239 L533 47 Q602 14 647 14 Q692 14 727 44 Q757 70 761 130 Q763 153 763 204 L763 470 Q763 577 743 615 Q726 650 685 670 Q651 687 612 687 Q526 687 475 625 Q440 582 440 497 L440 0 L112 0 L112 928 Z "/>
<glyph glyph-name="Omacron" unicode="Ō" horiz-adv-x="1675" d="M837 1406 Q1179 1406 1396 1177 Q1593 970 1593 679 Q1593 479 1494 310 Q1388 128 1201 33 Q1039 -49 831 -49 Q494 -49 279 179 Q82 387 82 691 Q82 882 181 1047 Q292 1233 474 1324 Q639 1406 837 1406 Z M837 1062 Q678 1062 567 950 Q454 836 454 683 Q454 521 567 407 Q678 295 838 295 Q997 295 1110 407 Q1222 520 1222 679 Q1222 840 1110 950 Q994 1062 837 1062 Z M459 1750 L1217 1750 L1217 1549 L459 1549 L459 1750 Z "/>
<glyph glyph-name="omacron" unicode="ō" horiz-adv-x="1267" d="M633 962 Q909 962 1064 794 Q1192 656 1192 464 Q1192 238 1024 94 Q874 -35 628 -35 Q472 -35 336 32 Q209 95 137 224 Q75 333 75 472 Q75 687 243 833 Q327 905 451 938 Q543 962 633 962 Z M633 679 Q545 679 484 617 Q422 554 422 469 Q422 378 484 315 Q545 253 634 253 Q721 253 783 315 Q845 378 845 466 Q845 556 783 617 Q720 679 633 679 Z M275 1307 L992 1307 L992 1106 L275 1106 L275 1307 Z "/>
<glyph glyph-name="Ohungarumlaut" unicode="Ő" horiz-adv-x="1675" d="M837 1406 Q1179 1406 1396 1177 Q1593 970 1593 679 Q1593 479 1494 310 Q1388 128 1201 33 Q1039 -49 831 -49 Q494 -49 279 179 Q82 387 82 691 Q82 882 181 1047 Q292 1233 474 1324 Q639 1406 837 1406 Z M837 1062 Q678 1062 567 950 Q454 836 454 683 Q454 521 567 407 Q678 295 838 295 Q997 295 1110 407 Q1222 520 1222 679 Q1222 840 1110 950 Q994 1062 837 1062 Z M917 1712 L628 1474 L504 1603 L755 1885 L917 1712 Z M1377 1712 L1088 1474 L964 1603 L1215 1885 L1377 1712 Z "/>
<glyph glyph-name="ohungarumlaut" unicode="ő" horiz-adv-x="1267" d="M633 962 Q909 962 1064 794 Q1192 656 1192 464 Q1192 238 1024 94 Q874 -35 628 -35 Q472 -35 336 32 Q209 95 137 224 Q75 333 75 472 Q75 687 243 833 Q327 905 451 938 Q543 962 633 962 Z M633 679 Q545 679 484 617 Q422 554 422 469 Q422 378 484 315 Q545 253 634 253 Q721 253 783 315 Q845 378 845 466 Q845 556 783 617 Q720 679 633 679 Z M749 1344 L469 1065 L344 1177 L578 1493 L749 1344 Z M1118 1344 L838 1065 L713 1177 L946 1493 L1118 1344 Z "/>
<glyph glyph-name="Racute" unicode="Ŕ" horiz-adv-x="1284" d="M849 560 L1278 0 L836 0 L498 524 L498 0 L143 0 L143 1365 L695 1365 Q858 1365 953 1308 Q1053 1246 1106 1130 Q1147 1040 1147 943 Q1147 830 1095 732 Q1025 600 849 560 Z M498 754 L564 754 Q665 754 716 790 Q746 812 766 854 Q782 889 782 923 Q782 973 749 1020 Q700 1092 564 1092 L498 1092 L498 754 Z M898 1712 L550 1475 L412 1603 L708 1885 L898 1712 Z "/>
<glyph glyph-name="racute" unicode="ŕ" horiz-adv-x="842" d="M112 928 L440 928 L440 776 Q504 875 590 912 Q659 941 745 941 Q770 941 808 938 L808 625 Q740 658 668 658 Q563 658 502 596 Q464 556 452 510 Q440 463 440 397 L440 0 L112 0 L112 928 Z M737 1344 L422 1065 L270 1177 L529 1493 L737 1344 Z "/>
<glyph glyph-name="Rcommaaccent" unicode="Ŗ" horiz-adv-x="1284" d="M849 560 L1278 0 L836 0 L498 524 L498 0 L143 0 L143 1365 L695 1365 Q858 1365 953 1308 Q1053 1246 1106 1130 Q1147 1040 1147 943 Q1147 830 1095 732 Q1025 600 849 560 Z M498 754 L564 754 Q665 754 716 790 Q746 812 766 854 Q782 889 782 923 Q782 973 749 1020 Q700 1092 564 1092 L498 1092 L498 754 Z M547 -123 L824 -123 L637 -464 L412 -464 L547 -123 Z "/>
<glyph glyph-name="rcommaaccent" unicode="ŗ" horiz-adv-x="842" d="M112 928 L440 928 L440 776 Q504 875 590 912 Q659 941 745 941 Q770 941 808 938 L808 625 Q740 658 668 658 Q563 658 502 596 Q464 556 452 510 Q440 463 440 397 L440 0 L112 0 L112 928 Z M190 -116 L440 -116 L253 -457 L55 -457 L190 -116 Z "/>
<glyph glyph-name="Rcaron" unicode="Ř" horiz-adv-x="1284" d="M849 560 L1278 0 L836 0 L498 524 L498 0 L143 0 L143 1365 L695 1365 Q858 1365 953 1308 Q1053 1246 1106 1130 Q1147 1040 1147 943 Q1147 830 1095 732 Q1025 600 849 560 Z M498 754 L564 754 Q665 754 716 790 Q746 812 766 854 Q782 889 782 923 Q782 973 749 1020 Q700 1092 564 1092 L498 1092 L498 754 Z M1018 1721 L601 1475 L184 1721 L282 1876 L601 1716 L920 1876 L1018 1721 Z "/>
<glyph glyph-name="rcaron" unicode="ř" horiz-adv-x="842" d="M112 928 L440 928 L440 776 Q504 875 590 912 Q659 941 745 941 Q770 941 808 938 L808 625 Q740 658 668 658 Q563 658 502 596 Q464 556 452 510 Q440 463 440 397 L440 0 L112 0 L112 928 Z M32 1366 L171 1524 L432 1322 L693 1524 L838 1366 L432 1065 L32 1366 Z "/>
<glyph glyph-name="Sacute" unicode="Ś" horiz-adv-x="1170" d="M1034 1287 L892 1011 Q777 1103 660 1103 Q585 1103 543 1062 Q508 1027 508 983 Q508 944 540 917 Q579 885 632 868 Q668 856 754 831 Q922 781 1003 695 Q1089 602 1089 448 Q1089 213 949 92 Q799 -36 555 -36 Q304 -36 82 119 L234 405 Q393 266 547 266 Q641 266 684 315 Q718 354 718 400 Q718 467 638 509 Q605 527 504 557 Q308 614 245 667 Q136 756 136 938 Q136 1151 277 1280 Q405 1398 601 1398 Q823 1398 1034 1287 Z M924 1712 L576 1475 L438 1603 L734 1885 L924 1712 Z "/>
<glyph glyph-name="sacute" unicode="ś" horiz-adv-x="922" d="M840 901 L729 689 Q636 734 550 734 Q495 734 465 704 Q450 689 450 668 Q450 643 470 629 Q496 610 597 589 Q867 535 867 314 Q867 142 731 47 Q614 -35 426 -35 Q235 -35 55 72 L174 304 Q315 210 435 210 Q482 210 513 233 Q538 252 538 283 Q538 309 522 324 Q496 347 398 367 Q281 392 222 431 Q126 495 126 625 Q126 770 229 864 Q336 961 539 961 Q695 961 840 901 Z M804 1344 L489 1065 L337 1177 L596 1493 L804 1344 Z "/>
<glyph glyph-name="Scircumflex" unicode="Ŝ" horiz-adv-x="1170" d="M1034 1287 L892 1011 Q777 1103 660 1103 Q585 1103 543 1062 Q508 1027 508 983 Q508 944 540 917 Q579 885 632 868 Q668 856 754 831 Q922 781 1003 695 Q1089 602 1089 448 Q1089 213 949 92 Q799 -36 555 -36 Q304 -36 82 119 L234 405 Q393 266 547 266 Q641 266 684 315 Q718 354 718 400 Q718 467 638 509 Q605 527 504 557 Q308 614 245 667 Q136 756 136 938 Q136 1151 277 1280 Q405 1398 601 1398 Q823 1398 1034 1287 Z M196 1630 L613 1876 L1030 1630 L932 1475 L613 1635 L294 1475 L196 1630 Z "/>
<glyph glyph-name="scircumflex" unicode="ŝ" horiz-adv-x="922" d="M840 901 L729 689 Q636 734 550 734 Q495 734 465 704 Q450 689 450 668 Q450 643 470 629 Q496 610 597 589 Q867 535 867 314 Q867 142 731 47 Q614 -35 426 -35 Q235 -35 55 72 L174 304 Q315 210 435 210 Q482 210 513 233 Q538 252 538 283 Q538 309 522 324 Q496 347 398 367 Q281 392 222 431 Q126 495 126 625 Q126 770 229 864 Q336 961 539 961 Q695 961 840 901 Z M99 1223 L499 1524 L905 1223 L760 1065 L499 1267 L238 1065 L99 1223 Z "/>
<glyph glyph-name="Scedilla" unicode="Ş" horiz-adv-x="1170" d="M1034 1287 L892 1011 Q777 1103 660 1103 Q585 1103 543 1062 Q508 1027 508 983 Q508 944 540 917 Q579 885 632 868 Q668 856 754 831 Q922 781 1003 695 Q1089 602 1089 448 Q1089 213 949 92 Q799 -36 555 -36 Q304 -36 82 119 L234 405 Q393 266 547 266 Q641 266 684 315 Q718 354 718 400 Q718 467 638 509 Q605 527 504 557 Q308 614 245 667 Q136 756 136 938 Q136 1151 277 1280 Q405 1398 601 1398 Q823 1398 1034 1287 Z M711 -236 L428 -512 L269 -401 L508 -94 L711 -236 Z "/>
<glyph glyph-name="scedilla" unicode="ş" horiz-adv-x="922" d="M840 901 L729 689 Q636 734 550 734 Q495 734 465 704 Q450 689 450 668 Q450 643 470 629 Q496 610 597 589 Q867 535 867 314 Q867 142 731 47 Q614 -35 426 -35 Q235 -35 55 72 L174 304 Q315 210 435 210 Q482 210 513 233 Q538 252 538 283 Q538 309 522 324 Q496 347 398 367 Q281 392 222 431 Q126 495 126 625 Q126 770 229 864 Q336 961 539 961 Q695 961 840 901 Z M607 -225 L328 -489 L180 -396 L420 -103 L607 -225 Z "/>
<glyph glyph-name="Scaron" unicode="Š" horiz-adv-x="1170" d="M1034 1287 L892 1011 Q777 1103 660 1103 Q585 1103 543 1062 Q508 1027 508 983 Q508 944 540 917 Q579 885 632 868 Q668 856 754 831 Q922 781 1003 695 Q1089 602 1089 448 Q1089 213 949 92 Q799 -36 555 -36 Q304 -36 82 119 L234 405 Q393 266 547 266 Q641 266 684 315 Q718 354 718 400 Q718 467 638 509 Q605 527 504 557 Q308 614 245 667 Q136 756 136 938 Q136 1151 277 1280 Q405 1398 601 1398 Q823 1398 1034 1287 Z M1016 1721 L599 1475 L182 1721 L280 1876 L599 1716 L918 1876 L1016 1721 Z "/>
<glyph glyph-name="scaron" unicode="š" horiz-adv-x="922" d="M840 901 L729 689 Q636 734 550 734 Q495 734 465 704 Q450 689 450 668 Q450 643 470 629 Q496 610 597 589 Q867 535 867 314 Q867 142 731 47 Q614 -35 426 -35 Q235 -35 55 72 L174 304 Q315 210 435 210 Q482 210 513 233 Q538 252 538 283 Q538 309 522 324 Q496 347 398 367 Q281 392 222 431 Q126 495 126 625 Q126 770 229 864 Q336 961 539 961 Q695 961 840 901 Z M99 1366 L238 1524 L499 1322 L760 1524 L905 1366 L499 1065 L99 1366 Z "/>
<glyph glyph-name="Tcommaaccent" unicode="Ţ" horiz-adv-x="965" d="M658 1065 L658 0 L303 0 L303 1065 L14 1065 L14 1365 L952 1365 L952 1065 L658 1065 Z M361 -123 L638 -123 L451 -464 L226 -464 L361 -123 Z "/>
<glyph glyph-name="tcommaaccent" unicode="ţ" horiz-adv-x="675" d="M478 655 L478 0 L150 0 L150 655 L42 655 L42 928 L150 928 L150 1207 L478 1207 L478 928 L665 928 L665 655 L478 655 Z M201 -116 L451 -116 L264 -457 L66 -457 L201 -116 Z "/>
<glyph glyph-name="Tcaron" unicode="Ť" horiz-adv-x="965" d="M658 1065 L658 0 L303 0 L303 1065 L14 1065 L14 1365 L952 1365 L952 1065 L658 1065 Z M900 1721 L483 1475 L66 1721 L164 1876 L483 1716 L802 1876 L900 1721 Z "/>
<glyph glyph-name="tcaron" unicode="ť" horiz-adv-x="949" d="M478 655 L478 0 L150 0 L150 655 L42 655 L42 928 L150 928 L150 1207 L478 1207 L478 928 L665 928 L665 655 L478 655 Z M699 1376 L949 1376 L762 1028 L564 1028 L699 1376 Z "/>
<glyph glyph-name="Tbar" unicode="Ŧ" horiz-adv-x="965" d="M893 862 L893 630 L658 630 L658 0 L303 0 L303 630 L73 630 L73 862 L303 862 L303 1065 L14 1065 L14 1365 L952 1365 L952 1065 L658 1065 L658 862 L893 862 Z "/>
<glyph glyph-name="tbar" unicode="ŧ" horiz-adv-x="675" d="M651 538 L651 351 L478 351 L478 0 L150 0 L150 351 L42 351 L42 538 L150 538 L150 655 L42 655 L42 928 L150 928 L150 1207 L478 1207 L478 928 L665 928 L665 655 L478 655 L478 538 L651 538 Z "/>
<glyph glyph-name="Utilde" unicode="Ũ" horiz-adv-x="1477" d="M498 1365 L498 626 Q498 487 509 447 Q533 362 597 318 Q656 278 735 278 Q830 278 897 333 Q960 386 974 484 Q979 521 979 626 L979 1365 L1334 1365 L1334 578 Q1334 382 1282 277 Q1203 117 1046 35 Q911 -35 730 -35 Q524 -35 373 54 Q204 154 161 351 Q143 434 143 578 L143 1365 L498 1365 Z M509 1509 L338 1509 Q339 1605 366 1667 Q393 1728 447 1763 Q503 1799 568 1799 Q624 1799 755 1757 Q844 1728 883 1728 Q942 1728 962 1802 L1140 1802 Q1127 1684 1102 1635 Q1038 1509 886 1509 Q814 1509 717 1544 Q614 1581 579 1581 Q546 1581 532 1564 Q520 1550 509 1509 Z "/>
<glyph glyph-name="utilde" unicode="ũ" horiz-adv-x="1212" d="M440 928 L440 402 Q440 230 607 230 Q773 230 773 402 L773 928 L1101 928 L1101 339 Q1101 172 998 78 Q868 -40 607 -40 Q345 -40 215 78 Q112 172 112 339 L112 928 L440 928 Z M405 1075 L249 1075 Q249 1135 259 1179 Q279 1268 332 1314 Q385 1360 448 1360 Q489 1360 535 1344 Q563 1335 629 1310 Q710 1281 750 1281 Q778 1281 791 1296.5 Q804 1312 816 1360 L978 1360 Q966 1256 944 1199 Q894 1075 770 1075 Q699 1075 591 1116 Q497 1152 468 1152 Q439 1152 425 1135 Q413 1120 405 1075 Z "/>
<glyph glyph-name="Umacron" unicode="Ū" horiz-adv-x="1477" d="M498 1365 L498 626 Q498 487 509 447 Q533 362 597 318 Q656 278 735 278 Q830 278 897 333 Q960 386 974 484 Q979 521 979 626 L979 1365 L1334 1365 L1334 578 Q1334 382 1282 277 Q1203 117 1046 35 Q911 -35 730 -35 Q524 -35 373 54 Q204 154 161 351 Q143 434 143 578 L143 1365 L498 1365 Z M360 1750 L1118 1750 L1118 1549 L360 1549 L360 1750 Z "/>
<glyph glyph-name="umacron" unicode="ū" horiz-adv-x="1212" d="M440 928 L440 402 Q440 230 607 230 Q773 230 773 402 L773 928 L1101 928 L1101 339 Q1101 172 998 78 Q868 -40 607 -40 Q345 -40 215 78 Q112 172 112 339 L112 928 L440 928 Z M248 1307 L965 1307 L965 1106 L248 1106 L248 1307 Z "/>
<glyph glyph-name="ubreve" unicode="ŭ" horiz-adv-x="1212" d="M440 928 L440 402 Q440 230 607 230 Q773 230 773 402 L773 928 L1101 928 L1101 339 Q1101 172 998 78 Q868 -40 607 -40 Q345 -40 215 78 Q112 172 112 339 L112 928 L440 928 Z M964 1421 Q961 1350 950 1309.5 Q939 1269 912 1227 Q817 1078 606 1078 Q395 1078 300 1227 Q263 1284 254 1347 Q250 1377 248 1421 L457 1421 Q477 1272 606 1272 Q735 1272 755 1421 L964 1421 Z "/>
<glyph glyph-name="Uring" unicode="Ů" horiz-adv-x="1477" d="M498 1365 L498 626 Q498 487 509 447 Q533 362 597 318 Q656 278 735 278 Q830 278 897 333 Q960 386 974 484 Q979 521 979 626 L979 1365 L1334 1365 L1334 578 Q1334 382 1282 277 Q1203 117 1046 35 Q911 -35 730 -35 Q524 -35 373 54 Q204 154 161 351 Q143 434 143 578 L143 1365 L498 1365 Z M731 1892 L745 1892 Q888 1892 961 1822 Q1020 1767 1020 1680 Q1020 1593 961 1538 Q888 1468 745 1468 L731 1468 Q589 1468 516 1538 Q457 1593 457 1682 Q457 1767 516 1822 Q589 1892 731 1892 Z M737 1758 Q690 1758 662 1737 Q633 1715 633 1681 Q633 1645 662 1623 Q690 1602 737 1602 Q787 1602 815 1623 Q844 1645 844 1680 Q844 1716 815 1737 Q787 1758 737 1758 Z "/>
<glyph glyph-name="uring" unicode="ů" horiz-adv-x="1212" d="M440 928 L440 402 Q440 230 607 230 Q773 230 773 402 L773 928 L1101 928 L1101 339 Q1101 172 998 78 Q868 -40 607 -40 Q345 -40 215 78 Q112 172 112 339 L112 928 L440 928 Z M599 1496 L613 1496 Q756 1496 829 1426 Q888 1370 888 1284 Q888 1197 829 1141 Q756 1072 613 1072 L599 1072 Q457 1072 384 1141 Q325 1197 325 1286 Q325 1370 384 1426 Q457 1496 599 1496 Z M604 1366 Q556 1366 527 1344 Q497 1321 497 1285 Q497 1247 527 1224 Q556 1202 605 1202 Q657 1202 686 1224 Q716 1247 716 1284 Q716 1322 686 1344 Q657 1366 604 1366 Z "/>
<glyph glyph-name="Uhungarumlaut" unicode="Ű" horiz-adv-x="1477" d="M498 1365 L498 626 Q498 487 509 447 Q533 362 597 318 Q656 278 735 278 Q830 278 897 333 Q960 386 974 484 Q979 521 979 626 L979 1365 L1334 1365 L1334 578 Q1334 382 1282 277 Q1203 117 1046 35 Q911 -35 730 -35 Q524 -35 373 54 Q204 154 161 351 Q143 434 143 578 L143 1365 L498 1365 Z M817 1712 L528 1474 L404 1603 L655 1885 L817 1712 Z M1277 1712 L988 1474 L864 1603 L1115 1885 L1277 1712 Z "/>
<glyph glyph-name="uhungarumlaut" unicode="ű" horiz-adv-x="1212" d="M440 928 L440 402 Q440 230 607 230 Q773 230 773 402 L773 928 L1101 928 L1101 339 Q1101 172 998 78 Q868 -40 607 -40 Q345 -40 215 78 Q112 172 112 339 L112 928 L440 928 Z M713 1344 L433 1065 L308 1177 L542 1493 L713 1344 Z M1082 1344 L802 1065 L677 1177 L910 1493 L1082 1344 Z "/>
<glyph glyph-name="Uogonek" unicode="Ų" horiz-adv-x="1477" d="M143 1365 L498 1365 L498 626 Q498 487 509 447 Q533 362 597 318 Q656 278 735 278 Q830 278 897 333 Q960 386 974 484 Q979 521 979 626 L979 1365 L1334 1365 L1334 578 Q1334 386 1285 275 Q1243 181 1156 105 Q1121 76 1048 29 Q988 -10 968 -40 Q944 -78 944 -125 Q944 -171 972 -193 Q995 -211 1025 -211 Q1072 -211 1134 -179 L1087 -363 Q1022 -393 941 -393 Q837 -393 778 -335 Q727 -286 727 -219 Q727 -123 820 -33 Q737 -35 721 -35 Q524 -35 373 55 Q203 155 161 351 Q143 435 143 578 L143 1365 Z "/>
<glyph glyph-name="uogonek" unicode="ų" horiz-adv-x="1212" d="M112 928 L440 928 L440 402 Q440 230 607 230 Q773 230 773 402 L773 928 L1101 928 L1101 339 Q1101 184 1023 102 Q984 61 911 15 Q804 -52 804 -130 Q804 -166 830 -187 Q854 -206 884 -206 Q922 -206 987 -169 L942 -346 Q881 -382 797 -382 Q716 -382 660 -326 Q615 -281 615 -220 Q615 -106 711 -35 Q626 -40 592 -40 Q348 -40 215 78 Q112 169 112 339 L112 928 Z "/>
<glyph glyph-name="Wcircumflex" unicode="Ŵ" horiz-adv-x="2076" d="M371 1365 L608 483 L897 1365 L1179 1365 L1448 483 L1706 1365 L2076 1365 L1640 0 L1278 0 L1029 791 L768 0 L407 0 L0 1365 L371 1365 Z M621 1630 L1038 1876 L1455 1630 L1357 1475 L1038 1635 L719 1475 L621 1630 Z "/>
<glyph glyph-name="Ycircumflex" unicode="Ŷ" horiz-adv-x="1311" d="M469 656 L-25 1365 L399 1365 L657 993 L905 1365 L1335 1365 L824 656 L824 0 L469 0 L469 656 Z M239 1630 L656 1876 L1073 1630 L975 1475 L656 1635 L337 1475 L239 1630 Z "/>
<glyph glyph-name="ycircumflex" unicode="ŷ" horiz-adv-x="1246" d="M448 127 L0 928 L381 928 L629 452 L870 928 L1246 928 L501 -464 L133 -464 L448 127 Z M220 1223 L620 1524 L1026 1223 L881 1065 L620 1267 L359 1065 L220 1223 Z "/>
<glyph glyph-name="Zacute" unicode="Ź" horiz-adv-x="1293" d="M622 300 L1195 300 L1195 0 L27 0 L673 1065 L136 1065 L136 1365 L1265 1365 L622 300 Z M998 1712 L650 1475 L512 1603 L808 1885 L998 1712 Z "/>
<glyph glyph-name="zacute" unicode="ź" horiz-adv-x="1067" d="M591 273 L982 273 L982 0 L41 0 L479 655 L100 655 L100 928 L1026 928 L591 273 Z M849 1344 L534 1065 L382 1177 L641 1493 L849 1344 Z "/>
<glyph glyph-name="Zdotaccent" unicode="Ż" horiz-adv-x="1293" d="M622 300 L1195 300 L1195 0 L27 0 L673 1065 L136 1065 L136 1365 L1265 1365 L622 300 Z M687 1850 Q761 1850 813 1798 Q865 1746 865 1673 Q865 1599 813 1547 Q761 1495 688 1495 Q613 1495 562 1547 Q510 1600 510 1675 Q510 1747 562 1798 Q615 1850 687 1850 Z "/>
<glyph glyph-name="zdotaccent" unicode="ż" horiz-adv-x="1067" d="M591 273 L982 273 L982 0 L41 0 L479 655 L100 655 L100 928 L1026 928 L591 273 Z M548 1445 Q625 1445 680 1391 Q734 1336 734 1259 Q734 1181 680 1127 Q625 1072 548 1072 Q470 1072 416 1127 Q361 1182 361 1261 Q361 1337 416 1391 Q471 1445 548 1445 Z "/>
<glyph glyph-name="Zcaron" unicode="Ž" horiz-adv-x="1293" d="M622 300 L1195 300 L1195 0 L27 0 L673 1065 L136 1065 L136 1365 L1265 1365 L622 300 Z M1104 1721 L687 1475 L270 1721 L368 1876 L687 1716 L1006 1876 L1104 1721 Z "/>
<glyph glyph-name="zcaron" unicode="ž" horiz-adv-x="1067" d="M591 273 L982 273 L982 0 L41 0 L479 655 L100 655 L100 928 L1026 928 L591 273 Z M144 1366 L283 1524 L544 1322 L805 1524 L950 1366 L544 1065 L144 1366 Z "/>
<glyph glyph-name="uni018F" unicode="Ə" horiz-adv-x="1636" d="M1185 754 Q1183 828 1144 887 Q1041 1041 822 1041 Q674 1041 572 963 Q522 925 474 853 L162 1008 Q231 1125 312 1200 Q512 1385 812 1385 Q1156 1385 1361 1176 Q1558 974 1558 683 Q1558 494 1470 339 Q1364 153 1162 55 Q1005 -21 820 -21 Q515 -21 321 168 Q162 324 109 586 Q97 644 87 754 L1185 754 Z M1162 502 L476 502 Q507 423 530 393 Q565 345 633 310 Q722 263 822 263 Q946 263 1044 331 Q1111 378 1146 461 Q1152 474 1162 502 Z "/>
<glyph glyph-name="Ohorn" unicode="Ơ" horiz-adv-x="1675" d="M1447 1117 Q1527 1006 1560 907.5 Q1593 809 1593 682 Q1593 479 1494 310 Q1388 128 1201 33 Q1040 -49 838 -49 Q494 -49 279 179 Q82 388 82 679 Q82 879 181 1047 Q287 1229 474 1324 Q636 1406 837 1406 Q1145 1406 1366 1209 L1372 1202 L1474 1465 L1724 1465 L1536 1117 L1447 1117 Z M837 1062 Q677 1062 566 950 Q511 895 481 822 Q453 752 453 683 Q453 521 566 407 Q677 295 838 295 Q997 295 1109 407 Q1222 520 1222 679 Q1222 840 1109 950 Q994 1062 837 1062 Z "/>
<glyph glyph-name="ohorn" unicode="ơ" horiz-adv-x="1267" d="M1134 698 Q1192 591 1192 464 Q1192 239 1024 94 Q874 -35 634 -35 Q471 -35 336 32 Q209 95 137 224 Q75 333 75 464 Q75 690 243 833 Q326 904 450 938 Q537 962 631 962 Q792 962 931 895 Q998 862 1055 804 L1149 1046 L1398 1046 L1211 698 L1134 698 Z M633 680 Q545 680 484 618 Q422 555 422 469 Q422 379 484 316 Q545 253 634 253 Q721 253 783 316 Q845 378 845 467 Q845 557 783 618 Q720 680 633 680 Z "/>
<glyph glyph-name="Uhorn" unicode="Ư" horiz-adv-x="1477" d="M498 1365 L498 626 Q498 487 509 447 Q533 362 597 318 Q656 278 735 278 Q830 278 897 333 Q960 386 974 484 Q979 521 979 626 L979 1365 L1334 1365 L1334 578 Q1334 382 1282 277 Q1203 117 1046 35 Q911 -35 730 -35 Q524 -35 373 54 Q204 154 161 351 Q143 434 143 578 L143 1365 L498 1365 Z M1524 1465 L1801 1465 L1614 1110 L1389 1110 L1524 1465 Z "/>
<glyph glyph-name="uhorn" unicode="ư" horiz-adv-x="1212" d="M440 928 L440 402 Q440 230 607 230 Q773 230 773 402 L773 928 L1101 928 L1101 339 Q1101 172 998 78 Q868 -40 607 -40 Q345 -40 215 78 Q112 172 112 339 L112 928 L440 928 Z M1293 1039 L1542 1039 L1355 691 L1157 691 L1293 1039 Z "/>
<glyph glyph-name="uni01CD" unicode="Ǎ" horiz-adv-x="1454" d="M973 238 L483 238 L389 0 L14 0 L539 1365 L926 1365 L1440 0 L1061 0 L973 238 Z M877 508 L730 943 L581 508 L877 508 Z M1144 1721 L727 1475 L310 1721 L408 1876 L727 1716 L1046 1876 L1144 1721 Z "/>
<glyph glyph-name="uni01CE" unicode="ǎ" horiz-adv-x="1270" d="M830 928 L1158 928 L1158 0 L830 0 L830 103 Q724 -30 544 -30 Q427 -30 320 29 Q203 95 138 210 Q75 322 75 466 Q75 703 240 845 Q371 958 541 958 Q656 958 748 905 Q784 885 830 837 L830 928 Z M628 675 Q540 675 478 613 Q416 551 416 467 Q416 378 478 315 Q539 253 628 253 Q716 253 778 315 Q840 377 840 464 Q840 553 778 613 Q714 675 628 675 Z M245 1366 L384 1524 L645 1322 L906 1524 L1051 1366 L645 1065 L245 1366 Z "/>
<glyph glyph-name="uni01D1" unicode="Ǒ" horiz-adv-x="696" d="M348 1403 Q436 1403 498 1341 Q560 1279 560 1192 Q560 1104 498 1042 Q436 980 349 980 Q260 980 199 1042 Q137 1105 137 1194 Q137 1280 199 1341 Q262 1403 348 1403 Z M178 901 L519 901 L519 0 L178 0 L178 901 Z "/>
<glyph glyph-name="uni01D3" unicode="Ǔ" horiz-adv-x="1477" d="M498 1365 L498 626 Q498 487 509 447 Q533 362 597 318 Q656 278 735 278 Q830 278 897 333 Q960 386 974 484 Q979 521 979 626 L979 1365 L1334 1365 L1334 578 Q1334 382 1282 277 Q1203 117 1046 35 Q911 -35 730 -35 Q524 -35 373 54 Q204 154 161 351 Q143 434 143 578 L143 1365 L498 1365 Z M1156 1721 L739 1475 L322 1721 L420 1876 L739 1716 L1058 1876 L1156 1721 Z "/>
<glyph glyph-name="uni01D4" unicode="ǔ" horiz-adv-x="1212" d="M440 928 L440 402 Q440 230 607 230 Q773 230 773 402 L773 928 L1101 928 L1101 339 Q1101 172 998 78 Q868 -40 607 -40 Q345 -40 215 78 Q112 172 112 339 L112 928 L440 928 Z M203 1366 L342 1524 L603 1322 L864 1524 L1009 1366 L603 1065 L203 1366 Z "/>
<glyph glyph-name="uni01DD" unicode="ǝ" horiz-adv-x="1168" d="M757 521 Q755 596 736 642 Q716 691 670 719 Q631 743 588 743 Q511 743 463 696 Q442 676 421 629 L88 641 Q125 740 197 808 Q350 953 577 953 Q818 953 968 808 Q1102 679 1102 471 Q1102 246 946 102 Q806 -26 585 -26 Q335 -26 195 139 Q118 229 84 353 Q67 418 67 521 L757 521 Z M753 356 L407 356 Q417 290 445 252 Q497 182 583 182 Q645 182 695 226 Q743 269 753 356 Z "/>
<glyph glyph-name="Gcaron" unicode="Ǧ" horiz-adv-x="1593" d="M807 758 L1511 758 Q1507 485 1440 338 Q1355 151 1194 52 Q1032 -48 810 -48 Q587 -48 410 54 Q237 154 152 342 Q81 497 81 675 Q81 878 172 1050 Q266 1230 440 1320 Q612 1409 823 1409 Q1094 1409 1272 1254 Q1365 1172 1438 1025 L1101 886 Q1008 1102 806 1102 Q649 1102 551 977 Q452 852 452 675 Q452 474 574 344 Q666 246 817 246 Q970 246 1048 346 Q1085 393 1098 482 L807 482 L807 758 Z M1221 1721 L804 1475 L387 1721 L485 1876 L804 1716 L1123 1876 L1221 1721 Z "/>
<glyph glyph-name="gcaron" unicode="ǧ" horiz-adv-x="1263" d="M1151 928 L1151 64 Q1151 -126 1104 -214 Q1030 -353 882 -418 Q768 -468 611 -468 Q339 -468 186 -306 Q104 -219 86 -113 L455 -113 Q488 -206 611 -206 Q725 -206 785 -128 Q823 -78 823 15 L823 103 Q766 51 724 27 Q640 -19 531 -19 Q303 -19 172 147 Q75 270 75 450 Q75 678 220 821 Q355 954 547 954 Q661 954 745 902 Q780 880 823 831 L823 928 L1151 928 Z M627 678 Q539 678 478 616 Q416 554 416 469 Q416 379 478 317 Q539 255 628 255 Q715 255 777 317 Q839 379 839 467 Q839 556 777 616 Q714 678 627 678 Z M228 1366 L367 1524 L628 1322 L889 1524 L1034 1366 L628 1065 L228 1366 Z "/>
<glyph glyph-name="uni01F4" unicode="Ǵ" horiz-adv-x="1593" d="M807 758 L1511 758 Q1507 485 1440 338 Q1355 151 1194 52 Q1032 -48 810 -48 Q587 -48 410 54 Q237 154 152 342 Q81 497 81 675 Q81 878 172 1050 Q266 1230 440 1320 Q612 1409 823 1409 Q1094 1409 1272 1254 Q1365 1172 1438 1025 L1101 886 Q1008 1102 806 1102 Q649 1102 551 977 Q452 852 452 675 Q452 474 574 344 Q666 246 817 246 Q970 246 1048 346 Q1085 393 1098 482 L807 482 L807 758 Z M1121 1712 L773 1475 L635 1603 L931 1885 L1121 1712 Z "/>
<glyph glyph-name="Scommaaccent" unicode="Ș" horiz-adv-x="1170" d="M1034 1287 L892 1011 Q777 1103 660 1103 Q585 1103 543 1062 Q508 1027 508 983 Q508 944 540 917 Q579 885 632 868 Q668 856 754 831 Q922 781 1003 695 Q1089 602 1089 448 Q1089 213 949 92 Q799 -36 555 -36 Q304 -36 82 119 L234 405 Q393 266 547 266 Q641 266 684 315 Q718 354 718 400 Q718 467 638 509 Q605 527 504 557 Q308 614 245 667 Q136 756 136 938 Q136 1151 277 1280 Q405 1398 601 1398 Q823 1398 1034 1287 Z M436 -123 L713 -123 L526 -464 L301 -464 L436 -123 Z "/>
<glyph glyph-name="scommaaccent" unicode="ș" horiz-adv-x="922" d="M840 901 L729 689 Q636 734 550 734 Q495 734 465 704 Q450 689 450 668 Q450 643 470 629 Q496 610 597 589 Q867 535 867 314 Q867 142 731 47 Q614 -35 426 -35 Q235 -35 55 72 L174 304 Q315 210 435 210 Q482 210 513 233 Q538 252 538 283 Q538 309 522 324 Q496 347 398 367 Q281 392 222 431 Q126 495 126 625 Q126 770 229 864 Q336 961 539 961 Q695 961 840 901 Z M339 -116 L589 -116 L402 -457 L204 -457 L339 -116 Z "/>
<glyph glyph-name="uni021A" unicode="Ț" horiz-adv-x="965" d="M658 1065 L658 0 L303 0 L303 1065 L14 1065 L14 1365 L952 1365 L952 1065 L658 1065 Z M361 -123 L638 -123 L451 -464 L226 -464 L361 -123 Z "/>
<glyph glyph-name="uni021B" unicode="ț" horiz-adv-x="675" d="M478 655 L478 0 L150 0 L150 655 L42 655 L42 928 L150 928 L150 1207 L478 1207 L478 928 L665 928 L665 655 L478 655 Z M201 -116 L451 -116 L264 -457 L66 -457 L201 -116 Z "/>
<glyph glyph-name="Adotaccent" unicode="Ȧ" horiz-adv-x="1454" d="M973 238 L483 238 L389 0 L14 0 L539 1365 L926 1365 L1440 0 L1061 0 L973 238 Z M877 508 L730 943 L581 508 L877 508 Z M727 1850 Q801 1850 853 1798 Q905 1746 905 1673 Q905 1599 853 1547 Q801 1495 728 1495 Q653 1495 602 1547 Q550 1600 550 1675 Q550 1747 602 1798 Q655 1850 727 1850 Z "/>
<glyph glyph-name="adotaccent" unicode="ȧ" horiz-adv-x="1270" d="M830 928 L1158 928 L1158 0 L830 0 L830 103 Q724 -30 544 -30 Q427 -30 320 29 Q203 95 138 210 Q75 322 75 466 Q75 703 240 845 Q371 958 541 958 Q656 958 748 905 Q784 885 830 837 L830 928 Z M628 675 Q540 675 478 613 Q416 551 416 467 Q416 378 478 315 Q539 253 628 253 Q716 253 778 315 Q840 377 840 464 Q840 553 778 613 Q714 675 628 675 Z M642 1445 Q719 1445 774 1391 Q828 1336 828 1259 Q828 1181 774 1127 Q719 1072 642 1072 Q564 1072 510 1127 Q455 1182 455 1261 Q455 1337 510 1391 Q565 1445 642 1445 Z "/>
<glyph glyph-name="dotlessj" unicode="ȷ" horiz-adv-x="552" d="M440 928 L440 -464 L112 -464 L112 928 L440 928 Z "/>
<glyph glyph-name="uni0259" unicode="ə" horiz-adv-x="1168" d="M757 521 Q755 596 736 642 Q716 691 670 719 Q631 743 588 743 Q511 743 463 696 Q442 676 421 629 L88 641 Q125 740 197 808 Q350 953 577 953 Q818 953 968 808 Q1102 679 1102 471 Q1102 246 946 102 Q806 -26 585 -26 Q335 -26 195 139 Q118 229 84 353 Q67 418 67 521 L757 521 Z M753 356 L407 356 Q417 290 445 252 Q497 182 583 182 Q645 182 695 226 Q743 269 753 356 Z "/>
<glyph glyph-name="afii57929" unicode="ʼ" horiz-adv-x="707" d="M303 1365 L611 1365 L278 765 L68 765 L303 1365 Z "/>
<glyph glyph-name="uni02C9" unicode="ˉ" horiz-adv-x="1024" d="M154 1307 L871 1307 L871 1106 L154 1106 L154 1307 Z "/>
<glyph glyph-name="tonos" unicode="΄" horiz-adv-x="1024" d="M392 1065 L351 1502 L672 1502 L631 1065 L392 1065 Z "/>
<glyph glyph-name="dieresistonos" unicode="΅" horiz-adv-x="1024" d="M137 1422 Q204 1422 251 1375 Q298 1328 298 1261 Q298 1194 251 1147 Q204 1100 137 1100 Q70 1100 23 1147 Q-24 1195 -24 1263 Q-24 1328 23 1375 Q71 1422 137 1422 Z M887 1422 Q954 1422 1001 1375 Q1048 1328 1048 1261 Q1048 1194 1001 1147 Q954 1100 887 1100 Q820 1100 773 1147 Q726 1195 726 1263 Q726 1328 773 1375 Q821 1422 887 1422 Z M392 1065 L352 1502 L673 1502 L632 1065 L392 1065 Z "/>
<glyph glyph-name="Alphatonos" unicode="Ά" horiz-adv-x="1492" d="M973 238 L483 238 L389 0 L14 0 L539 1365 L926 1365 L1440 0 L1061 0 L973 238 Z M877 508 L730 943 L581 508 L877 508 Z M105 1065 L64 1502 L385 1502 L344 1065 L105 1065 Z "/>
<glyph glyph-name="uni0387" unicode="·" horiz-adv-x="621" d="M310 696 Q398 696 460 634 Q522 572 522 485 Q522 397 460 335 Q399 273 311 273 Q222 273 161 335 Q99 398 99 487 Q99 573 161 634 Q224 696 310 696 Z "/>
<glyph glyph-name="Epsilontonos" unicode="Έ" horiz-adv-x="1356" d="M1270 1065 L848 1065 L848 837 L1247 837 L1247 537 L848 537 L848 300 L1270 300 L1270 0 L493 0 L493 1365 L1270 1365 L1270 1065 Z M125 1065 L84 1502 L405 1502 L364 1065 L125 1065 Z "/>
<glyph glyph-name="Etatonos" unicode="Ή" horiz-adv-x="1863" d="M858 838 L1370 838 L1370 1365 L1725 1365 L1725 0 L1370 0 L1370 562 L858 562 L858 0 L503 0 L503 1365 L858 1365 L858 838 Z M125 1065 L84 1502 L405 1502 L364 1065 L125 1065 Z "/>
<glyph glyph-name="Iotatonos" unicode="Ί" horiz-adv-x="996" d="M868 1365 L868 0 L513 0 L513 1365 L868 1365 Z M125 1065 L84 1502 L405 1502 L364 1065 L125 1065 Z "/>
<glyph glyph-name="Omicrontonos" unicode="Ό" horiz-adv-x="1976" d="M1147 1406 Q1489 1406 1706 1177 Q1903 970 1903 679 Q1903 479 1804 310 Q1698 128 1511 33 Q1349 -49 1141 -49 Q804 -49 589 179 Q392 387 392 691 Q392 882 491 1047 Q602 1233 784 1324 Q949 1406 1147 1406 Z M1147 1062 Q988 1062 877 950 Q764 836 764 683 Q764 521 877 407 Q988 295 1148 295 Q1307 295 1420 407 Q1532 520 1532 679 Q1532 840 1420 950 Q1304 1062 1147 1062 Z M125 1065 L84 1502 L405 1502 L364 1065 L125 1065 Z "/>
<glyph glyph-name="Upsilontonos" unicode="Ύ" horiz-adv-x="1735" d="M892 656 L398 1365 L822 1365 L1080 993 L1328 1365 L1758 1365 L1247 656 L1247 0 L892 0 L892 656 Z M105 1065 L64 1502 L385 1502 L344 1065 L105 1065 Z "/>
<glyph glyph-name="Omegatonos" unicode="Ώ" horiz-adv-x="1900" d="M345 0 L345 300 L630 300 L630 335 Q361 471 361 780 Q361 972 464 1119 Q653 1387 1097 1387 Q1423 1387 1613 1241 Q1729 1152 1786 1020 Q1834 909 1834 779 Q1834 560 1696 422 Q1653 380 1565 335 L1565 300 L1850 300 L1850 0 L1212 0 L1212 399 Q1308 429 1378 499 Q1470 593 1470 727 Q1470 880 1371 972 Q1275 1062 1097 1062 Q920 1062 824 972 Q725 880 725 727 Q725 583 832 486 Q897 426 983 399 L983 0 L345 0 Z M105 1065 L64 1502 L385 1502 L344 1065 L105 1065 Z "/>
<glyph glyph-name="iotadieresistonos" unicode="ΐ" horiz-adv-x="568" d="M116 0 L116 928 L452 928 L452 0 L116 0 Z M-91 1422 Q-24 1422 23 1375 Q70 1328 70 1261 Q70 1194 23 1147 Q-24 1100 -91 1100 Q-158 1100 -205 1147 Q-252 1195 -252 1263 Q-252 1328 -205 1375 Q-157 1422 -91 1422 Z M659 1422 Q726 1422 773 1375 Q820 1328 820 1261 Q820 1194 773 1147 Q726 1100 659 1100 Q592 1100 545 1147 Q498 1195 498 1263 Q498 1328 545 1375 Q593 1422 659 1422 Z M164 1065 L124 1502 L445 1502 L404 1065 L164 1065 Z "/>
<glyph glyph-name="Alpha" unicode="Α" horiz-adv-x="1454" d="M973 238 L483 238 L389 0 L14 0 L539 1365 L926 1365 L1440 0 L1061 0 L973 238 Z M877 508 L730 943 L581 508 L877 508 Z "/>
<glyph glyph-name="Beta" unicode="Β" horiz-adv-x="1266" d="M143 0 L143 1365 L671 1365 Q862 1365 958 1270 Q1055 1175 1055 1009 Q1055 893 1005 818 Q972 768 905 729 Q1037 702 1095 643 Q1183 553 1183 387 Q1183 222 1072 118 Q947 0 712 0 L143 0 Z M498 828 L563 828 Q648 828 689 865 Q730 902 730 961 Q730 1021 689 1058 Q648 1094 563 1094 L498 1094 L498 828 Z M498 276 L577 276 Q695 276 752 301 Q783 315 803 347 Q824 380 824 421 Q824 504 756 539 Q718 559 672 562 Q633 564 571 564 L498 564 L498 276 Z "/>
<glyph glyph-name="Gamma" unicode="Γ" horiz-adv-x="1003" d="M143 0 L143 1365 L977 1365 L977 1065 L498 1065 L498 0 L143 0 Z "/>
<glyph glyph-name="uni0394" unicode="Δ" horiz-adv-x="1376" d="M-20 0 L488 1365 L882 1365 L1397 0 L-20 0 Z M461 300 L916 300 L685 955 L461 300 Z "/>
<glyph glyph-name="Epsilon" unicode="Ε" horiz-adv-x="1002" d="M920 1065 L498 1065 L498 837 L897 837 L897 537 L498 537 L498 300 L920 300 L920 0 L143 0 L143 1365 L920 1365 L920 1065 Z "/>
<glyph glyph-name="Zeta" unicode="Ζ" horiz-adv-x="1293" d="M622 300 L1195 300 L1195 0 L27 0 L673 1065 L136 1065 L136 1365 L1265 1365 L622 300 Z "/>
<glyph glyph-name="Eta" unicode="Η" horiz-adv-x="1509" d="M498 838 L1010 838 L1010 1365 L1365 1365 L1365 0 L1010 0 L1010 562 L498 562 L498 0 L143 0 L143 1365 L498 1365 L498 838 Z "/>
<glyph glyph-name="Theta" unicode="Θ" horiz-adv-x="1675" d="M627 573 L627 797 L1048 797 L1048 573 L627 573 Z M838 1406 Q1148 1406 1359 1214 Q1476 1108 1537 960 Q1593 826 1593 678 Q1593 464 1480 286 Q1362 102 1160 14 Q1014 -49 839 -49 Q526 -49 316 143 Q82 356 82 688 Q82 892 195 1071 Q309 1253 515 1342 Q660 1406 838 1406 Z M837 1062 Q677 1062 566 950 Q511 895 481 822 Q453 752 453 683 Q453 521 566 407 Q677 295 838 295 Q997 295 1109 407 Q1222 520 1222 679 Q1222 840 1109 950 Q994 1062 837 1062 Z "/>
<glyph glyph-name="Iota" unicode="Ι" horiz-adv-x="642" d="M143 0 L143 1365 L498 1365 L498 0 L143 0 Z "/>
<glyph glyph-name="Kappa" unicode="Κ" horiz-adv-x="1359" d="M498 802 L931 1365 L1369 1365 L827 719 L1419 0 L959 0 L498 592 L498 0 L143 0 L143 1365 L498 1365 L498 802 Z "/>
<glyph glyph-name="Lambda" unicode="Λ" horiz-adv-x="1328" d="M-20 0 L476 1365 L863 1365 L1349 0 L970 0 L668 942 L355 0 L-20 0 Z "/>
<glyph glyph-name="Mu" unicode="Μ" horiz-adv-x="1875" d="M82 0 L314 1365 L664 1365 L941 637 L1234 1365 L1587 1365 L1793 0 L1438 0 L1337 786 L1007 0 L866 0 L551 786 L435 0 L82 0 Z "/>
<glyph glyph-name="Nu" unicode="Ν" horiz-adv-x="1649" d="M143 0 L143 1365 L498 1365 L1151 530 L1151 1365 L1506 1365 L1506 0 L1151 0 L498 836 L498 0 L143 0 Z "/>
<glyph glyph-name="Xi" unicode="Ξ" horiz-adv-x="1272" d="M78 1065 L78 1365 L1195 1365 L1195 1065 L78 1065 Z M117 550 L117 837 L1155 837 L1155 550 L117 550 Z M78 0 L78 300 L1195 300 L1195 0 L78 0 Z "/>
<glyph glyph-name="Omicron" unicode="Ο" horiz-adv-x="1675" d="M837 1406 Q1179 1406 1396 1177 Q1593 970 1593 679 Q1593 479 1494 310 Q1388 128 1201 33 Q1039 -49 831 -49 Q494 -49 279 179 Q82 387 82 691 Q82 882 181 1047 Q292 1233 474 1324 Q639 1406 837 1406 Z M837 1062 Q678 1062 567 950 Q454 836 454 683 Q454 521 567 407 Q678 295 838 295 Q997 295 1110 407 Q1222 520 1222 679 Q1222 840 1110 950 Q994 1062 837 1062 Z "/>
<glyph glyph-name="Pi" unicode="Π" horiz-adv-x="1484" d="M143 0 L143 1365 L1340 1365 L1340 0 L985 0 L985 1065 L498 1065 L498 0 L143 0 Z "/>
<glyph glyph-name="Rho" unicode="Ρ" horiz-adv-x="1227" d="M498 454 L498 0 L143 0 L143 1365 L708 1365 Q869 1365 959 1317 Q1078 1252 1135 1135 Q1182 1040 1182 912 Q1182 705 1072 581 Q960 454 720 454 L498 454 Z M498 739 L616 739 Q719 739 761 778 Q811 824 811 908 Q811 1080 617 1080 L498 1080 L498 739 Z "/>
<glyph glyph-name="Sigma" unicode="Σ" horiz-adv-x="1130" d="M9 0 L410 726 L34 1365 L1044 1365 L1044 1065 L564 1065 L793 726 L535 300 L1059 300 L1059 0 L9 0 Z "/>
<glyph glyph-name="Tau" unicode="Τ" horiz-adv-x="965" d="M658 1065 L658 0 L303 0 L303 1065 L14 1065 L14 1365 L952 1365 L952 1065 L658 1065 Z "/>
<glyph glyph-name="Upsilon" unicode="Υ" horiz-adv-x="1311" d="M469 656 L-25 1365 L399 1365 L657 993 L905 1365 L1335 1365 L824 656 L824 0 L469 0 L469 656 Z "/>
<glyph glyph-name="Phi" unicode="Φ" horiz-adv-x="1976" d="M830 -113 L830 81 Q586 95 449 150 Q265 224 169 369 Q78 506 78 680 Q78 926 250 1088 Q402 1232 683 1267 Q745 1275 830 1280 L830 1475 L1146 1475 L1146 1280 Q1389 1266 1529 1211 Q1712 1137 1809 991 Q1899 855 1899 680 Q1899 434 1727 273 Q1575 129 1294 94 Q1231 86 1146 81 L1146 -113 L830 -113 Z M1146 406 Q1291 417 1367 450 Q1532 521 1532 680 Q1532 853 1343 920 Q1277 944 1146 955 L1146 406 Z M830 406 L830 955 Q686 943 610 911 Q445 840 445 680 Q445 508 634 440 Q701 417 830 406 Z "/>
<glyph glyph-name="Chi" unicode="Χ" horiz-adv-x="1455" d="M534 728 L97 1365 L534 1365 L737 1011 L949 1365 L1385 1365 L940 728 L1455 0 L1027 0 L735 444 L429 0 L0 0 L534 728 Z "/>
<glyph glyph-name="Psi" unicode="Ψ" horiz-adv-x="1799" d="M727 0 L727 265 Q550 277 458 300 Q228 356 138 521 Q76 635 76 814 L76 1365 L432 1365 L432 848 Q432 740 461 688 Q503 611 610 590 Q646 583 727 579 L727 1365 L1072 1365 L1072 579 Q1221 587 1277 622 Q1334 658 1353 726 Q1366 771 1366 848 L1366 1365 L1722 1365 L1722 814 Q1722 636 1660 521 Q1571 357 1340 300 Q1248 277 1072 265 L1072 0 L727 0 Z "/>
<glyph glyph-name="uni03A9" unicode="Ω" horiz-adv-x="1600" d="M45 0 L45 300 L330 300 L330 335 Q61 471 61 780 Q61 972 164 1119 Q353 1387 797 1387 Q1123 1387 1313 1241 Q1429 1152 1486 1020 Q1534 909 1534 779 Q1534 560 1396 422 Q1353 380 1265 335 L1265 300 L1550 300 L1550 0 L912 0 L912 399 Q1008 429 1078 499 Q1170 593 1170 727 Q1170 880 1071 972 Q975 1062 797 1062 Q620 1062 524 972 Q425 880 425 727 Q425 583 532 486 Q597 426 683 399 L683 0 L45 0 Z "/>
<glyph glyph-name="Iotadieresis" unicode="Ϊ" horiz-adv-x="642" d="M499 1365 L499 0 L144 0 L144 1365 L499 1365 Z M109 1850 Q183 1850 235 1798 Q287 1746 287 1673 Q287 1599 235 1547 Q183 1495 110 1495 Q35 1495 -16 1547 Q-68 1600 -68 1675 Q-68 1747 -16 1798 Q37 1850 109 1850 Z M532 1850 Q606 1850 658 1798 Q710 1746 710 1673 Q710 1599 658 1547 Q606 1495 533 1495 Q458 1495 407 1547 Q355 1600 355 1675 Q355 1747 407 1798 Q460 1850 532 1850 Z "/>
<glyph glyph-name="Upsilondieresis" unicode="Ϋ" horiz-adv-x="1311" d="M469 656 L-25 1365 L399 1365 L657 993 L905 1365 L1335 1365 L824 656 L824 0 L469 0 L469 656 Z M409 1850 Q483 1850 535 1798 Q587 1746 587 1673 Q587 1599 535 1547 Q483 1495 410 1495 Q335 1495 284 1547 Q232 1600 232 1675 Q232 1747 284 1798 Q337 1850 409 1850 Z M901 1850 Q975 1850 1027 1798 Q1079 1746 1079 1673 Q1079 1599 1027 1547 Q975 1495 902 1495 Q827 1495 776 1547 Q724 1600 724 1675 Q724 1747 776 1798 Q829 1850 901 1850 Z "/>
<glyph glyph-name="alphatonos" unicode="ά" horiz-adv-x="1270" d="M830 928 L1158 928 L1158 0 L830 0 L830 103 Q724 -30 544 -30 Q427 -30 320 29 Q203 95 138 210 Q75 322 75 466 Q75 703 240 845 Q371 958 541 958 Q656 958 748 905 Q784 885 830 837 L830 928 Z M628 675 Q540 675 478 613 Q416 551 416 467 Q416 378 478 315 Q539 253 628 253 Q716 253 778 315 Q840 377 840 464 Q840 553 778 613 Q714 675 628 675 Z M515 1065 L474 1502 L795 1502 L754 1065 L515 1065 Z "/>
<glyph glyph-name="epsilontonos" unicode="έ" horiz-adv-x="952" d="M211 489 Q155 521 130 554 Q88 610 88 688 Q88 776 144 845 Q237 962 508 962 Q696 962 885 915 L885 661 Q733 704 599 704 Q433 704 433 635 Q433 570 605 570 L773 570 L773 364 L595 364 Q414 364 414 298 Q414 263 458 244 Q511 222 597 222 Q730 222 915 257 L915 11 Q742 -36 552 -36 Q294 -36 171 50 Q116 89 87 156 Q65 207 65 265 Q65 426 211 489 Z M408 1065 L367 1502 L688 1502 L647 1065 L408 1065 Z "/>
<glyph glyph-name="etatonos" unicode="ή" horiz-adv-x="1203" d="M112 0 L112 928 L440 928 L440 811 Q495 874 536 899 Q619 948 739 948 Q918 948 1017 834 Q1061 782 1078 723 Q1091 676 1091 591 L1091 -464 L763 -464 L763 470 Q763 542 760 563 Q749 628 704 661 Q667 687 614 687 Q530 687 479 630 Q440 586 440 497 L440 0 L112 0 Z M503 1065 L462 1502 L783 1502 L742 1065 L503 1065 Z "/>
<glyph glyph-name="iotatonos" unicode="ί" horiz-adv-x="568" d="M116 0 L116 928 L452 928 L452 0 L116 0 Z M164 1065 L123 1502 L444 1502 L403 1065 L164 1065 Z "/>
<glyph glyph-name="upsilondieresistonos" unicode="ΰ" horiz-adv-x="1167" d="M107 928 L435 928 L435 429 Q435 356 441 330 Q464 230 584 230 Q674 230 710 288 Q733 323 733 429 L733 928 L1061 928 L1061 420 Q1061 288 1041 218 Q1005 91 881 21 Q770 -40 584 -40 Q288 -40 173 120 Q129 181 115 272 Q107 327 107 420 L107 928 Z M209 1422 Q276 1422 323 1375 Q370 1328 370 1261 Q370 1194 323 1147 Q276 1100 209 1100 Q142 1100 95 1147 Q48 1195 48 1263 Q48 1328 95 1375 Q143 1422 209 1422 Z M959 1422 Q1026 1422 1073 1375 Q1120 1328 1120 1261 Q1120 1194 1073 1147 Q1026 1100 959 1100 Q892 1100 845 1147 Q798 1195 798 1263 Q798 1328 845 1375 Q893 1422 959 1422 Z M464 1065 L424 1502 L745 1502 L704 1065 L464 1065 Z "/>
<glyph glyph-name="alpha" unicode="α" horiz-adv-x="1270" d="M830 928 L1158 928 L1158 0 L830 0 L830 103 Q724 -30 544 -30 Q427 -30 320 29 Q203 95 138 210 Q75 322 75 466 Q75 703 240 845 Q371 958 541 958 Q656 958 748 905 Q784 885 830 837 L830 928 Z M628 675 Q540 675 478 613 Q416 551 416 467 Q416 378 478 315 Q539 253 628 253 Q716 253 778 315 Q840 377 840 464 Q840 553 778 613 Q714 675 628 675 Z "/>
<glyph glyph-name="beta" unicode="β" horiz-adv-x="1226" d="M116 -464 L116 903 Q116 1098 141 1194 Q225 1514 610 1514 Q841 1514 963 1393 Q1073 1284 1073 1109 Q1073 890 901 802 Q998 772 1049 717 Q1151 609 1151 432 Q1151 230 1027 97 Q909 -27 729 -27 Q622 -27 539 12 Q502 29 444 73 L444 -464 L116 -464 Z M444 311 Q522 246 612 246 Q703 246 758 306 Q813 366 813 456 Q813 590 700 638 Q657 656 588 656 Q583 656 570 656 L570 907 Q759 908 759 1057 Q759 1137 718 1189 Q677 1241 601 1241 Q503 1241 466 1156 Q444 1106 444 991 L444 311 Z "/>
<glyph glyph-name="gamma" unicode="γ" horiz-adv-x="1080" d="M368 -464 L368 -192 Q368 31 338 167 Q269 473 -14 928 L343 928 Q486 653 533 394 Q560 535 625 700 L715 928 L1071 928 L865 536 Q772 360 731 190 Q696 49 696 -192 L696 -464 L368 -464 Z "/>
<glyph glyph-name="delta" unicode="δ" horiz-adv-x="1231" d="M465 902 L404 965 Q339 1032 320 1065 Q285 1126 285 1204 Q285 1300 337 1371 Q406 1464 561 1484 Q637 1494 776 1494 L943 1494 L943 1221 L774 1221 Q697 1221 666 1212 Q622 1200 622 1166 Q622 1136 652 1104 Q658 1097 720 1047 L871 924 Q988 829 1011 807 Q1156 661 1156 458 Q1156 317 1090 200 Q1021 78 889 19 Q769 -35 616 -35 Q359 -35 212 110 Q75 247 75 465 Q75 732 274 845 Q345 885 465 902 Z M693 667 Q644 674 612 674 Q521 674 465 612 Q412 553 412 464 Q412 371 468 311 Q522 253 616 253 Q713 253 768 314 Q819 372 819 458 Q819 520 785 572 Q767 600 717 646 L693 667 Z "/>
<glyph glyph-name="epsilon" unicode="ε" horiz-adv-x="952" d="M211 489 Q155 521 130 554 Q88 610 88 688 Q88 776 144 845 Q237 962 508 962 Q696 962 885 915 L885 661 Q733 704 599 704 Q433 704 433 635 Q433 570 605 570 L773 570 L773 364 L595 364 Q414 364 414 298 Q414 263 458 244 Q511 222 597 222 Q730 222 915 257 L915 11 Q742 -36 552 -36 Q294 -36 171 50 Q116 89 87 156 Q65 207 65 265 Q65 426 211 489 Z "/>
<glyph glyph-name="zeta" unicode="ζ" horiz-adv-x="858" d="M103 1221 L103 1494 L883 1494 Q718 1175 596 928 Q491 714 460 627 Q422 518 422 426 Q422 325 477 282 Q518 250 621 227 Q714 207 747 191 Q870 131 870 -27 Q870 -165 760 -288 Q701 -355 590 -443 L405 -257 Q479 -206 511 -177 Q561 -130 561 -79 Q561 -42 530 -28 Q511 -18 429 -4 Q277 21 200 78 Q74 171 74 379 Q74 538 150 712 Q208 844 324 1031 Q338 1053 445 1221 L103 1221 Z "/>
<glyph glyph-name="eta" unicode="η" horiz-adv-x="1203" d="M112 0 L112 928 L440 928 L440 811 Q495 874 536 899 Q619 948 739 948 Q918 948 1017 834 Q1061 782 1078 723 Q1091 676 1091 591 L1091 -464 L763 -464 L763 470 Q763 542 760 563 Q749 628 704 661 Q667 687 614 687 Q530 687 479 630 Q440 586 440 497 L440 0 L112 0 Z "/>
<glyph glyph-name="theta" unicode="θ" horiz-adv-x="1267" d="M430 617 Q446 496 484 400 Q519 310 573 274 Q605 253 634 253 Q678 253 715 291 Q808 389 837 617 L430 617 Z M837 890 Q825 995 783 1102 Q748 1192 692 1229 Q662 1249 633 1249 Q588 1249 551 1209 Q458 1111 431 890 L837 890 Z M627 1537 Q910 1537 1070 1262 Q1192 1052 1192 751 Q1192 554 1130 372 Q1067 186 931 71 Q805 -35 627 -35 Q457 -35 336 71 Q200 190 137 372 Q75 550 75 738 Q75 1053 197 1263 Q356 1537 627 1537 Z "/>
<glyph glyph-name="iota" unicode="ι" horiz-adv-x="568" d="M116 0 L116 928 L452 928 L452 0 L116 0 Z "/>
<glyph glyph-name="kappa" unicode="κ" horiz-adv-x="1082" d="M112 0 L112 928 L440 928 L440 523 L712 928 L1065 928 L736 482 L1099 0 L727 0 L440 405 L440 0 L112 0 Z "/>
<glyph glyph-name="lambda" unicode="λ" horiz-adv-x="1056" d="M-10 0 L346 915 L98 1494 L446 1494 L1081 0 L732 0 L526 550 L356 0 L-10 0 Z "/>
<glyph glyph-name="uni03BC" unicode="μ" horiz-adv-x="1186" d="M116 -427 L116 928 L444 928 L444 456 Q444 364 471 320 Q507 260 596 260 Q691 260 725 329 Q746 372 746 458 L746 928 L1074 928 L1074 0 L802 0 L783 127 Q754 59 728 34 Q685 -7 595 -7 Q492 -7 444 49 L444 -427 L116 -427 Z "/>
<glyph glyph-name="nu" unicode="ν" horiz-adv-x="1181" d="M369 928 L591 452 L814 928 L1181 928 L698 0 L479 0 L0 928 L369 928 Z "/>
<glyph glyph-name="xi" unicode="ξ" horiz-adv-x="898" d="M109 1221 L109 1494 L899 1494 Q859 1460 752 1369 Q663 1295 590 1207 Q496 1094 496 1018 Q496 951 563 909 Q617 875 710 863 Q747 858 827 853 L704 618 Q642 627 609 627 Q531 627 478 580 Q421 530 421 435 Q421 335 481 289 Q524 257 630 233 Q725 212 759 196 Q886 135 886 -26 Q886 -165 776 -288 Q716 -356 606 -443 L421 -257 Q495 -206 527 -177 Q577 -131 577 -79 Q577 -39 545 -25 Q528 -16 441 -1 Q328 20 270 47 Q155 103 112 208 Q74 300 74 418 Q74 597 167 715 Q202 760 271 806 Q222 840 205 862 Q172 906 172 975 Q172 1076 249 1151 Q275 1177 352 1221 L109 1221 Z "/>
<glyph glyph-name="omicron" unicode="ο" horiz-adv-x="1267" d="M633 962 Q909 962 1064 794 Q1192 656 1192 464 Q1192 238 1024 94 Q874 -35 628 -35 Q472 -35 336 32 Q209 95 137 224 Q75 333 75 472 Q75 687 243 833 Q327 905 451 938 Q543 962 633 962 Z M633 679 Q545 679 484 617 Q422 554 422 469 Q422 378 484 315 Q545 253 634 253 Q721 253 783 315 Q845 378 845 466 Q845 556 783 617 Q720 679 633 679 Z "/>
<glyph glyph-name="rho" unicode="ρ" horiz-adv-x="1282" d="M112 -464 L112 338 Q112 637 215 778 Q350 963 658 963 Q955 963 1094 802 Q1207 670 1207 457 Q1207 245 1107 113 Q993 -36 769 -36 Q625 -36 540 9 Q502 29 441 87 L441 -464 L112 -464 Z M666 680 Q554 680 494 608 Q448 553 448 468 Q448 379 494 324 Q553 252 666 252 Q774 252 828 321 Q871 377 871 466 Q871 555 828 611 Q774 680 666 680 Z "/>
<glyph glyph-name="uni03C2" unicode="ς" horiz-adv-x="913" d="M841 902 L841 581 Q787 620 755 636 Q687 670 616 670 Q517 670 467 603 Q422 543 422 447 Q422 337 481 289 Q520 257 630 233 Q725 211 759 195 Q885 135 885 -26 Q885 -165 775 -289 Q716 -356 605 -443 L420 -257 Q495 -206 526 -177 Q576 -131 576 -79 Q576 -40 544 -25 Q526 -16 440 -1 Q328 19 271 46 Q153 102 110 208 Q74 297 74 424 Q74 670 195 817 Q314 962 526 962 Q672 962 841 902 Z "/>
<glyph glyph-name="sigma" unicode="σ" horiz-adv-x="1264" d="M1264 928 L1264 655 L1116 655 Q1123 642 1126 636 Q1170 550 1170 451 Q1170 228 1010 93 Q859 -35 620 -35 Q372 -35 218 110 Q75 246 75 462 Q75 698 238 837 Q377 956 611 956 L1087 928 L1264 928 Z M772 661 Q688 668 646 668 Q527 668 470 601 Q422 545 422 458 Q422 371 472 315 Q528 253 622 253 Q732 253 789 322 Q834 379 834 480 Q834 552 806 606 Q800 618 772 661 Z "/>
<glyph glyph-name="tau" unicode="τ" horiz-adv-x="877" d="M271 0 L271 655 L25 655 L25 928 L852 928 L852 655 L607 655 L607 0 L271 0 Z "/>
<glyph glyph-name="upsilon" unicode="υ" horiz-adv-x="1167" d="M106 928 L434 928 L434 429 Q434 356 440 330 Q463 230 583 230 Q673 230 709 288 Q732 323 732 429 L732 928 L1060 928 L1060 420 Q1060 288 1040 218 Q1004 91 880 21 Q769 -40 583 -40 Q287 -40 172 120 Q128 181 114 272 Q106 327 106 420 L106 928 Z "/>
<glyph glyph-name="phi" unicode="φ" horiz-adv-x="1566" d="M622 -425 L622 -25 Q425 -10 299 62 Q75 192 75 450 Q75 742 380 867 L514 685 Q498 669 490 662 Q443 617 428 588 Q403 538 403 476 Q403 343 502 280 Q556 247 622 240 L622 936 Q722 954 821 954 Q1167 954 1331 821 Q1491 690 1491 460 Q1491 170 1243 46 Q1119 -16 940 -26 L940 -425 L622 -425 Z M940 240 Q1020 244 1076 281 Q1163 337 1163 463 Q1163 591 1067 649 Q1010 684 940 686 L940 240 Z "/>
<glyph glyph-name="chi" unicode="χ" horiz-adv-x="1071" d="M353 279 L16 928 L373 928 L556 551 L694 928 L1046 928 L717 265 L1095 -464 L738 -464 L529 -12 L364 -464 L-8 -464 L353 279 Z "/>
<glyph glyph-name="psi" unicode="ψ" horiz-adv-x="1614" d="M647 -464 L647 -20 L622 -19 Q359 -17 238 81 Q144 157 118 303 Q106 368 106 506 L106 928 L442 928 L442 464 Q442 382 451 343 Q473 254 618 254 L647 254 L647 928 L966 928 L966 254 L995 254 Q1095 254 1135 294 Q1160 320 1167 374 Q1171 404 1171 464 L1171 928 L1507 928 L1507 506 Q1507 347 1489 272 Q1445 93 1280 26 Q1174 -17 991 -19 L966 -20 L966 -464 L647 -464 Z "/>
<glyph glyph-name="omega" unicode="ω" horiz-adv-x="1608" d="M660 677 L948 677 L948 513 Q948 385 967 329 Q977 299 997 280 Q1025 253 1057 253 Q1095 253 1131 287 Q1196 347 1196 513 Q1196 664 1129 791 Q1104 837 1026 928 L1348 928 Q1431 835 1465 765 Q1532 628 1532 467 Q1532 219 1396 82 Q1280 -35 1106 -35 Q894 -35 804 120 Q714 -35 502 -35 Q327 -35 210 83 Q75 221 75 466 Q75 644 155 789 Q186 846 260 928 L582 928 Q498 831 471 775 Q411 653 411 508 Q411 388 453 316 Q491 253 548 253 Q592 253 623 293 Q660 341 660 513 L660 677 Z "/>
<glyph glyph-name="iotadieresis" unicode="ϊ" horiz-adv-x="552" d="M440 928 L440 0 L112 0 L112 928 L440 928 Z M64 1427 Q138 1427 190 1375 Q242 1323 242 1250 Q242 1176 190 1124 Q138 1072 65 1072 Q-10 1072 -61 1124 Q-113 1177 -113 1252 Q-113 1324 -61 1375 Q-8 1427 64 1427 Z M487 1427 Q561 1427 613 1375 Q665 1323 665 1250 Q665 1176 613 1124 Q561 1072 488 1072 Q413 1072 362 1124 Q310 1177 310 1252 Q310 1324 362 1375 Q415 1427 487 1427 Z "/>
<glyph glyph-name="upsilondieresis" unicode="ϋ" horiz-adv-x="1167" d="M106 928 L434 928 L434 429 Q434 356 440 330 Q463 230 583 230 Q673 230 709 288 Q732 323 732 429 L732 928 L1060 928 L1060 420 Q1060 288 1040 218 Q1004 91 880 21 Q769 -40 583 -40 Q287 -40 172 120 Q128 181 114 272 Q106 327 106 420 L106 928 Z M358 1427 Q432 1427 484 1375 Q536 1323 536 1250 Q536 1176 484 1124 Q432 1072 359 1072 Q284 1072 233 1124 Q181 1177 181 1252 Q181 1324 233 1375 Q286 1427 358 1427 Z M822 1427 Q896 1427 948 1375 Q1000 1323 1000 1250 Q1000 1176 948 1124 Q896 1072 823 1072 Q748 1072 697 1124 Q645 1177 645 1252 Q645 1324 697 1375 Q750 1427 822 1427 Z "/>
<glyph glyph-name="omicrontonos" unicode="ό" horiz-adv-x="1267" d="M633 962 Q909 962 1064 794 Q1192 656 1192 464 Q1192 238 1024 94 Q874 -35 628 -35 Q472 -35 336 32 Q209 95 137 224 Q75 333 75 472 Q75 687 243 833 Q327 905 451 938 Q543 962 633 962 Z M633 679 Q545 679 484 617 Q422 554 422 469 Q422 378 484 315 Q545 253 634 253 Q721 253 783 315 Q845 378 845 466 Q845 556 783 617 Q720 679 633 679 Z M514 1065 L473 1502 L794 1502 L753 1065 L514 1065 Z "/>
<glyph glyph-name="upsilontonos" unicode="ύ" horiz-adv-x="1167" d="M106 928 L434 928 L434 429 Q434 356 440 330 Q463 230 583 230 Q673 230 709 288 Q732 323 732 429 L732 928 L1060 928 L1060 420 Q1060 288 1040 218 Q1004 91 880 21 Q769 -40 583 -40 Q287 -40 172 120 Q128 181 114 272 Q106 327 106 420 L106 928 Z M464 1065 L423 1502 L744 1502 L703 1065 L464 1065 Z "/>
<glyph glyph-name="omegatonos" unicode="ώ" horiz-adv-x="1608" d="M660 677 L948 677 L948 513 Q948 385 967 329 Q977 299 997 280 Q1025 253 1057 253 Q1095 253 1131 287 Q1196 347 1196 513 Q1196 664 1129 791 Q1104 837 1026 928 L1348 928 Q1431 835 1465 765 Q1532 628 1532 467 Q1532 219 1396 82 Q1280 -35 1106 -35 Q894 -35 804 120 Q714 -35 502 -35 Q327 -35 210 83 Q75 221 75 466 Q75 644 155 789 Q186 846 260 928 L582 928 Q498 831 471 775 Q411 653 411 508 Q411 388 453 316 Q491 253 548 253 Q592 253 623 293 Q660 341 660 513 L660 677 Z M684 1065 L643 1502 L964 1502 L923 1065 L684 1065 Z "/>
<glyph glyph-name="theta1" unicode="ϑ" horiz-adv-x="1212" d="M752 663 L629 663 Q459 663 377 680 Q216 714 152 827 Q96 925 96 1059 Q96 1275 233 1400 Q357 1514 568 1514 Q869 1514 995 1258 Q1052 1140 1080 928 L1211 928 L1211 663 L1084 663 Q1076 541 1067 485 Q1027 246 913 118 Q785 -25 573 -25 Q391 -25 269 72 Q160 158 109 326 Q74 444 74 593 L74 629 L401 629 L402 586 Q404 464 423 389 Q458 250 567 250 Q745 250 752 663 Z M749 928 Q733 1056 708 1120 Q662 1241 555 1241 Q487 1241 446 1201 Q404 1159 404 1082 Q404 989 463 953 Q504 928 615 928 L749 928 Z "/>
<glyph glyph-name="Upsilon1" unicode="ϒ" horiz-adv-x="1229" d="M433 0 L433 355 Q433 537 388 655 Q286 922 -12 1030 L140 1400 Q282 1350 373 1271 Q489 1169 560 1004 Q599 916 614 812 Q643 1006 756 1162 Q836 1272 950 1339 Q1003 1370 1088 1400 L1240 1030 Q1037 957 927 812 Q848 709 817 581 Q795 489 795 355 L795 0 L433 0 Z "/>
<glyph glyph-name="phi1" unicode="ϕ" horiz-adv-x="1566" d="M626 -26 Q504 -21 396 14 Q230 69 146 199 Q75 309 75 459 Q75 644 179 766 Q316 925 626 950 L626 1262 L941 1262 L941 950 Q1112 936 1232 882 Q1372 819 1440 688 Q1492 588 1492 459 Q1492 238 1343 110 Q1196 -16 941 -26 L941 -344 L626 -344 L626 -26 Z M941 240 Q1020 244 1077 281 Q1164 336 1164 462 Q1164 591 1068 650 Q1011 684 941 687 L941 240 Z M626 240 L626 687 Q544 684 482 638 Q403 580 403 462 Q403 327 505 272 Q557 243 626 240 Z "/>
<glyph glyph-name="afii10023" unicode="Ё" horiz-adv-x="1002" d="M920 1065 L498 1065 L498 837 L897 837 L897 537 L498 537 L498 300 L920 300 L920 0 L143 0 L143 1365 L920 1365 L920 1065 Z M285 1850 Q359 1850 411 1798 Q463 1746 463 1673 Q463 1599 411 1547 Q359 1495 286 1495 Q211 1495 160 1547 Q108 1600 108 1675 Q108 1747 160 1798 Q213 1850 285 1850 Z M777 1850 Q851 1850 903 1798 Q955 1746 955 1673 Q955 1599 903 1547 Q851 1495 778 1495 Q703 1495 652 1547 Q600 1600 600 1675 Q600 1747 652 1798 Q705 1850 777 1850 Z "/>
<glyph glyph-name="afii10051" unicode="Ђ" horiz-adv-x="1455" d="M250 0 L250 1065 L10 1065 L10 1365 L969 1365 L969 1065 L612 1065 L612 682 Q688 742 732 767 Q860 841 1002 841 Q1131 841 1221 780 Q1312 719 1339 611 Q1356 542 1356 447 L1356 -464 L1016 -464 L1016 367 Q1016 453 987 488 Q950 532 862 532 Q769 532 685 463 Q651 436 612 392 L612 0 L250 0 Z "/>
<glyph glyph-name="afii10052" unicode="Ѓ" horiz-adv-x="1003" d="M143 0 L143 1365 L977 1365 L977 1065 L498 1065 L498 0 L143 0 Z M874 1712 L526 1475 L388 1603 L684 1885 L874 1712 Z "/>
<glyph glyph-name="afii10053" unicode="Є" horiz-adv-x="1360" d="M1020 546 L459 546 Q546 294 843 294 Q1064 294 1275 437 L1275 71 Q1196 33 1104 12 Q927 -29 782 -29 Q454 -29 258 181 Q78 374 78 675 Q78 894 179 1067 Q281 1244 462 1327 Q610 1394 798 1394 Q1014 1394 1232 1303 L1232 951 Q1133 999 1069 1021 Q948 1062 834 1062 Q547 1062 459 829 L1020 829 L1020 546 Z "/>
<glyph glyph-name="afii10054" unicode="Ѕ" horiz-adv-x="1170" d="M1034 1287 L892 1011 Q777 1103 660 1103 Q585 1103 543 1062 Q508 1027 508 983 Q508 944 540 917 Q579 885 632 868 Q668 856 754 831 Q922 781 1003 695 Q1089 602 1089 448 Q1089 213 949 92 Q799 -36 555 -36 Q304 -36 82 119 L234 405 Q393 266 547 266 Q641 266 684 315 Q718 354 718 400 Q718 467 638 509 Q605 527 504 557 Q308 614 245 667 Q136 756 136 938 Q136 1151 277 1280 Q405 1398 601 1398 Q823 1398 1034 1287 Z "/>
<glyph glyph-name="afii10055" unicode="І" horiz-adv-x="642" d="M143 0 L143 1365 L498 1365 L498 0 L143 0 Z "/>
<glyph glyph-name="afii10056" unicode="Ї" horiz-adv-x="642" d="M499 1365 L499 0 L144 0 L144 1365 L499 1365 Z M109 1850 Q183 1850 235 1798 Q287 1746 287 1673 Q287 1599 235 1547 Q183 1495 110 1495 Q35 1495 -16 1547 Q-68 1600 -68 1675 Q-68 1747 -16 1798 Q37 1850 109 1850 Z M532 1850 Q606 1850 658 1798 Q710 1746 710 1673 Q710 1599 658 1547 Q606 1495 533 1495 Q458 1495 407 1547 Q355 1600 355 1675 Q355 1747 407 1798 Q460 1850 532 1850 Z "/>
<glyph glyph-name="afii10057" unicode="Ј" horiz-adv-x="959" d="M816 1365 L816 421 Q816 281 781 208 Q720 84 595 17 Q493 -37 370 -37 Q151 -37 14 165 L246 402 Q252 349 277 316 Q312 269 362 269 Q462 269 462 426 L461 502 L461 1365 L816 1365 Z "/>
<glyph glyph-name="afii10058" unicode="Љ" horiz-adv-x="1952" d="M889 0 L889 1065 L583 1065 L581 1029 Q562 689 537 526 Q498 274 404 151 Q286 -2 75 -2 Q47 -2 -20 0 L-20 303 Q9 300 23 300 Q132 300 173 436 Q237 644 260 1365 L1231 1365 L1231 864 L1474 864 Q1687 864 1794 762 Q1911 651 1911 446 Q1911 308 1850 201 Q1737 0 1423 0 L889 0 Z M1231 276 L1368 276 Q1480 276 1523 318 Q1566 361 1566 437 Q1566 520 1516 562 Q1473 598 1368 598 L1231 598 L1231 276 Z "/>
<glyph glyph-name="afii10059" unicode="Њ" horiz-adv-x="2026" d="M143 0 L143 1365 L498 1365 L498 864 L969 864 L969 1365 L1311 1365 L1311 864 L1554 864 Q1767 864 1874 762 Q1991 651 1991 446 Q1991 308 1930 201 Q1817 0 1503 0 L969 0 L969 588 L498 588 L498 0 L143 0 Z M1311 276 L1448 276 Q1560 276 1603 318 Q1646 361 1646 436 Q1646 519 1596 562 Q1552 598 1448 598 L1311 598 L1311 276 Z "/>
<glyph glyph-name="afii10060" unicode="Ћ" horiz-adv-x="1455" d="M250 0 L250 1065 L10 1065 L10 1365 L969 1365 L969 1065 L612 1065 L612 682 Q688 742 732 767 Q860 841 1002 841 Q1131 841 1221 780 Q1312 719 1339 611 Q1356 542 1356 447 L1356 0 L1016 0 L1016 367 Q1016 453 987 488 Q950 532 862 532 Q769 532 685 463 Q651 436 612 392 L612 0 L250 0 Z "/>
<glyph glyph-name="afii10061" unicode="Ќ" horiz-adv-x="1433" d="M498 802 L931 1365 L1369 1365 L827 719 L1419 0 L959 0 L498 592 L498 0 L143 0 L143 1365 L498 1365 L498 802 Z M1043 1712 L695 1475 L557 1603 L853 1885 L1043 1712 Z "/>
<glyph glyph-name="afii10062" unicode="Ў" horiz-adv-x="1257" d="M176 0 L447 483 L-9 1365 L408 1365 L637 809 L869 1365 L1284 1365 L552 0 L176 0 Z M247 1810 L477 1810 Q505 1689 638 1689 Q771 1689 798 1810 L1029 1810 Q1023 1712 974 1643 Q869 1495 638 1495 Q407 1495 301 1643 Q252 1712 247 1810 Z "/>
<glyph glyph-name="afii10145" unicode="Џ" horiz-adv-x="1469" d="M143 0 L143 1365 L498 1365 L498 300 L970 300 L970 1365 L1325 1365 L1325 0 L891 0 L891 -262 L577 -262 L577 0 L143 0 Z "/>
<glyph glyph-name="afii10017" unicode="А" horiz-adv-x="1454" d="M973 238 L483 238 L389 0 L14 0 L539 1365 L926 1365 L1440 0 L1061 0 L973 238 Z M877 508 L730 943 L581 508 L877 508 Z "/>
<glyph glyph-name="afii10018" unicode="Б" horiz-adv-x="1225" d="M143 0 L143 1365 L1080 1365 L1080 1065 L485 1065 L485 835 L727 835 Q944 835 1052 737 Q1171 630 1171 432 Q1171 298 1109 194 Q994 0 677 0 L143 0 Z M485 276 L622 276 Q737 276 781 314 Q826 353 826 422 Q826 498 774 537 Q730 569 622 569 L485 569 L485 276 Z "/>
<glyph glyph-name="afii10019" unicode="В" horiz-adv-x="1266" d="M143 0 L143 1365 L671 1365 Q862 1365 958 1270 Q1055 1175 1055 1009 Q1055 893 1005 818 Q972 768 905 729 Q1037 702 1095 643 Q1183 553 1183 387 Q1183 222 1072 118 Q947 0 712 0 L143 0 Z M498 828 L563 828 Q648 828 689 865 Q730 902 730 961 Q730 1021 689 1058 Q648 1094 563 1094 L498 1094 L498 828 Z M498 276 L577 276 Q695 276 752 301 Q783 315 803 347 Q824 380 824 421 Q824 504 756 539 Q718 559 672 562 Q633 564 571 564 L498 564 L498 276 Z "/>
<glyph glyph-name="afii10020" unicode="Г" horiz-adv-x="1003" d="M143 0 L143 1365 L977 1365 L977 1065 L498 1065 L498 0 L143 0 Z "/>
<glyph glyph-name="afii10021" unicode="Д" horiz-adv-x="1464" d="M-24 -262 L-24 300 L52 300 Q176 300 222 412 Q261 505 296 884 Q314 1074 324 1365 L1306 1365 L1306 300 L1435 300 L1435 -262 L1120 -262 L1120 0 L291 0 L291 -262 L-24 -262 Z M504 300 L951 300 L951 1065 L647 1065 Q641 820 612 586 Q595 452 556 380 Q536 343 504 300 Z "/>
<glyph glyph-name="afii10022" unicode="Е" horiz-adv-x="1002" d="M920 1065 L498 1065 L498 837 L897 837 L897 537 L498 537 L498 300 L920 300 L920 0 L143 0 L143 1365 L920 1365 L920 1065 Z "/>
<glyph glyph-name="afii10024" unicode="Ж" horiz-adv-x="2001" d="M827 0 L827 557 L769 557 L404 0 L-20 0 L476 701 L24 1365 L421 1365 L758 833 L827 833 L827 1365 L1175 1365 L1175 833 L1245 833 L1581 1365 L1978 1365 L1526 701 L2022 0 L1598 0 L1233 557 L1175 557 L1175 0 L827 0 Z "/>
<glyph glyph-name="afii10025" unicode="З" horiz-adv-x="1169" d="M329 565 L329 831 L417 831 Q595 831 662 857 Q738 886 738 949 Q738 1010 666 1041 Q592 1072 478 1072 Q357 1072 247 1039 Q215 1030 89 980 L89 1326 Q286 1394 521 1394 Q773 1394 935 1303 Q1023 1254 1069 1165 Q1103 1099 1103 1021 Q1103 893 1018 807 Q968 757 865 717 Q962 684 1015 638 Q1124 545 1124 392 Q1124 207 982 93 Q886 16 767 -8 Q661 -29 533 -29 Q401 -29 246 -5 Q128 13 51 43 L51 404 Q244 294 476 294 Q754 294 754 433 Q754 514 646 545 Q579 565 416 565 L329 565 Z "/>
<glyph glyph-name="afii10026" unicode="И" horiz-adv-x="1459" d="M143 0 L143 1365 L482 1365 L482 558 L1015 1365 L1315 1365 L1315 0 L976 0 L976 801 L442 0 L143 0 Z "/>
<glyph glyph-name="afii10027" unicode="Й" horiz-adv-x="1459" d="M143 0 L143 1365 L482 1365 L482 558 L1015 1365 L1315 1365 L1315 0 L976 0 L976 801 L442 0 L143 0 Z M338 1810 L568 1810 Q596 1689 729 1689 Q862 1689 889 1810 L1120 1810 Q1114 1712 1065 1643 Q960 1495 729 1495 Q498 1495 392 1643 Q343 1712 338 1810 Z "/>
<glyph glyph-name="afii10028" unicode="К" horiz-adv-x="1359" d="M498 802 L931 1365 L1369 1365 L827 719 L1419 0 L959 0 L498 592 L498 0 L143 0 L143 1365 L498 1365 L498 802 Z "/>
<glyph glyph-name="afii10029" unicode="Л" horiz-adv-x="1387" d="M260 1365 L1244 1365 L1244 0 L889 0 L889 1065 L583 1065 L581 1029 Q562 689 537 526 Q498 274 404 151 Q286 -2 75 -2 Q47 -2 -20 0 L-20 303 Q10 300 23 300 Q132 300 173 436 Q237 645 260 1365 Z "/>
<glyph glyph-name="afii10030" unicode="М" horiz-adv-x="1875" d="M82 0 L314 1365 L664 1365 L941 637 L1234 1365 L1587 1365 L1793 0 L1438 0 L1337 786 L1007 0 L866 0 L551 786 L435 0 L82 0 Z "/>
<glyph glyph-name="afii10031" unicode="Н" horiz-adv-x="1509" d="M498 838 L1010 838 L1010 1365 L1365 1365 L1365 0 L1010 0 L1010 562 L498 562 L498 0 L143 0 L143 1365 L498 1365 L498 838 Z "/>
<glyph glyph-name="afii10032" unicode="О" horiz-adv-x="1675" d="M837 1406 Q1179 1406 1396 1177 Q1593 970 1593 679 Q1593 479 1494 310 Q1388 128 1201 33 Q1039 -49 831 -49 Q494 -49 279 179 Q82 387 82 691 Q82 882 181 1047 Q292 1233 474 1324 Q639 1406 837 1406 Z M837 1062 Q678 1062 567 950 Q454 836 454 683 Q454 521 567 407 Q678 295 838 295 Q997 295 1110 407 Q1222 520 1222 679 Q1222 840 1110 950 Q994 1062 837 1062 Z "/>
<glyph glyph-name="afii10033" unicode="П" horiz-adv-x="1484" d="M143 0 L143 1365 L1340 1365 L1340 0 L985 0 L985 1065 L498 1065 L498 0 L143 0 Z "/>
<glyph glyph-name="afii10034" unicode="Р" horiz-adv-x="1227" d="M498 454 L498 0 L143 0 L143 1365 L708 1365 Q869 1365 959 1317 Q1078 1252 1135 1135 Q1182 1040 1182 912 Q1182 705 1072 581 Q960 454 720 454 L498 454 Z M498 739 L616 739 Q719 739 761 778 Q811 824 811 908 Q811 1080 617 1080 L498 1080 L498 739 Z "/>
<glyph glyph-name="afii10035" unicode="С" horiz-adv-x="1208" d="M1126 1325 L1126 900 Q1004 1050 819 1050 Q657 1050 549 936 Q453 836 453 674 Q453 499 573 398 Q681 307 818 307 Q990 307 1126 450 L1126 30 Q1000 -12 941 -24.5 Q882 -37 808 -37 Q620 -37 447 58 Q263 159 169 327 Q82 480 82 671 Q82 885 188 1055 Q288 1217 465 1309 Q627 1394 805 1394 Q951 1394 1126 1325 Z "/>
<glyph glyph-name="afii10036" unicode="Т" horiz-adv-x="965" d="M658 1065 L658 0 L303 0 L303 1065 L14 1065 L14 1365 L952 1365 L952 1065 L658 1065 Z "/>
<glyph glyph-name="afii10037" unicode="У" horiz-adv-x="1257" d="M176 0 L447 483 L-9 1365 L408 1365 L637 809 L869 1365 L1284 1365 L552 0 L176 0 Z "/>
<glyph glyph-name="afii10038" unicode="Ф" horiz-adv-x="1976" d="M830 -113 L830 81 Q586 95 449 150 Q265 224 169 369 Q78 506 78 680 Q78 926 250 1088 Q402 1232 683 1267 Q745 1275 830 1280 L830 1475 L1146 1475 L1146 1280 Q1389 1266 1529 1211 Q1712 1137 1809 991 Q1899 855 1899 680 Q1899 434 1727 273 Q1575 129 1294 94 Q1231 86 1146 81 L1146 -113 L830 -113 Z M1146 406 Q1291 417 1367 450 Q1532 521 1532 680 Q1532 853 1343 920 Q1277 944 1146 955 L1146 406 Z M830 406 L830 955 Q686 943 610 911 Q445 840 445 680 Q445 508 634 440 Q701 417 830 406 Z "/>
<glyph glyph-name="afii10039" unicode="Х" horiz-adv-x="1455" d="M534 728 L97 1365 L534 1365 L737 1011 L949 1365 L1385 1365 L940 728 L1455 0 L1027 0 L735 444 L429 0 L0 0 L534 728 Z "/>
<glyph glyph-name="afii10040" unicode="Ц" horiz-adv-x="1483" d="M143 0 L143 1365 L498 1365 L498 300 L970 300 L970 1365 L1325 1365 L1325 300 L1454 300 L1454 -262 L1140 -262 L1140 0 L143 0 Z "/>
<glyph glyph-name="afii10041" unicode="Ч" horiz-adv-x="1354" d="M856 0 L856 387 Q712 367 636 367 Q447 367 312 429 Q131 512 90 724 Q74 809 74 937 L74 1365 L429 1365 L429 956 Q429 858 438 821 Q475 667 673 667 Q770 667 856 694 L856 1365 L1211 1365 L1211 0 L856 0 Z "/>
<glyph glyph-name="afii10042" unicode="Ш" horiz-adv-x="2092" d="M143 0 L143 1365 L498 1365 L498 300 L868 300 L868 1365 L1223 1365 L1223 300 L1593 300 L1593 1365 L1948 1365 L1948 0 L143 0 Z "/>
<glyph glyph-name="afii10043" unicode="Щ" horiz-adv-x="2106" d="M143 0 L143 1365 L498 1365 L498 300 L868 300 L868 1365 L1223 1365 L1223 300 L1593 300 L1593 1365 L1948 1365 L1948 300 L2077 300 L2077 -262 L1763 -262 L1763 0 L143 0 Z "/>
<glyph glyph-name="afii10044" unicode="Ъ" horiz-adv-x="1406" d="M343 0 L343 1065 L10 1065 L10 1365 L685 1365 L685 864 L928 864 Q1141 864 1248 762 Q1365 651 1365 446 Q1365 308 1304 201 Q1191 0 877 0 L343 0 Z M685 276 L822 276 Q934 276 977 318 Q1020 361 1020 437 Q1020 520 970 562 Q927 598 822 598 L685 598 L685 276 Z "/>
<glyph glyph-name="afii10045" unicode="Ы" horiz-adv-x="1840" d="M143 0 L143 1365 L485 1365 L485 864 L728 864 Q941 864 1048 762 Q1165 651 1165 446 Q1165 308 1104 201 Q991 0 677 0 L143 0 Z M485 276 L622 276 Q734 276 777 318 Q820 361 820 437 Q820 520 770 562 Q727 598 622 598 L485 598 L485 276 Z M1328 0 L1328 1365 L1696 1365 L1696 0 L1328 0 Z "/>
<glyph glyph-name="afii10046" unicode="Ь" horiz-adv-x="1206" d="M143 0 L143 1365 L485 1365 L485 864 L728 864 Q941 864 1048 762 Q1165 651 1165 446 Q1165 308 1104 201 Q991 0 677 0 L143 0 Z M485 276 L622 276 Q734 276 777 318 Q820 361 820 437 Q820 520 770 562 Q727 598 622 598 L485 598 L485 276 Z "/>
<glyph glyph-name="afii10047" unicode="Э" horiz-adv-x="1360" d="M340 546 L340 829 L901 829 Q813 1062 526 1062 Q412 1062 291 1021 Q227 999 128 951 L128 1303 Q346 1394 562 1394 Q878 1394 1072 1208 Q1177 1106 1232 960 Q1282 827 1282 675 Q1282 374 1102 181 Q906 -29 578 -29 Q433 -29 256 12 Q164 33 85 71 L85 437 Q296 294 517 294 Q814 294 901 546 L340 546 Z "/>
<glyph glyph-name="afii10048" unicode="Ю" horiz-adv-x="2216" d="M143 0 L143 1365 L498 1365 L498 844 L719 844 Q757 994 832 1100 Q920 1222 1056 1296 Q1220 1385 1424 1385 Q1742 1385 1946 1173 Q2138 975 2138 683 Q2138 351 1893 146 Q1693 -21 1412 -21 Q1156 -21 969 122 Q776 268 717 532 L498 532 L498 0 L143 0 Z M1420 1041 Q1256 1041 1152 922 Q1064 821 1064 689 Q1064 524 1176 417 Q1275 323 1418 323 Q1585 323 1686 440 Q1774 541 1774 679 Q1774 837 1661 947 Q1564 1041 1420 1041 Z "/>
<glyph glyph-name="afii10049" unicode="Я" horiz-adv-x="1294" d="M791 496 L752 496 L429 0 L46 0 L416 534 Q287 556 221 615 Q101 720 101 917 Q101 1089 188 1204 Q269 1309 406 1344 Q488 1365 610 1365 L1150 1365 L1150 0 L791 0 L791 496 Z M791 750 L791 1078 L666 1078 Q574 1078 525 1044 Q460 999 460 909 Q460 750 664 750 L791 750 Z "/>
<glyph glyph-name="afii10065" unicode="а" horiz-adv-x="1270" d="M830 928 L1158 928 L1158 0 L830 0 L830 103 Q724 -30 544 -30 Q427 -30 320 29 Q203 95 138 210 Q75 322 75 466 Q75 703 240 845 Q371 958 541 958 Q656 958 748 905 Q784 885 830 837 L830 928 Z M628 675 Q540 675 478 613 Q416 551 416 467 Q416 378 478 315 Q539 253 628 253 Q716 253 778 315 Q840 377 840 464 Q840 553 778 613 Q714 675 628 675 Z "/>
<glyph glyph-name="afii10066" unicode="б" horiz-adv-x="1262" d="M413 842 Q433 858 443 866 Q510 922 564 938 Q631 958 707 958 Q913 958 1046 824 Q1123 747 1160 632 Q1187 550 1187 464 Q1187 244 1036 107 Q886 -30 633 -30 Q358 -30 219 140 Q82 309 82 671 Q82 946 142 1136 Q198 1313 299 1381 Q375 1432 519 1446 Q571 1452 750 1461 Q867 1468 935 1487 Q969 1497 1005 1520 L1048 1262 Q991 1225 948 1213 Q878 1193 767 1193 L680 1194 Q512 1194 465 1109 Q427 1040 413 842 Z M636 675 Q527 675 467 600 Q425 548 425 469 Q425 386 467 331 Q528 253 637 253 Q744 253 805 331 Q848 387 848 466 Q848 546 805 599 Q742 675 636 675 Z "/>
<glyph glyph-name="afii10067" unicode="в" horiz-adv-x="1146" d="M112 0 L112 928 L687 928 Q888 928 961 878 Q1056 813 1056 686 Q1056 547 922 490 Q1085 442 1085 273 Q1085 113 934 41 Q846 0 684 0 L112 0 Z M440 554 L601 554 Q733 554 733 651 Q733 743 608 743 L440 743 L440 554 Z M440 188 L617 188 Q765 188 765 292 Q765 394 617 394 L440 394 L440 188 Z "/>
<glyph glyph-name="afii10068" unicode="г" horiz-adv-x="848" d="M112 0 L112 928 L815 928 L815 655 L440 655 L440 0 L112 0 Z "/>
<glyph glyph-name="afii10069" unicode="д" horiz-adv-x="1208" d="M880 0 L299 0 L299 -262 L-7 -262 L-7 273 L22 273 Q82 273 132 329 Q198 402 224 569 Q245 701 255 928 L1084 928 L1084 273 L1186 273 L1186 -262 L880 -262 L880 0 Z M740 273 L740 655 L546 655 Q524 447 489 375 Q465 324 412 273 L740 273 Z "/>
<glyph glyph-name="afii10070" unicode="е" horiz-adv-x="1172" d="M1096 404 L406 404 Q409 195 606 195 Q681 195 725 231 Q744 247 767 283 L1083 283 Q1053 179 1000 118 Q935 41 833 3 Q726 -37 606 -37 Q350 -37 204 113 Q75 246 75 457 Q75 607 145 730 Q272 954 591 954 Q811 954 941 837 Q1066 723 1090 531 Q1096 479 1096 404 Z M791 594 Q779 646 747 680 Q689 742 600 742 Q510 742 456 683 Q425 650 415 594 L791 594 Z "/>
<glyph glyph-name="afii10072" unicode="ж" horiz-adv-x="1564" d="M625 0 L625 369 L594 369 L338 0 L-25 0 L325 482 L9 928 L359 928 L588 571 L625 571 L625 928 L939 928 L939 571 L975 571 L1204 928 L1554 928 L1238 482 L1588 0 L1225 0 L970 369 L939 369 L939 0 L625 0 Z "/>
<glyph glyph-name="afii10073" unicode="з" horiz-adv-x="952" d="M179 364 L179 570 L347 570 Q519 570 519 635 Q519 704 353 704 Q219 704 67 661 L67 915 Q256 962 445 962 Q642 962 748 898 Q805 864 837 800 Q864 748 864 688 Q864 610 822 554 Q797 521 741 489 Q887 426 887 265 Q887 178 838 109 Q737 -36 397 -36 Q210 -36 37 11 L37 257 Q223 222 355 222 Q441 222 493 244 Q538 263 538 298 Q538 364 357 364 L179 364 Z "/>
<glyph glyph-name="afii10074" unicode="и" horiz-adv-x="1152" d="M112 0 L112 928 L433 928 L433 438 L721 928 L1040 928 L1040 0 L719 0 L719 485 L431 0 L112 0 Z "/>
<glyph glyph-name="afii10075" unicode="й" horiz-adv-x="1152" d="M112 0 L112 928 L433 928 L433 438 L721 928 L1040 928 L1040 0 L719 0 L719 485 L431 0 L112 0 Z M934 1421 Q931 1350 920 1309.5 Q909 1269 882 1227 Q787 1078 576 1078 Q365 1078 270 1227 Q233 1284 224 1347 Q220 1377 218 1421 L427 1421 Q447 1272 576 1272 Q705 1272 725 1421 L934 1421 Z "/>
<glyph glyph-name="afii10076" unicode="к" horiz-adv-x="1082" d="M112 0 L112 928 L440 928 L440 523 L712 928 L1065 928 L736 482 L1099 0 L727 0 L440 405 L440 0 L112 0 Z "/>
<glyph glyph-name="afii10077" unicode="л" horiz-adv-x="1130" d="M690 0 L690 655 L499 655 Q482 393 459 287 Q425 127 321 60 Q225 -2 76 -2 Q74 -2 0 0 L0 283 Q30 280 41 280 Q120 280 151 383 Q184 494 194 928 L1018 928 L1018 0 L690 0 Z "/>
<glyph glyph-name="afii10078" unicode="м" horiz-adv-x="1411" d="M41 0 L196 928 L539 928 L706 365 L872 928 L1214 928 L1370 0 L1052 0 L987 508 L821 0 L581 0 L429 508 L360 0 L41 0 Z "/>
<glyph glyph-name="afii10079" unicode="н" horiz-adv-x="1174" d="M112 0 L112 928 L440 928 L440 610 L734 610 L734 928 L1062 928 L1062 0 L734 0 L734 347 L440 347 L440 0 L112 0 Z "/>
<glyph glyph-name="afii10080" unicode="о" horiz-adv-x="1267" d="M633 962 Q909 962 1064 794 Q1192 656 1192 464 Q1192 238 1024 94 Q874 -35 628 -35 Q472 -35 336 32 Q209 95 137 224 Q75 333 75 472 Q75 687 243 833 Q327 905 451 938 Q543 962 633 962 Z M633 679 Q545 679 484 617 Q422 554 422 469 Q422 378 484 315 Q545 253 634 253 Q721 253 783 315 Q845 378 845 466 Q845 556 783 617 Q720 679 633 679 Z "/>
<glyph glyph-name="afii10081" unicode="п" horiz-adv-x="1166" d="M112 0 L112 928 L1054 928 L1054 0 L726 0 L726 655 L440 655 L440 0 L112 0 Z "/>
<glyph glyph-name="afii10082" unicode="р" horiz-adv-x="1270" d="M440 -464 L112 -464 L112 928 L440 928 L440 825 Q546 958 726 958 Q843 958 949 899 Q1067 833 1132 718 Q1195 606 1195 462 Q1195 225 1030 83 Q899 -30 729 -30 Q614 -30 522 23 Q486 43 440 91 L440 -464 Z M642 675 Q554 675 492 613 Q430 551 430 464 Q430 376 492 314 Q554 252 643 252 Q731 252 792 314 Q854 377 854 461 Q854 552 792 613 Q729 675 642 675 Z "/>
<glyph glyph-name="afii10083" unicode="с" horiz-adv-x="887" d="M812 905 L812 626 Q726 686 642 686 Q537 686 470 613 Q416 553 416 461 Q416 361 482 300 Q549 238 642 238 Q733 238 812 299 L812 21 Q698 -31 582 -31 Q438 -31 312 44 Q75 184 75 456 Q75 686 241 831 Q384 957 591 957 Q710 957 812 905 Z "/>
<glyph glyph-name="afii10084" unicode="т" horiz-adv-x="877" d="M271 0 L271 655 L25 655 L25 928 L852 928 L852 655 L607 655 L607 0 L271 0 Z "/>
<glyph glyph-name="afii10085" unicode="у" horiz-adv-x="1246" d="M448 127 L0 928 L381 928 L629 452 L870 928 L1246 928 L501 -464 L133 -464 L448 127 Z "/>
<glyph glyph-name="afii10086" unicode="ф" horiz-adv-x="1734" d="M709 -464 L709 14 Q641 -17 605.5 -26 Q570 -35 511 -35 Q301 -35 188 113 Q75 259 75 464 Q75 668 188 814 Q301 962 511 962 Q587 962 644 941 Q659 936 709 912 L709 1268 L1024 1268 L1024 912 Q1074 936 1089 941 Q1146 962 1222 962 Q1432 962 1545 814 Q1658 668 1658 464 Q1658 259 1545 113 Q1432 -35 1222 -35 Q1145 -35 1089 -14 Q1076 -10 1024 14 L1024 -464 L709 -464 Z M709 302 L709 625 Q675 652 662 660 Q628 680 579 680 Q492 680 446 614 Q403 552 403 464 Q403 375 446 313 Q492 247 579 247 Q628 247 662 267 Q676 276 709 302 Z M1024 302 Q1056 276 1071 267 Q1105 247 1154 247 Q1242 247 1287 313 Q1330 375 1330 464 Q1330 552 1287 614 Q1242 680 1154 680 Q1105 680 1071 660 Q1057 652 1024 625 L1024 302 Z "/>
<glyph glyph-name="afii10087" unicode="х" horiz-adv-x="1344" d="M464 504 L87 928 L514 928 L674 737 L837 928 L1263 928 L879 504 L1344 0 L910 0 L671 276 L433 0 L0 0 L464 504 Z "/>
<glyph glyph-name="afii10088" unicode="ц" horiz-adv-x="1178" d="M112 0 L112 928 L440 928 L440 273 L726 273 L726 928 L1054 928 L1054 273 L1156 273 L1156 -262 L850 -262 L850 0 L112 0 Z "/>
<glyph glyph-name="afii10089" unicode="ч" horiz-adv-x="1097" d="M658 0 L658 206 Q580 189 510 189 Q192 189 111 376 Q70 472 70 667 L70 928 L398 928 L398 631 Q398 562 407 535 Q432 462 541 462 Q600 462 658 484 L658 928 L986 928 L986 0 L658 0 Z "/>
<glyph glyph-name="afii10090" unicode="ш" horiz-adv-x="1693" d="M112 0 L112 928 L447 928 L447 273 L685 273 L685 928 L1009 928 L1009 273 L1246 273 L1246 928 L1581 928 L1581 0 L112 0 Z "/>
<glyph glyph-name="afii10091" unicode="щ" horiz-adv-x="1706" d="M112 0 L112 928 L447 928 L447 273 L685 273 L685 928 L1009 928 L1009 273 L1246 273 L1246 928 L1581 928 L1581 273 L1684 273 L1684 -262 L1378 -262 L1378 0 L112 0 Z "/>
<glyph glyph-name="afii10092" unicode="ъ" horiz-adv-x="1144" d="M203 0 L203 655 L-2 655 L-2 928 L531 928 L531 663 L683 663 Q898 663 984 606 Q1110 521 1110 339 Q1110 141 963 56 Q866 0 718 0 L203 0 Z M531 213 L660 213 Q738 213 776 238 Q817 266 817 331 Q817 448 665 448 L531 448 L531 213 Z "/>
<glyph glyph-name="afii10093" unicode="ы" horiz-adv-x="1580" d="M112 0 L112 928 L440 928 L440 663 L592 663 Q808 663 893 606 Q1019 522 1019 339 Q1019 141 872 56 Q776 0 627 0 L112 0 Z M440 213 L568 213 Q647 213 685 238 Q726 266 726 331 Q726 448 573 448 L440 448 L440 213 Z M1124 0 L1124 928 L1468 928 L1468 0 L1124 0 Z "/>
<glyph glyph-name="afii10094" unicode="ь" horiz-adv-x="1053" d="M112 0 L112 928 L440 928 L440 663 L592 663 Q808 663 893 606 Q1019 522 1019 339 Q1019 141 872 56 Q776 0 627 0 L112 0 Z M440 213 L568 213 Q647 213 685 238 Q726 266 726 331 Q726 448 573 448 L440 448 L440 213 Z "/>
<glyph glyph-name="afii10095" unicode="э" horiz-adv-x="1074" d="M241 364 L241 571 L654 571 Q624 628 589 653 Q519 704 402 704 Q306 704 223 682 Q192 674 107 644 L107 913 Q300 962 472 962 Q724 962 863 821 Q999 683 999 463 Q999 300 921 174 Q790 -36 430 -36 Q249 -36 82 13 L82 275 Q167 250 202 242 Q291 222 385 222 Q594 222 658 364 L241 364 Z "/>
<glyph glyph-name="afii10096" unicode="ю" horiz-adv-x="1665" d="M112 0 L112 928 L440 928 L440 599 L569 599 Q598 683 623.5 727 Q649 771 691 813 Q835 953 1071 953 Q1306 953 1448 814 Q1590 676 1590 464 Q1590 252 1448 113 Q1306 -26 1070 -26 Q814 -26 670 137 Q603 214 566 338 L440 338 L440 0 L112 0 Z M1069 672 Q972 672 916 608 Q867 552 867 467 Q867 377 916 320 Q972 256 1069 256 Q1165 256 1221 320 Q1270 376 1270 464 Q1270 553 1221 608 Q1163 672 1069 672 Z "/>
<glyph glyph-name="afii10097" unicode="я" horiz-adv-x="1112" d="M665 0 L665 289 L647 291 L415 0 L41 0 L363 343 Q257 354 187 399 Q75 471 75 617 Q75 798 215 877 Q305 928 483 928 L1000 928 L1000 0 L665 0 Z M665 486 L665 723 L551 723 Q469 723 437 697 Q401 667 401 608 Q401 540 443 510 Q474 486 549 486 L665 486 Z "/>
<glyph glyph-name="afii10071" unicode="ё" horiz-adv-x="1172" d="M1096 404 L406 404 Q409 195 606 195 Q681 195 725 231 Q744 247 767 283 L1083 283 Q1053 179 1000 118 Q935 41 833 3 Q726 -37 606 -37 Q350 -37 204 113 Q75 246 75 457 Q75 607 145 730 Q272 954 591 954 Q811 954 941 837 Q1066 723 1090 531 Q1096 479 1096 404 Z M791 594 Q779 646 747 680 Q689 742 600 742 Q510 742 456 683 Q425 650 415 594 L791 594 Z M353 1427 Q427 1427 479 1375 Q531 1323 531 1250 Q531 1176 479 1124 Q427 1072 354 1072 Q279 1072 228 1124 Q176 1177 176 1252 Q176 1324 228 1375 Q281 1427 353 1427 Z M817 1427 Q891 1427 943 1375 Q995 1323 995 1250 Q995 1176 943 1124 Q891 1072 818 1072 Q743 1072 692 1124 Q640 1177 640 1252 Q640 1324 692 1375 Q745 1427 817 1427 Z "/>
<glyph glyph-name="afii10099" unicode="ђ" horiz-adv-x="1152" d="M105 0 L105 1113 L-5 1113 L-5 1296 L105 1296 L105 1499 L449 1499 L449 1296 L751 1296 L751 1113 L449 1113 L449 814 Q510 877 549 902 Q630 953 734 953 Q901 953 984 825 Q1039 742 1039 592 L1039 -425 L701 -425 L701 524 Q701 591 680 622 Q653 664 586 664 Q522 664 484 618 Q449 577 449 482 L449 0 L105 0 Z "/>
<glyph glyph-name="afii10100" unicode="ѓ" horiz-adv-x="848" d="M112 0 L112 928 L815 928 L815 655 L440 655 L440 0 L112 0 Z M764 1344 L449 1065 L297 1177 L556 1493 L764 1344 Z "/>
<glyph glyph-name="afii10101" unicode="є" horiz-adv-x="1074" d="M833 364 L416 364 Q480 222 689 222 Q820 222 992 275 L992 13 Q831 -36 642 -36 Q366 -36 228 85 Q157 147 118 243 Q75 348 75 463 Q75 683 212 821 Q350 962 604 962 Q774 962 968 913 L968 644 Q882 674 851 682 Q768 704 671 704 Q554 704 484 652 Q449 626 420 571 L833 571 L833 364 Z "/>
<glyph glyph-name="afii10102" unicode="ѕ" horiz-adv-x="922" d="M840 901 L729 689 Q636 734 550 734 Q495 734 465 704 Q450 689 450 668 Q450 643 470 629 Q496 610 597 589 Q867 535 867 314 Q867 142 731 47 Q614 -35 426 -35 Q235 -35 55 72 L174 304 Q315 210 435 210 Q482 210 513 233 Q538 252 538 283 Q538 309 522 324 Q496 347 398 367 Q281 392 222 431 Q126 495 126 625 Q126 770 229 864 Q336 961 539 961 Q695 961 840 901 Z "/>
<glyph glyph-name="afii10103" unicode="і" horiz-adv-x="552" d="M439 928 L439 0 L111 0 L111 928 L439 928 Z M275 1469 Q352 1469 406 1415 Q460 1361 460 1285 Q460 1208 406 1154 Q352 1100 276 1100 Q198 1100 145 1154 Q91 1209 91 1287 Q91 1362 145 1415 Q200 1469 275 1469 Z "/>
<glyph glyph-name="afii10104" unicode="ї" horiz-adv-x="552" d="M440 928 L440 0 L112 0 L112 928 L440 928 Z M64 1427 Q138 1427 190 1375 Q242 1323 242 1250 Q242 1176 190 1124 Q138 1072 65 1072 Q-10 1072 -61 1124 Q-113 1177 -113 1252 Q-113 1324 -61 1375 Q-8 1427 64 1427 Z M487 1427 Q561 1427 613 1375 Q665 1323 665 1250 Q665 1176 613 1124 Q561 1072 488 1072 Q413 1072 362 1124 Q310 1177 310 1252 Q310 1324 362 1375 Q415 1427 487 1427 Z "/>
<glyph glyph-name="afii10105" unicode="ј" horiz-adv-x="552" d="M439 928 L439 -464 L111 -464 L111 928 L439 928 Z M275 1469 Q352 1469 406 1415 Q460 1361 460 1285 Q460 1208 406 1154 Q352 1100 276 1100 Q198 1100 145 1154 Q91 1209 91 1287 Q91 1362 145 1415 Q200 1469 275 1469 Z "/>
<glyph glyph-name="afii10106" unicode="љ" horiz-adv-x="1632" d="M691 0 L691 655 L500 655 Q483 394 460 287 Q426 127 321 60 Q225 -2 76 -2 Q74 -2 0 0 L0 284 Q8 283 13 283 Q31 281 41 281 Q120 281 151 384 Q185 495 195 928 L1019 928 L1019 663 L1171 663 Q1386 663 1472 606 Q1598 522 1598 339 Q1598 141 1451 56 Q1355 0 1206 0 L691 0 Z M1019 213 L1147 213 Q1226 213 1264 238 Q1305 266 1305 331 Q1305 448 1152 448 L1019 448 L1019 213 Z "/>
<glyph glyph-name="afii10107" unicode="њ" horiz-adv-x="1676" d="M112 0 L112 928 L440 928 L440 646 L735 646 L735 928 L1063 928 L1063 663 L1215 663 Q1430 663 1516 606 Q1642 521 1642 339 Q1642 141 1495 56 Q1399 0 1250 0 L735 0 L735 404 L440 404 L440 0 L112 0 Z M1063 213 L1191 213 Q1270 213 1308 238 Q1349 266 1349 331 Q1349 448 1196 448 L1063 448 L1063 213 Z "/>
<glyph glyph-name="afii10108" unicode="ћ" horiz-adv-x="1152" d="M105 0 L105 1113 L-5 1113 L-5 1296 L105 1296 L105 1499 L449 1499 L449 1296 L751 1296 L751 1113 L449 1113 L449 814 Q510 877 549 902 Q630 953 734 953 Q901 953 984 825 Q1039 742 1039 592 L1039 0 L701 0 L701 524 Q701 591 680 622 Q653 664 586 664 Q522 664 484 618 Q449 577 449 482 L449 0 L105 0 Z "/>
<glyph glyph-name="afii10109" unicode="ќ" horiz-adv-x="1082" d="M112 0 L112 928 L440 928 L440 523 L712 928 L1065 928 L736 482 L1099 0 L727 0 L440 405 L440 0 L112 0 Z M875 1344 L560 1065 L408 1177 L667 1493 L875 1344 Z "/>
<glyph glyph-name="afii10110" unicode="ў" horiz-adv-x="1246" d="M448 127 L0 928 L381 928 L629 452 L870 928 L1246 928 L501 -464 L133 -464 L448 127 Z M981 1421 Q978 1350 967 1309.5 Q956 1269 929 1227 Q834 1078 623 1078 Q412 1078 317 1227 Q280 1284 271 1347 Q267 1377 265 1421 L474 1421 Q494 1272 623 1272 Q752 1272 772 1421 L981 1421 Z "/>
<glyph glyph-name="afii10193" unicode="џ" horiz-adv-x="1166" d="M112 0 L112 928 L440 928 L440 273 L726 273 L726 928 L1054 928 L1054 0 L736 0 L736 -262 L430 -262 L430 0 L112 0 Z "/>
<glyph glyph-name="afii10050" unicode="Ґ" horiz-adv-x="1003" d="M143 0 L143 1365 L663 1365 L663 1511 L977 1511 L977 1065 L498 1065 L498 0 L143 0 Z "/>
<glyph glyph-name="afii10098" unicode="ґ" horiz-adv-x="848" d="M112 0 L112 928 L517 928 L517 1074 L815 1074 L815 655 L440 655 L440 0 L112 0 Z "/>
<glyph glyph-name="uni0492" unicode="Ғ" horiz-adv-x="1016" d="M144 0 L144 508 L17 508 L17 795 L144 795 L144 1365 L991 1365 L991 1065 L512 1065 L512 795 L796 795 L796 508 L512 508 L512 0 L144 0 Z "/>
<glyph glyph-name="uni0493" unicode="ғ" horiz-adv-x="848" d="M112 0 L112 240 L15 240 L15 486 L112 486 L112 928 L815 928 L815 655 L440 655 L440 486 L651 486 L651 240 L440 240 L440 0 L112 0 Z "/>
<glyph glyph-name="uni0496" unicode="Җ" horiz-adv-x="2001" d="M1810 300 L2018 300 L2018 -262 L1703 -262 L1703 0 L1599 0 L1233 557 L1175 557 L1175 0 L827 0 L827 557 L769 557 L404 0 L-20 0 L476 701 L24 1365 L421 1365 L758 833 L827 833 L827 1365 L1175 1365 L1175 833 L1245 833 L1581 1365 L1978 1365 L1526 701 L1810 300 Z "/>
<glyph glyph-name="uni0497" unicode="җ" horiz-adv-x="1564" d="M1390 273 L1587 273 L1587 -262 L1281 -262 L1281 0 L1224 0 L970 369 L939 369 L939 0 L625 0 L625 369 L594 369 L338 0 L-25 0 L325 483 L9 928 L359 928 L588 571 L625 571 L625 928 L939 928 L939 571 L975 571 L1204 928 L1553 928 L1238 483 L1390 273 Z "/>
<glyph glyph-name="uni049A" unicode="Қ" horiz-adv-x="1359" d="M1149 300 L1366 300 L1366 -262 L1051 -262 L1051 0 L943 0 L498 637 L498 0 L143 0 L143 1365 L498 1365 L498 729 L926 1365 L1334 1365 L845 700 L1149 300 Z "/>
<glyph glyph-name="uni049B" unicode="қ" horiz-adv-x="1082" d="M894 273 L1094 273 L1094 -262 L788 -262 L788 0 L726 0 L440 405 L440 0 L112 0 L112 928 L440 928 L440 523 L712 928 L1065 928 L736 483 L894 273 Z "/>
<glyph glyph-name="uni049C" unicode="Ҝ" horiz-adv-x="1448" d="M143 0 L143 1365 L498 1365 L498 819 L576 819 L576 1128 L725 1128 L725 823 L1015 1365 L1424 1365 L1028 700 L1468 0 L1033 0 L725 547 L725 246 L576 246 L576 543 L498 543 L498 0 L143 0 Z "/>
<glyph glyph-name="uni049D" unicode="ҝ" horiz-adv-x="1170" d="M112 0 L112 928 L440 928 L440 612 L511 612 L511 795 L631 795 L631 613 L800 928 L1153 928 L887 483 L1187 0 L814 0 L631 350 L631 127 L511 127 L511 349 L440 349 L440 0 L112 0 Z "/>
<glyph glyph-name="uni04A2" unicode="Ң" horiz-adv-x="1509" d="M1365 300 L1480 300 L1480 -262 L1165 -262 L1165 0 L1010 0 L1010 562 L498 562 L498 0 L143 0 L143 1365 L498 1365 L498 838 L1010 838 L1010 1365 L1365 1365 L1365 300 Z "/>
<glyph glyph-name="uni04A3" unicode="ң" horiz-adv-x="1174" d="M1062 273 L1152 273 L1152 -262 L846 -262 L846 0 L734 0 L734 347 L440 347 L440 0 L112 0 L112 928 L440 928 L440 610 L734 610 L734 928 L1062 928 L1062 273 Z "/>
<glyph glyph-name="uni04AE" unicode="Ү" horiz-adv-x="1275" d="M457 0 L457 586 L-9 1365 L407 1365 L640 908 L869 1365 L1283 1365 L819 586 L819 0 L457 0 Z "/>
<glyph glyph-name="uni04AF" unicode="ү" horiz-adv-x="1116" d="M395 66 L-10 928 L364 928 L568 339 L761 928 L1126 928 L743 67 L743 -464 L395 -464 L395 66 Z "/>
<glyph glyph-name="uni04B0" unicode="Ұ" horiz-adv-x="1311" d="M469 0 L469 229 L268 229 L268 516 L469 516 L469 656 L-25 1365 L399 1365 L657 993 L905 1365 L1335 1365 L824 656 L824 516 L1042 516 L1042 229 L824 229 L824 0 L469 0 Z "/>
<glyph glyph-name="uni04B1" unicode="ұ" horiz-adv-x="1158" d="M408 -246 L190 -246 L190 0 L408 0 L408 84 L0 926 L376 926 L583 354 L791 926 L1159 926 L755 81 L755 0 L964 0 L964 -246 L755 -246 L755 -464 L408 -464 L408 -246 Z "/>
<glyph glyph-name="uni04B2" unicode="Ҳ" horiz-adv-x="1455" d="M1243 300 L1466 300 L1466 -262 L1151 -262 L1151 0 L1028 0 L736 444 L430 0 L1 0 L535 728 L98 1365 L535 1365 L738 1011 L950 1365 L1386 1365 L940 728 L1243 300 Z "/>
<glyph glyph-name="uni04B3" unicode="ҳ" horiz-adv-x="1344" d="M1092 273 L1304 273 L1304 -262 L998 -262 L998 0 L910 0 L671 276 L433 0 L0 0 L464 504 L87 928 L514 928 L674 737 L837 928 L1263 928 L879 504 L1092 273 Z "/>
<glyph glyph-name="uni04B8" unicode="Ҹ" horiz-adv-x="1354" d="M719 371 L719 128 L570 128 L570 370 Q352 387 233 476 Q113 565 85 757 Q74 830 74 937 L74 1365 L429 1365 L429 956 Q429 858 438 821 Q463 716 570 681 L570 1049 L719 1049 L719 670 Q793 674 856 694 L856 1365 L1211 1365 L1211 0 L856 0 L856 387 Q763 374 719 371 Z "/>
<glyph glyph-name="uni04B9" unicode="ҹ" horiz-adv-x="1097" d="M588 193 L588 48 L468 48 L468 190 Q374 196 315 211 Q138 258 94 425 Q70 520 70 667 L70 928 L398 928 L398 631 Q398 540 421 507 Q436 486 468 473 L468 726 L588 726 L588 465 Q626 472 658 484 L658 928 L986 928 L986 0 L658 0 L658 205 Q619 197 588 193 Z "/>
<glyph glyph-name="uni04BA" unicode="Һ" horiz-adv-x="1349" d="M143 0 L143 1365 L505 1365 L505 789 Q584 850 625 874 Q752 948 895 948 Q1102 948 1195 806 Q1249 725 1249 554 L1249 0 L909 0 L909 474 Q909 564 880 596 Q839 640 754 640 Q630 640 505 499 L505 0 L143 0 Z "/>
<glyph glyph-name="uni04BB" unicode="һ" horiz-adv-x="1203" d="M112 1494 L440 1494 L440 811 Q497 877 545 904 Q624 949 737 949 Q906 949 1005 847 Q1064 787 1080 716 Q1091 666 1091 591 L1091 0 L763 0 L763 470 Q763 577 743 616 Q725 651 685 671 Q651 688 612 688 Q526 688 475 626 Q440 583 440 497 L440 0 L112 0 L112 1494 Z "/>
<glyph glyph-name="uni04C0" unicode="Ӏ" horiz-adv-x="642" d="M143 0 L143 1365 L498 1365 L498 0 L143 0 Z "/>
<glyph glyph-name="uni04CF" unicode="ӏ" horiz-adv-x="642" d="M143 0 L143 1365 L498 1365 L498 0 L143 0 Z "/>
<glyph glyph-name="uni04D8" unicode="Ә" horiz-adv-x="1636" d="M1185 754 Q1183 828 1144 887 Q1041 1041 822 1041 Q674 1041 572 963 Q522 925 474 853 L162 1008 Q231 1125 312 1200 Q512 1385 812 1385 Q1156 1385 1361 1176 Q1558 974 1558 683 Q1558 494 1470 339 Q1364 153 1162 55 Q1005 -21 820 -21 Q515 -21 321 168 Q162 324 109 586 Q97 644 87 754 L1185 754 Z M1162 502 L476 502 Q507 423 530 393 Q565 345 633 310 Q722 263 822 263 Q946 263 1044 331 Q1111 378 1146 461 Q1152 474 1162 502 Z "/>
<glyph glyph-name="afii10846" unicode="ә" horiz-adv-x="1168" d="M757 521 Q755 596 736 642 Q716 691 670 719 Q631 743 588 743 Q511 743 463 696 Q442 676 421 629 L88 641 Q125 740 197 808 Q350 953 577 953 Q818 953 968 808 Q1102 679 1102 471 Q1102 246 946 102 Q806 -26 585 -26 Q335 -26 195 139 Q118 229 84 353 Q67 418 67 521 L757 521 Z M753 356 L407 356 Q417 290 445 252 Q497 182 583 182 Q645 182 695 226 Q743 269 753 356 Z "/>
<glyph glyph-name="uni04E8" unicode="Ө" horiz-adv-x="1634" d="M817 1385 Q1151 1385 1359 1174 Q1557 974 1557 683 Q1557 494 1469 339 Q1363 153 1161 55 Q1004 -21 811 -21 Q632 -21 474 55 Q272 153 166 339 Q78 495 78 696 Q78 886 177 1048 Q288 1229 471 1312 Q632 1385 817 1385 Z M467 807 L1168 807 Q1148 880 1116 925 Q1067 997 981 1035 Q902 1071 815 1071 Q688 1071 593 1001 Q503 935 467 807 Z M462 565 Q484 484 520 434 Q567 369 642 333 Q724 293 818 293 Q950 293 1048 366 Q1137 433 1173 565 L462 565 Z "/>
<glyph glyph-name="uni04E9" unicode="ө" horiz-adv-x="1208" d="M605 953 Q866 953 1014 791 Q1142 653 1142 458 Q1142 223 965 88 Q817 -26 600 -26 Q465 -26 342 32 Q191 102 118 242 Q67 341 67 471 Q67 695 243 836 Q329 905 450 934 Q532 953 605 953 Z M394 552 L815 552 Q797 613 769 645 Q707 718 604 718 Q453 718 394 552 Z M398 370 Q454 209 604 209 Q682 209 741 256 Q776 284 799 337 Q802 345 812 370 L398 370 Z "/>
<glyph glyph-name="Fdotaccent" unicode="Ḟ" horiz-adv-x="994" d="M925 1065 L498 1065 L498 837 L887 837 L887 537 L498 537 L498 0 L143 0 L143 1365 L925 1365 L925 1065 Z M534 1850 Q608 1850 660 1798 Q712 1746 712 1673 Q712 1599 660 1547 Q608 1495 535 1495 Q460 1495 409 1547 Q357 1600 357 1675 Q357 1747 409 1798 Q462 1850 534 1850 Z "/>
<glyph glyph-name="Wacute" unicode="Ẃ" horiz-adv-x="642" d="M61 648 L580 648 L580 375 L61 375 L61 648 Z "/>
<glyph glyph-name="Wdieresis" unicode="Ẅ" horiz-adv-x="2076" d="M371 1365 L608 483 L897 1365 L1179 1365 L1448 483 L1706 1365 L2076 1365 L1640 0 L1278 0 L1029 791 L768 0 L407 0 L0 1365 L371 1365 Z M792 1850 Q866 1850 918 1798 Q970 1746 970 1673 Q970 1599 918 1547 Q866 1495 793 1495 Q718 1495 667 1547 Q615 1600 615 1675 Q615 1747 667 1798 Q720 1850 792 1850 Z M1284 1850 Q1358 1850 1410 1798 Q1462 1746 1462 1673 Q1462 1599 1410 1547 Q1358 1495 1285 1495 Q1210 1495 1159 1547 Q1107 1600 1107 1675 Q1107 1747 1159 1798 Q1212 1850 1284 1850 Z "/>
<glyph glyph-name="uni1EA0" unicode="Ạ" horiz-adv-x="1454" d="M973 238 L483 238 L389 0 L14 0 L539 1365 L926 1365 L1440 0 L1061 0 L973 238 Z M877 508 L730 943 L581 508 L877 508 Z M727 -61 Q801 -61 853 -113 Q905 -165 905 -238 Q905 -312 853 -364 Q801 -416 728 -416 Q653 -416 602 -364 Q550 -311 550 -236 Q550 -164 602 -113 Q655 -61 727 -61 Z "/>
<glyph glyph-name="uni1EA1" unicode="ạ" horiz-adv-x="1270" d="M830 928 L1158 928 L1158 0 L830 0 L830 103 Q724 -30 544 -30 Q427 -30 320 29 Q203 95 138 210 Q75 322 75 466 Q75 703 240 845 Q371 958 541 958 Q656 958 748 905 Q784 885 830 837 L830 928 Z M628 675 Q540 675 478 613 Q416 551 416 467 Q416 378 478 315 Q539 253 628 253 Q716 253 778 315 Q840 377 840 464 Q840 553 778 613 Q714 675 628 675 Z M634 -61 Q708 -61 760 -113 Q812 -165 812 -238 Q812 -312 760 -364 Q708 -416 635 -416 Q560 -416 509 -364 Q457 -311 457 -236 Q457 -164 509 -113 Q562 -61 634 -61 Z "/>
<glyph glyph-name="uni1EA2" unicode="Ả" horiz-adv-x="1454" d="M973 238 L483 238 L389 0 L14 0 L539 1365 L926 1365 L1440 0 L1061 0 L973 238 Z M877 508 L730 943 L581 508 L877 508 Z M790 1512 L654 1512 L654 1689 Q778 1701 798 1706 Q835 1714 835 1747 Q835 1804 757 1804 Q715 1804 622 1765 L576 1882 Q706 1932 791 1932 Q880 1932 938 1889 Q1013 1834 1013 1746 Q1013 1654 931 1611 Q891 1589 825 1589 Q815 1589 790 1590 L790 1512 Z "/>
<glyph glyph-name="uni1EA3" unicode="ả" horiz-adv-x="1270" d="M830 928 L1158 928 L1158 0 L830 0 L830 103 Q724 -30 544 -30 Q427 -30 320 29 Q203 95 138 210 Q75 322 75 466 Q75 703 240 845 Q371 958 541 958 Q656 958 748 905 Q784 885 830 837 L830 928 Z M628 675 Q540 675 478 613 Q416 551 416 467 Q416 378 478 315 Q539 253 628 253 Q716 253 778 315 Q840 377 840 464 Q840 553 778 613 Q714 675 628 675 Z M698 1039 L562 1039 L562 1216 Q683 1227 706 1232 Q743 1241 743 1274 Q743 1331 665 1331 Q625 1331 530 1292 L484 1409 Q617 1459 699 1459 Q788 1459 846 1416 Q921 1361 921 1273 Q921 1181 839 1138 Q799 1116 733 1116 Q722 1116 698 1117 L698 1039 Z "/>
<glyph glyph-name="uni1EA4" unicode="Ấ" horiz-adv-x="1454" d="M906 1771 L1196 2047 L1386 1874 L1083 1667 L1144 1630 L1046 1475 L727 1635 L408 1475 L310 1630 L727 1876 L906 1771 Z M973 238 L483 238 L389 0 L14 0 L539 1365 L926 1365 L1440 0 L1061 0 L973 238 Z M877 508 L730 943 L581 508 L877 508 Z "/>
<glyph glyph-name="uni1EA5" unicode="ấ" horiz-adv-x="1270" d="M832 1386 L1081 1691 L1289 1542 L985 1272 L1052 1223 L907 1065 L645 1267 L384 1065 L245 1223 L645 1524 L832 1386 Z M830 928 L1158 928 L1158 0 L830 0 L830 103 Q724 -30 544 -30 Q427 -30 320 29 Q203 95 138 210 Q75 322 75 466 Q75 703 240 845 Q371 958 541 958 Q656 958 748 905 Q784 885 830 837 L830 928 Z M628 675 Q540 675 478 613 Q416 551 416 467 Q416 378 478 315 Q539 253 628 253 Q716 253 778 315 Q840 377 840 464 Q840 553 778 613 Q714 675 628 675 Z "/>
<glyph glyph-name="uni1EA6" unicode="Ầ" horiz-adv-x="1454" d="M380 1671 L75 1879 L265 2052 L556 1775 L727 1876 L1144 1630 L1046 1475 L727 1635 L408 1475 L310 1630 L380 1671 Z M973 238 L483 238 L389 0 L14 0 L539 1365 L926 1365 L1440 0 L1061 0 L973 238 Z M877 508 L730 943 L581 508 L877 508 Z "/>
<glyph glyph-name="uni1EA7" unicode="ầ" horiz-adv-x="1270" d="M306 1269 L9 1533 L217 1683 L460 1385 L645 1524 L1051 1223 L906 1065 L645 1267 L384 1065 L245 1223 L306 1269 Z M829 928 L1157 928 L1157 0 L829 0 L829 103 Q723 -30 543 -30 Q426 -30 319 29 Q202 95 137 210 Q74 322 74 466 Q74 703 239 845 Q370 958 540 958 Q655 958 747 905 Q783 885 829 837 L829 928 Z M627 675 Q539 675 477 613 Q415 551 415 467 Q415 378 477 315 Q538 253 627 253 Q715 253 777 315 Q839 377 839 464 Q839 553 777 613 Q713 675 627 675 Z "/>
<glyph glyph-name="uni1EA8" unicode="Ẩ" horiz-adv-x="1454" d="M983 1726 L983 1861 Q1108 1873 1127 1877 Q1164 1886 1164 1918 Q1164 1976 1086 1976 Q1044 1976 951 1937 L905 2054 Q1037 2104 1120 2104 Q1209 2104 1267 2062 Q1342 2007 1342 1918 Q1342 1826 1260 1783 Q1220 1761 1157 1761 Q1140 1761 1119 1761 L1119 1684 L1054 1684 L1144 1630 L1046 1475 L728 1635 L409 1475 L311 1630 L728 1876 L983 1726 Z M973 238 L483 238 L389 0 L14 0 L539 1365 L926 1365 L1440 0 L1061 0 L973 238 Z M877 508 L730 943 L581 508 L877 508 Z "/>
<glyph glyph-name="uni1EA9" unicode="ẩ" horiz-adv-x="1270" d="M915 1325 L915 1459 Q1035 1470 1059 1476 Q1096 1484 1096 1517 Q1096 1574 1018 1574 Q978 1574 883 1535 L837 1652 Q970 1702 1052 1702 Q1141 1702 1199 1659 Q1274 1604 1274 1516 Q1274 1424 1192 1381 Q1152 1359 1089 1359 Q1076 1359 1051 1360 L1051 1282 L973 1282 L1052 1223 L907 1065 L646 1266 L385 1065 L246 1223 L646 1524 L915 1325 Z M830 928 L1158 928 L1158 0 L830 0 L830 103 Q724 -30 544 -30 Q427 -30 320 29 Q203 95 138 210 Q75 322 75 466 Q75 703 240 845 Q371 958 541 958 Q656 958 748 905 Q784 885 830 837 L830 928 Z M628 675 Q540 675 478 613 Q416 551 416 467 Q416 378 478 315 Q539 253 628 253 Q716 253 778 315 Q840 377 840 464 Q840 553 778 613 Q714 675 628 675 Z "/>
<glyph glyph-name="uni1EAA" unicode="Ẫ" horiz-adv-x="1454" d="M973 238 L483 238 L389 0 L14 0 L539 1365 L926 1365 L1440 0 L1061 0 L973 238 Z M877 508 L730 943 L581 508 L877 508 Z M310 1630 L727 1876 L1144 1630 L1046 1475 L727 1635 L408 1475 L310 1630 Z M498 1901 L327 1901 Q328 1997 355 2059 Q382 2120 435 2155 Q492 2191 556 2191 Q612 2191 744 2149 Q833 2120 872 2120 Q931 2120 951 2194 L1128 2194 Q1115 2076 1091 2027 Q1027 1901 875 1901 Q803 1901 706 1936 Q603 1973 567 1973 Q535 1973 520 1956 Q509 1942 498 1901 Z "/>
</font>
</svg>
